{"glyphs":{"0":{"ha":750,"x_min":0,"x_max":0,"o":"m 375 -17 b 242 13 326 -17 282 -7 b 138 100 201 32 167 61 b 71 244 108 139 86 188 b 47 443 56 301 47 368 b 71 642 47 518 56 585 b 138 783 86 699 108 746 b 242 868 167 821 201 849 b 375 896 282 886 326 896 b 508 867 424 896 468 886 b 613 781 549 847 583 818 b 679 639 642 743 664 696 b 703 442 694 582 703 517 b 679 243 703 367 694 300 b 613 99 664 186 642 138 b 508 11 583 60 549 31 b 375 -19 468 -10 424 -19 z m 375 164 b 415 175 389 164 403 168 b 449 217 428 182 439 196 b 471 301 458 238 465 265 b 479 443 476 338 479 385 b 471 583 479 501 476 549 b 449 665 465 618 458 646 b 415 703 439 685 428 697 b 375 711 403 708 389 711 b 336 703 361 711 349 708 b 303 664 324 696 313 683 b 281 582 293 644 286 617 b 272 442 275 547 272 500 b 281 300 272 383 275 336 b 303 215 286 264 293 236 b 336 174 313 194 324 181 b 375 163 349 167 361 163 z "},"1":{"ha":750,"x_min":0,"x_max":0,"o":"m 92 192 l 281 192 l 281 647 l 114 647 l 114 794 b 242 828 164 804 207 815 b 344 878 276 840 311 857 l 519 878 l 519 189 l 678 189 l 678 -3 l 92 -3 l 92 189 z "},"2":{"ha":750,"x_min":0,"x_max":0,"o":"m 50 136 b 194 274 101 185 150 231 b 311 394 239 317 278 357 b 390 501 344 432 371 468 b 418 596 408 535 418 567 b 389 685 418 636 408 665 b 310 713 368 703 342 713 b 232 688 281 713 254 704 b 165 629 208 669 186 650 l 38 757 b 106 819 61 781 83 801 b 176 864 128 838 151 853 b 254 889 200 875 226 883 b 342 897 281 894 310 897 b 464 876 386 897 426 890 b 560 818 501 863 533 843 b 622 726 586 793 607 763 b 644 607 638 690 644 650 b 622 500 644 572 638 536 b 564 390 607 463 588 426 b 483 285 540 354 514 319 b 393 188 453 250 422 218 b 468 196 415 190 440 193 b 539 199 496 197 519 199 l 686 199 l 686 -1 l 47 -1 l 47 135 z "},"3":{"ha":750,"x_min":0,"x_max":0,"o":"m 136 258 b 222 199 163 233 192 214 b 315 175 253 183 283 175 b 408 196 354 175 385 182 b 443 258 432 210 443 231 b 435 303 443 275 440 290 b 403 336 429 315 418 326 b 336 357 388 346 365 353 b 224 364 307 361 269 364 l 224 531 b 317 538 261 531 292 533 b 375 557 340 542 360 549 b 407 588 390 565 401 575 b 415 629 413 600 415 614 b 324 710 415 683 385 710 b 244 692 294 710 268 704 b 168 638 221 679 196 661 l 49 782 b 182 865 92 818 136 846 b 332 894 228 885 278 894 b 565 831 429 894 507 874 b 651 647 622 788 651 726 b 510 457 651 563 604 499 l 510 451 b 632 376 560 436 600 411 b 679 240 664 342 679 296 b 651 131 679 199 669 163 b 578 49 633 99 608 71 b 468 -1 546 26 510 10 b 338 -18 426 -12 383 -18 b 151 15 265 -18 203 -7 b 24 107 100 38 57 68 l 132 257 z "},"4":{"ha":750,"x_min":0,"x_max":0,"o":"m 403 378 l 403 478 b 403 528 403 493 403 510 b 404 582 403 546 403 564 b 408 636 406 600 407 618 b 413 686 410 654 411 671 l 407 686 b 372 607 396 660 385 633 b 335 528 360 581 347 554 l 254 378 l 404 378 z m 721 197 l 626 197 l 626 0 l 404 0 l 404 197 l 29 197 l 29 364 l 329 881 l 626 881 l 626 378 l 721 378 l 721 197 z "},"5":{"ha":750,"x_min":0,"x_max":0,"o":"m 136 258 b 219 200 163 235 190 215 b 311 176 249 185 279 176 b 407 204 353 176 385 186 b 440 290 429 222 440 251 b 407 376 440 328 429 357 b 321 404 385 394 356 404 b 288 403 308 404 297 404 b 261 396 278 401 269 399 b 232 383 251 393 242 389 b 199 363 222 378 211 371 l 96 429 l 118 882 l 640 882 l 640 682 l 324 682 l 313 554 b 354 565 328 560 342 564 b 396 568 367 567 381 568 b 504 551 433 568 469 563 b 596 501 539 540 569 524 b 658 417 622 479 643 451 b 681 296 674 382 681 342 b 654 164 681 247 672 203 b 581 67 636 125 611 93 b 475 6 550 40 515 19 b 347 -15 435 -8 392 -15 b 160 21 275 -15 213 -3 b 26 110 107 44 63 74 l 132 260 z "},"6":{"ha":750,"x_min":0,"x_max":0,"o":"m 392 161 b 458 188 417 161 439 169 b 486 283 476 206 486 238 b 478 336 486 304 483 322 b 457 368 472 349 465 360 b 424 383 447 375 436 381 b 386 388 411 386 399 388 b 326 371 365 388 346 382 b 274 313 307 358 289 339 b 293 238 278 282 285 257 b 321 190 301 217 311 201 b 353 165 331 178 342 169 b 386 158 364 161 375 158 z m 561 642 b 503 683 547 657 528 671 b 428 701 478 696 453 701 b 368 689 407 701 388 697 b 318 647 349 681 332 667 b 281 572 303 628 290 603 b 264 460 271 542 265 504 b 301 497 275 474 288 486 b 346 525 315 508 331 518 b 390 542 361 532 376 538 b 429 547 404 546 417 547 b 535 531 467 547 501 542 b 618 481 567 519 594 503 b 674 396 642 458 660 431 b 694 274 688 361 694 321 b 669 147 694 226 686 185 b 603 51 653 110 631 78 b 506 -8 575 25 543 6 b 388 -29 468 -22 429 -29 b 261 -4 344 -29 303 -21 b 150 71 219 11 182 36 b 72 207 118 106 92 151 b 42 410 51 263 42 331 b 72 618 42 489 51 558 b 153 765 93 678 119 726 b 269 853 186 804 225 833 b 406 882 313 872 358 882 b 568 849 468 882 522 871 b 681 771 614 826 651 800 l 556 629 z "},"7":{"ha":750,"x_min":0,"x_max":0,"o":"m 211 0 b 232 192 215 69 222 133 b 272 360 242 250 256 306 b 339 518 289 414 311 467 b 439 681 365 569 399 624 l 61 681 l 61 881 l 692 881 l 692 733 b 571 567 640 674 600 618 b 501 407 542 515 518 463 b 467 226 485 351 474 292 b 450 0 460 161 454 86 l 211 0 l 211 0 z "},"8":{"ha":750,"x_min":0,"x_max":0,"o":"m 263 253 b 297 174 263 218 274 192 b 378 147 321 156 347 147 b 444 168 404 147 426 154 b 472 239 463 182 472 206 b 461 281 472 254 468 268 b 429 314 454 293 443 304 b 375 343 414 324 396 333 b 304 374 354 353 331 363 b 272 319 292 358 281 340 b 258 254 263 299 258 276 z m 421 526 b 460 639 447 564 460 601 b 436 710 460 669 451 693 b 371 735 421 726 399 735 b 315 714 350 735 332 728 b 290 647 299 700 290 678 b 324 576 290 618 301 594 b 419 525 346 558 378 542 z m 53 225 b 94 350 53 276 67 318 b 197 432 121 382 156 410 l 197 438 b 114 528 163 464 135 494 b 82 644 93 560 82 599 b 103 749 82 683 89 718 b 164 826 117 779 138 806 b 257 875 190 847 221 864 b 374 892 292 886 331 892 b 485 875 414 892 451 886 b 571 825 518 863 547 846 b 628 747 594 804 614 778 b 647 646 640 717 647 683 b 614 539 647 606 636 569 b 533 460 592 507 565 481 l 533 454 b 642 365 576 431 613 401 b 685 222 671 328 685 281 b 663 125 685 188 678 156 b 597 46 647 94 625 68 b 493 -6 568 24 533 7 b 360 -25 453 -18 408 -25 b 235 -8 315 -25 274 -19 b 135 40 196 3 163 19 b 68 115 106 61 83 86 b 44 214 53 144 44 178 z "},"9":{"ha":750,"x_min":0,"x_max":0,"o":"m 358 492 b 418 508 379 492 399 497 b 471 565 438 519 456 539 b 451 640 467 596 460 621 b 422 686 442 660 432 675 b 390 710 413 697 401 706 b 356 715 378 714 367 715 b 289 689 331 715 308 707 b 260 593 269 671 260 639 b 268 542 260 572 263 556 b 289 508 274 528 281 517 b 318 492 297 500 307 494 b 354 486 329 488 342 486 z m 176 231 b 235 189 190 215 210 201 b 310 169 260 176 285 169 b 371 182 332 169 353 174 b 419 222 389 189 406 203 b 454 296 433 240 444 265 b 471 407 464 325 469 363 b 433 369 460 393 447 381 b 390 342 419 358 406 349 b 346 325 375 335 360 329 b 304 319 331 321 317 319 b 200 336 267 319 232 325 b 117 385 168 346 140 363 b 60 469 93 407 74 435 b 39 592 46 504 39 544 b 64 718 39 639 47 681 b 129 814 79 756 101 788 b 226 874 157 840 189 860 b 344 893 264 886 303 893 b 471 868 388 893 429 885 b 579 790 511 851 547 825 b 657 654 611 756 638 710 b 686 450 676 597 686 529 b 656 242 686 371 676 301 b 575 94 635 182 608 133 b 458 7 542 56 503 26 b 321 -22 414 -12 368 -22 b 158 11 258 -22 204 -11 b 46 89 113 33 75 60 l 171 231 z "},"\u0000":{"ha":0,"x_min":0,"x_max":0,"o":""},"\r":{"ha":292,"x_min":0,"x_max":0,"o":""}," ":{"ha":292,"x_min":0,"x_max":0,"o":""},"A":{"ha":811,"x_min":0,"x_max":0,"o":"m 485 376 l 469 439 b 436 581 458 482 447 529 b 403 726 425 632 414 681 l 397 726 b 367 582 388 681 378 632 b 333 440 356 531 344 483 l 318 378 l 485 378 z m 528 193 l 275 193 l 231 1 l -14 1 l 261 904 l 550 904 l 825 1 l 572 1 l 528 193 z "},"B":{"ha":850,"x_min":0,"x_max":0,"o":"m 100 903 l 425 903 b 558 893 472 903 517 900 b 667 857 600 886 636 874 b 740 789 697 840 722 818 b 767 678 758 760 767 722 b 758 619 767 658 764 639 b 732 561 753 599 744 579 b 685 513 719 543 704 526 b 617 482 665 499 643 489 l 617 476 b 761 407 681 464 729 440 b 808 265 793 372 808 325 b 779 146 808 219 799 179 b 703 61 760 111 735 83 b 590 13 671 39 633 22 b 453 -3 547 3 501 -3 l 100 -3 l 100 900 z m 419 544 b 506 571 458 544 488 553 b 533 639 524 589 533 611 b 506 699 533 667 524 686 b 419 717 488 711 458 717 l 339 717 l 339 544 l 419 544 z m 436 181 b 575 283 529 181 575 215 b 542 356 575 317 564 340 b 436 378 518 371 483 378 l 339 378 l 339 181 l 436 181 z "},"C":{"ha":814,"x_min":0,"x_max":0,"o":"m 61 444 b 97 647 61 521 74 589 b 193 796 121 706 153 756 b 333 888 233 836 281 867 b 500 919 386 908 442 919 b 657 885 557 919 610 908 b 774 801 703 861 742 833 l 643 654 b 578 700 621 674 599 689 b 503 715 557 710 532 715 b 426 697 476 715 451 710 b 363 646 401 685 381 668 b 319 564 344 624 331 596 b 303 456 308 532 303 496 b 357 260 303 371 321 306 b 497 192 392 214 439 192 b 588 213 532 192 563 199 b 654 263 613 225 635 242 l 785 118 b 651 18 746 74 701 40 b 493 -15 601 -4 549 -15 b 325 14 433 -15 378 -6 b 186 99 272 32 226 60 b 90 243 146 136 114 185 b 56 443 67 300 56 367 z "},"D":{"ha":892,"x_min":0,"x_max":0,"o":"m 100 903 l 367 903 b 554 878 435 903 497 894 b 700 799 611 861 660 835 b 794 660 740 763 772 717 b 828 456 817 603 828 535 b 794 251 828 376 817 308 b 701 110 772 194 742 147 b 558 26 661 72 614 44 b 378 0 503 8 443 0 l 97 0 l 97 903 z m 350 192 b 442 204 382 192 413 196 b 517 244 471 211 496 225 b 567 325 538 264 554 290 b 585 456 579 360 585 403 b 567 585 585 508 579 551 b 517 663 554 618 538 644 b 442 700 496 681 471 693 b 350 710 413 707 382 710 l 336 710 l 336 190 l 350 190 z "},"E":{"ha":772,"x_min":0,"x_max":0,"o":"m 100 903 l 683 903 l 683 703 l 339 703 l 339 561 l 633 561 l 633 361 l 339 361 l 339 200 l 697 200 l 697 0 l 100 0 l 100 903 z "},"F":{"ha":744,"x_min":0,"x_max":0,"o":"m 100 903 l 689 903 l 689 703 l 339 703 l 339 531 l 639 531 l 639 331 l 339 331 l 339 0 l 100 0 l 100 903 z "},"G":{"ha":897,"x_min":0,"x_max":0,"o":"m 61 444 b 97 647 61 521 74 589 b 196 796 121 706 154 756 b 342 888 238 836 286 867 b 517 919 396 908 454 919 b 685 885 581 919 636 908 b 806 801 733 861 774 833 l 675 654 b 608 700 653 674 631 689 b 519 715 585 710 556 715 b 435 697 489 715 461 710 b 367 646 408 685 386 668 b 321 564 347 624 332 596 b 304 456 310 532 304 496 b 361 260 304 371 324 306 b 540 192 399 214 458 192 b 578 196 553 192 565 193 b 608 208 590 199 600 203 l 608 333 l 475 333 l 475 528 l 819 528 l 819 97 b 686 18 786 67 742 40 b 507 -15 631 -4 571 -15 b 332 14 444 -15 386 -6 b 190 99 278 32 231 60 b 94 243 150 136 118 185 b 58 443 71 300 58 367 z "},"H":{"ha":947,"x_min":0,"x_max":0,"o":"m 100 903 l 339 903 l 339 567 l 608 567 l 608 903 l 847 903 l 847 0 l 608 0 l 608 358 l 339 358 l 339 0 l 100 0 l 100 903 z "},"I":{"ha":439,"x_min":0,"x_max":0,"o":"m 100 903 l 339 903 l 339 0 l 100 0 l 100 903 z "},"J":{"ha":722,"x_min":0,"x_max":0,"o":"m 175 275 b 229 210 190 246 208 224 b 289 189 250 196 269 189 b 331 196 304 189 318 192 b 361 218 343 200 353 207 b 381 263 369 229 376 244 b 388 333 385 281 388 304 l 388 903 l 626 903 l 626 314 b 608 185 626 268 621 225 b 551 79 596 144 576 110 b 456 7 526 49 494 25 b 319 -19 417 -11 371 -19 b 136 22 246 -19 185 -6 b 13 151 88 50 46 93 l 174 272 z "},"K":{"ha":872,"x_min":0,"x_max":0,"o":"m 100 903 l 339 903 l 339 567 l 344 567 l 572 903 l 833 903 l 564 536 l 886 0 l 625 0 l 425 347 l 339 225 l 339 0 l 100 0 l 100 903 z "},"L":{"ha":736,"x_min":0,"x_max":0,"o":"m 100 903 l 339 903 l 339 200 l 681 200 l 681 0 l 100 0 l 100 903 z "},"M":{"ha":1078,"x_min":0,"x_max":0,"o":"m 100 903 l 347 903 l 489 528 l 539 381 l 544 381 l 594 528 l 731 903 l 978 903 l 978 0 l 756 0 l 756 267 b 760 343 756 290 757 315 b 767 429 761 371 764 400 b 776 514 769 458 772 486 b 786 589 781 542 783 567 l 781 589 l 706 378 l 581 74 l 492 74 l 367 378 l 294 589 l 289 589 b 299 514 292 567 294 542 b 308 429 303 486 306 458 b 317 343 311 400 314 371 b 319 267 318 315 319 290 l 319 0 l 100 0 l 100 903 z "},"N":{"ha":933,"x_min":0,"x_max":0,"o":"m 100 903 l 344 903 l 544 500 l 631 297 l 636 297 b 626 376 633 321 631 347 b 617 465 622 406 619 435 b 608 556 614 494 611 525 b 604 642 606 585 604 614 l 604 903 l 832 903 l 832 0 l 588 0 l 388 404 l 301 606 l 296 606 b 315 436 301 554 308 497 b 326 261 322 375 326 317 l 326 0 l 99 0 l 99 903 z "},"O":{"ha":961,"x_min":0,"x_max":0,"o":"m 481 -17 b 310 15 418 -17 361 -6 b 178 107 258 36 214 67 b 90 256 140 147 111 197 b 60 454 69 314 60 381 b 90 653 60 528 69 594 b 176 797 111 710 140 758 b 308 886 213 836 257 865 b 479 917 360 907 417 917 b 650 886 542 917 599 907 b 782 794 701 865 746 835 b 867 649 818 754 846 706 b 897 453 888 592 897 526 b 867 254 897 379 888 313 b 782 104 846 194 818 144 b 649 13 744 64 700 33 b 478 -19 597 -8 540 -19 z m 478 186 b 606 257 532 186 575 210 b 651 451 636 304 651 369 b 606 642 651 533 636 597 b 476 708 574 686 531 708 b 349 642 422 708 379 686 b 301 450 317 596 301 532 b 347 256 301 368 317 303 b 475 183 378 207 421 183 z "},"P":{"ha":858,"x_min":0,"x_max":0,"o":"m 100 903 l 450 903 b 589 889 499 903 544 899 b 704 839 632 879 671 863 b 782 746 736 815 763 785 b 811 603 801 707 811 660 b 782 460 811 547 801 500 b 701 363 761 419 735 388 b 586 304 668 336 629 317 b 450 285 543 292 497 285 l 339 285 l 339 -1 l 100 -1 l 100 901 z m 439 474 b 543 507 486 474 521 485 b 576 601 565 529 576 561 b 540 688 576 642 564 671 b 438 713 517 704 482 713 l 338 713 l 338 474 l 438 474 z "},"Q":{"ha":961,"x_min":0,"x_max":0,"o":"m 481 714 b 353 647 426 714 383 692 b 306 456 321 601 306 538 b 351 250 306 365 321 297 b 479 178 382 201 425 178 b 607 249 533 178 576 201 b 653 454 638 296 653 364 b 607 644 653 536 638 600 b 478 711 575 689 532 711 z m 956 -225 b 885 -249 938 -235 914 -243 b 783 -258 856 -256 822 -258 b 642 -240 732 -258 685 -253 b 525 -189 599 -228 560 -211 b 433 -110 490 -167 460 -140 b 367 -8 407 -79 385 -46 b 238 46 319 3 276 21 b 139 142 199 71 165 103 b 76 278 113 181 92 226 b 54 449 61 329 54 386 b 85 647 54 522 64 589 b 171 792 106 704 135 753 b 303 881 207 831 251 860 b 474 911 354 901 411 911 b 644 881 536 911 593 901 b 776 789 696 860 740 829 b 861 643 813 749 840 700 b 892 447 882 586 892 521 b 817 156 892 329 867 232 b 614 -1 767 79 699 26 b 700 -60 635 -31 664 -50 b 804 -75 735 -69 769 -75 b 860 -71 824 -75 842 -74 b 907 -60 878 -68 893 -64 l 949 -232 z "},"R":{"ha":875,"x_min":0,"x_max":0,"o":"m 339 492 l 425 492 b 569 611 521 492 569 532 b 532 692 569 650 557 676 b 424 714 507 707 471 714 l 338 714 l 338 492 z m 585 0 l 429 303 l 338 303 l 338 0 l 99 0 l 99 903 l 440 903 b 579 889 489 903 535 899 b 694 842 622 879 661 864 b 772 753 726 819 753 790 b 801 611 792 715 801 668 b 763 449 801 546 789 492 b 656 349 736 406 700 372 l 851 -1 l 585 -1 z "},"S":{"ha":783,"x_min":0,"x_max":0,"o":"m 181 276 b 285 213 213 250 247 229 b 390 188 322 196 357 188 b 469 204 426 188 453 193 b 493 251 485 215 493 231 b 485 279 493 263 490 272 b 460 300 479 286 471 293 b 421 319 449 307 436 314 b 369 339 406 325 389 332 l 257 386 b 188 424 233 396 210 408 b 129 478 165 439 146 457 b 90 549 113 499 100 522 b 75 636 81 575 75 604 b 100 744 75 675 83 711 b 169 832 117 778 140 807 b 276 892 199 857 235 876 b 410 914 317 907 361 914 b 567 885 461 914 514 904 b 708 793 619 865 667 835 l 589 643 b 501 692 558 664 529 681 b 408 708 472 703 442 708 b 339 693 379 708 356 703 b 314 647 322 683 314 668 b 350 599 314 626 326 610 b 447 557 374 586 406 572 l 557 514 b 688 421 614 492 657 461 b 733 267 718 381 733 329 b 710 158 733 229 725 193 b 642 67 694 124 672 93 b 531 4 611 40 574 19 b 381 -19 488 -11 438 -19 b 204 13 324 -19 265 -8 b 39 110 143 33 88 65 l 175 274 z "},"T":{"ha":783,"x_min":0,"x_max":0,"o":"m 272 703 l 33 703 l 33 903 l 750 903 l 750 703 l 511 703 l 511 0 l 272 0 l 272 703 z "},"U":{"ha":933,"x_min":0,"x_max":0,"o":"m 94 903 l 333 903 l 333 408 b 367 238 333 328 344 271 b 469 188 388 204 422 188 b 574 238 517 188 551 204 b 607 407 596 269 607 326 l 607 901 l 838 901 l 838 435 b 747 93 838 281 807 167 b 468 -18 688 19 594 -18 b 186 93 342 -18 247 19 b 93 435 124 167 93 281 l 93 901 z "},"V":{"ha":794,"x_min":0,"x_max":0,"o":"m -14 903 l 239 903 l 333 508 b 367 365 346 460 357 413 b 400 221 376 318 388 269 l 406 221 b 439 365 418 269 429 318 b 472 507 449 411 460 458 l 564 901 l 808 901 l 542 -1 l 253 -1 l -14 901 z "},"W":{"ha":1144,"x_min":0,"x_max":0,"o":"m 14 903 l 258 903 l 308 508 b 324 367 313 461 318 414 b 339 225 329 319 335 272 l 344 225 b 369 367 353 272 361 319 b 394 508 378 414 386 461 l 481 903 l 681 903 l 767 508 b 792 369 775 463 783 417 b 817 224 800 321 808 272 l 822 224 b 838 367 826 272 832 319 b 853 507 843 414 849 461 l 903 901 l 1131 901 l 981 -1 l 678 -1 l 608 357 b 590 464 601 392 596 428 b 575 568 585 500 579 535 l 569 568 b 556 464 565 535 561 500 b 536 357 550 428 543 392 l 469 -1 l 172 -1 l 14 901 z "},"X":{"ha":817,"x_min":0,"x_max":0,"o":"m 258 464 l 28 903 l 294 903 l 356 756 b 385 688 365 735 375 713 b 418 606 394 663 406 635 l 424 606 b 453 688 433 635 443 663 b 479 754 463 711 471 733 l 532 901 l 788 901 l 557 451 l 801 -1 l 535 -1 l 463 160 b 431 231 451 183 440 207 b 399 308 421 254 410 281 l 393 308 b 364 231 383 281 374 254 b 335 160 354 207 344 183 l 268 -1 l 13 -1 l 257 463 z "},"Y":{"ha":756,"x_min":0,"x_max":0,"o":"m 258 311 l -14 903 l 242 903 l 308 714 b 342 614 319 679 331 646 b 376 514 353 582 364 549 l 382 514 b 418 614 394 549 407 582 b 453 714 429 646 440 679 l 519 903 l 769 903 l 497 311 l 497 0 l 258 0 l 258 311 z "},"Z":{"ha":753,"x_min":0,"x_max":0,"o":"m 44 144 l 414 703 l 81 703 l 81 903 l 708 903 l 708 758 l 339 200 l 711 200 l 711 0 l 44 0 l 44 144 z "},"a":{"ha":753,"x_min":0,"x_max":0,"o":"m 58 197 b 147 368 58 269 88 326 b 436 450 207 408 303 436 b 339 522 431 499 399 522 b 260 508 314 522 288 518 b 164 464 232 499 200 483 l 81 619 b 229 686 129 649 179 671 b 386 710 279 701 332 710 b 599 633 476 710 547 685 b 675 385 650 582 675 499 l 675 -1 l 481 -1 l 464 65 l 458 65 b 371 6 431 40 401 21 b 267 -18 339 -10 304 -18 b 179 -1 235 -18 206 -12 b 113 44 153 10 131 25 b 71 113 94 64 81 86 b 57 196 61 139 57 167 z m 285 215 b 349 165 285 182 306 165 b 397 178 368 165 385 169 b 435 211 410 186 422 197 l 435 306 b 318 268 378 297 339 285 b 286 214 297 251 286 233 z "},"b":{"ha":806,"x_min":0,"x_max":0,"o":"m 81 967 l 319 967 l 319 742 l 314 642 b 393 693 338 664 364 681 b 483 711 422 706 453 711 b 594 686 524 711 561 703 b 681 615 628 669 657 646 b 735 504 704 585 722 547 b 754 360 747 461 754 413 b 729 200 754 300 746 247 b 664 82 713 153 690 114 b 572 8 638 50 607 25 b 464 -17 538 -8 501 -17 b 374 7 433 -17 403 -8 b 290 75 344 22 317 44 l 285 75 l 265 0 l 79 0 l 79 967 z m 318 211 b 361 186 332 199 346 190 b 407 179 376 182 392 179 b 479 218 435 179 458 192 b 510 357 500 244 510 290 b 485 481 510 414 501 456 b 411 518 468 506 443 518 b 363 507 393 518 376 514 b 317 469 347 500 332 488 l 317 214 z "},"c":{"ha":656,"x_min":0,"x_max":0,"o":"m 44 347 b 75 501 44 404 54 456 b 158 617 96 547 124 586 b 278 688 193 647 233 671 b 418 711 322 703 369 711 b 533 690 460 711 499 704 b 621 633 568 676 597 657 l 513 486 b 471 511 497 499 483 507 b 433 518 458 515 446 518 b 329 472 389 518 354 503 b 292 346 304 440 292 399 b 329 221 292 293 304 251 b 424 174 354 189 386 174 b 485 188 446 174 467 178 b 535 218 503 197 519 207 l 629 68 b 514 1 594 38 556 15 b 396 -19 471 -12 432 -19 b 258 6 347 -19 301 -11 b 146 75 215 21 178 44 b 71 189 114 106 89 143 b 43 343 53 235 43 286 z "},"d":{"ha":806,"x_min":0,"x_max":0,"o":"m 50 347 b 75 501 50 404 58 456 b 138 617 90 547 111 586 b 229 688 164 647 194 671 b 333 713 264 704 299 713 b 425 694 371 713 401 707 b 492 644 449 682 471 665 l 483 744 l 483 969 l 722 969 l 722 3 l 528 3 l 511 67 l 506 67 b 424 8 482 43 454 24 b 331 -14 392 -7 361 -14 b 214 11 288 -14 249 -6 b 125 83 179 28 150 51 b 67 199 100 115 81 154 b 46 350 53 243 46 293 z m 290 353 b 318 219 290 290 300 246 b 393 181 336 193 361 181 b 442 192 411 181 428 185 b 482 231 456 199 469 211 l 482 486 b 436 511 468 499 453 507 b 388 518 419 515 403 518 b 321 481 363 518 340 506 b 290 351 300 456 290 413 z "},"e":{"ha":731,"x_min":0,"x_max":0,"o":"m 44 347 b 74 500 44 404 54 456 b 147 614 92 544 117 582 b 253 686 178 646 213 669 b 378 711 293 703 335 711 b 511 685 429 711 474 703 b 606 613 549 667 581 643 b 663 506 631 582 650 546 b 681 376 675 465 681 422 b 676 319 681 356 679 336 b 669 282 674 303 671 290 l 274 282 b 333 190 285 238 304 207 b 435 165 363 174 396 165 b 504 176 458 165 482 169 b 575 207 526 183 550 193 l 653 65 b 528 6 615 39 574 19 b 400 -15 482 -8 439 -15 b 258 10 349 -15 301 -7 b 146 79 215 25 178 49 b 71 193 114 110 89 147 b 43 347 53 239 43 290 z m 476 425 b 456 500 476 454 469 479 b 381 531 442 521 417 531 b 311 507 354 531 331 522 b 269 425 290 492 276 464 l 475 425 z "},"f":{"ha":500,"x_min":0,"x_max":0,"o":"m 503 783 b 468 794 492 788 481 792 b 433 797 456 796 444 797 b 381 779 411 797 393 792 b 361 713 368 767 361 744 l 361 696 l 478 696 l 478 510 l 361 510 l 361 1 l 122 1 l 122 510 l 31 510 l 31 688 l 122 694 l 122 704 b 136 811 122 742 126 778 b 183 900 146 844 161 874 b 267 963 204 926 232 947 b 396 985 301 978 344 985 b 482 976 428 985 457 982 b 543 960 507 971 528 965 l 501 785 z "},"g":{"ha":758,"x_min":0,"x_max":0,"o":"m 236 -75 b 274 -124 236 -97 249 -114 b 372 -139 299 -133 332 -139 b 469 -122 411 -139 443 -133 b 508 -76 496 -111 508 -96 b 483 -43 508 -58 500 -47 b 414 -36 467 -39 443 -36 l 360 -36 b 297 -33 332 -36 311 -35 b 260 -28 282 -32 269 -31 b 242 -51 251 -36 246 -44 b 235 -76 238 -58 235 -67 z m 40 -115 b 138 18 40 -61 72 -17 l 138 24 b 92 69 119 36 104 51 b 74 140 79 88 74 111 b 94 211 74 164 81 188 b 151 271 108 235 128 254 l 151 276 b 85 347 126 293 104 317 b 56 454 65 378 56 414 b 81 567 56 497 64 535 b 147 646 97 599 119 625 b 243 692 175 667 207 682 b 351 707 278 701 314 707 b 463 690 392 707 429 701 l 721 690 l 721 518 l 621 518 b 629 486 624 510 626 499 b 632 446 631 474 632 460 b 610 342 632 406 625 371 b 550 271 594 313 575 289 b 461 231 525 253 496 239 b 351 217 426 221 390 217 b 272 226 328 217 301 219 b 260 208 265 219 261 214 b 257 185 258 203 257 194 b 279 153 257 169 264 158 b 354 143 294 146 319 143 l 458 143 b 661 101 546 143 614 129 b 732 -37 708 72 732 26 b 703 -140 732 -75 722 -110 b 622 -221 683 -172 657 -199 b 496 -272 588 -243 546 -260 b 328 -290 446 -285 390 -290 b 215 -282 288 -290 250 -287 b 124 -253 181 -276 150 -267 b 61 -199 97 -239 76 -221 b 38 -119 46 -178 38 -151 z m 351 356 b 406 379 374 356 392 364 b 426 453 419 394 426 419 b 406 524 426 485 419 508 b 351 546 392 539 374 546 b 297 524 329 546 311 539 b 276 453 283 508 276 485 b 297 379 276 419 283 394 b 351 356 311 364 329 356 z "},"h":{"ha":808,"x_min":0,"x_max":0,"o":"m 81 967 l 319 967 l 319 742 l 308 622 b 394 683 332 643 361 664 b 515 711 428 701 468 711 b 682 635 592 711 647 686 b 733 428 717 583 733 514 l 733 0 l 494 0 l 494 397 b 478 486 494 442 489 471 b 425 508 467 501 449 508 b 369 494 403 508 385 504 b 319 456 354 485 338 472 l 319 0 l 81 0 l 81 967 z "},"i":{"ha":400,"x_min":0,"x_max":0,"o":"m 200 781 b 104 814 161 781 129 792 b 67 900 79 836 67 865 b 104 986 67 935 79 964 b 200 1019 129 1008 161 1019 b 296 986 239 1019 271 1008 b 333 900 321 964 333 935 b 296 814 333 865 321 836 b 200 781 271 792 239 781 z m 81 694 l 319 694 l 319 0 l 81 0 l 81 694 z "},"j":{"ha":403,"x_min":0,"x_max":0,"o":"m 83 694 l 322 694 l 322 36 b 310 -76 322 -3 318 -40 b 267 -172 301 -112 288 -144 b 183 -239 246 -200 218 -222 b 54 -264 149 -256 106 -264 b -24 -258 22 -264 -4 -262 b -76 -244 -43 -254 -61 -250 l -35 -69 b -10 -75 -25 -72 -17 -74 b 14 -78 -3 -76 6 -78 b 68 -54 39 -78 57 -69 b 83 25 78 -39 83 -12 l 83 692 z m 203 778 b 107 811 164 778 132 789 b 69 897 82 833 69 863 b 107 983 69 932 82 961 b 203 1017 132 1006 164 1017 b 299 983 242 1017 274 1006 b 336 897 324 961 336 932 b 299 811 336 863 324 833 b 203 778 274 789 242 778 z "},"k":{"ha":789,"x_min":0,"x_max":0,"o":"m 81 967 l 314 967 l 314 453 l 319 453 l 511 694 l 769 694 l 522 406 l 783 0 l 525 0 l 386 247 l 314 167 l 314 0 l 81 0 l 81 967 z "},"l":{"ha":414,"x_min":0,"x_max":0,"o":"m 81 967 l 319 967 l 319 236 b 332 188 319 213 324 196 b 357 175 340 179 349 175 b 368 175 361 175 365 175 b 381 178 371 175 375 176 l 408 3 b 361 -11 396 -3 381 -7 b 292 -17 342 -15 318 -17 b 190 3 251 -17 218 -10 b 124 57 163 15 140 33 b 89 140 107 81 96 108 b 78 246 82 172 78 207 l 78 968 z "},"m":{"ha":1206,"x_min":0,"x_max":0,"o":"m 81 694 l 275 694 l 292 610 l 297 610 b 388 681 325 636 356 660 b 506 711 419 701 458 711 b 622 682 553 711 592 701 b 696 599 653 663 678 635 b 789 676 725 628 756 654 b 910 710 822 699 863 710 b 1076 633 986 710 1042 685 b 1129 426 1111 582 1129 513 l 1129 -1 l 890 -1 l 890 396 b 874 485 890 440 885 469 b 821 507 863 500 844 507 b 725 454 792 507 760 489 l 725 -1 l 486 -1 l 486 396 b 469 485 486 440 481 469 b 417 507 458 500 440 507 b 321 454 388 507 356 489 l 321 -1 l 82 -1 l 82 693 z "},"n":{"ha":808,"x_min":0,"x_max":0,"o":"m 81 694 l 275 694 l 292 611 l 297 611 b 393 681 325 638 357 661 b 517 710 428 700 469 710 b 683 633 593 710 649 685 b 735 426 718 582 735 513 l 735 -1 l 496 -1 l 496 396 b 479 485 496 440 490 469 b 426 507 468 500 450 507 b 371 493 404 507 386 503 b 321 454 356 483 339 471 l 321 -1 l 82 -1 l 82 693 z "},"o":{"ha":778,"x_min":0,"x_max":0,"o":"m 44 347 b 74 501 44 404 54 456 b 149 617 92 547 117 586 b 258 688 181 647 217 671 b 388 711 300 703 343 711 b 517 686 432 711 475 703 b 625 615 557 669 593 646 b 701 499 657 583 682 544 b 731 344 721 453 731 401 b 701 190 731 288 721 236 b 625 76 682 144 657 107 b 515 4 593 44 557 21 b 386 -21 474 -12 431 -21 b 257 4 342 -21 299 -12 b 147 74 215 19 179 43 b 71 188 115 104 90 142 b 42 342 51 233 42 285 z m 286 342 b 310 217 286 289 294 247 b 386 169 325 185 350 169 b 464 215 422 169 449 185 b 486 340 479 246 486 288 b 464 465 486 393 479 435 b 386 511 449 496 422 511 b 310 465 350 511 325 496 b 286 339 294 433 286 392 z "},"p":{"ha":806,"x_min":0,"x_max":0,"o":"m 319 -53 l 319 -244 l 81 -244 l 81 694 l 275 694 l 292 631 l 297 631 b 385 689 324 654 353 674 b 485 711 417 704 450 711 b 596 686 525 711 563 703 b 682 615 629 669 658 646 b 736 504 706 585 724 547 b 754 358 749 461 754 413 b 729 200 754 299 746 246 b 664 83 713 154 690 115 b 572 10 638 51 607 26 b 464 -15 538 -7 501 -15 b 310 54 407 -15 356 8 l 318 -51 z m 318 213 b 361 188 332 200 346 192 b 407 181 376 183 392 181 b 479 219 435 181 458 193 b 510 358 500 246 510 292 b 485 482 510 415 501 457 b 411 519 468 507 443 519 b 363 508 393 519 376 515 b 317 471 347 501 332 489 l 317 215 z "},"q":{"ha":806,"x_min":0,"x_max":0,"o":"m 50 347 b 75 501 50 404 58 456 b 138 617 90 547 111 586 b 229 688 164 647 194 671 b 333 713 264 704 299 713 b 432 692 371 713 404 706 b 514 625 460 678 488 656 l 519 625 l 539 694 l 725 694 l 725 -244 l 486 -244 l 486 -46 l 494 53 b 419 3 474 32 449 15 b 333 -17 390 -10 361 -17 b 217 8 290 -17 251 -8 b 128 81 182 25 153 49 b 69 196 103 113 83 151 b 49 347 56 240 49 290 z m 293 350 b 321 217 293 288 303 243 b 396 178 339 190 364 178 b 444 189 414 178 431 182 b 485 228 458 196 472 208 l 485 483 b 439 508 471 496 456 504 b 390 515 422 513 406 515 b 324 478 365 515 343 503 b 293 351 303 453 293 410 z "},"r":{"ha":581,"x_min":0,"x_max":0,"o":"m 81 694 l 275 694 l 292 575 l 297 575 b 390 679 324 622 354 657 b 494 711 425 700 460 711 b 544 707 515 711 532 710 b 578 696 557 704 568 700 l 539 490 b 503 499 526 493 514 496 b 461 501 490 500 476 501 b 382 476 436 501 410 493 b 315 385 354 458 332 428 l 315 -1 l 76 -1 l 76 693 z "},"s":{"ha":628,"x_min":0,"x_max":0,"o":"m 131 228 b 300 158 193 182 250 158 b 354 169 325 158 343 163 b 369 200 364 176 369 186 b 358 225 369 210 365 218 b 329 244 351 232 342 239 b 288 261 317 250 303 256 b 238 281 272 267 256 274 b 175 310 217 289 196 299 b 118 351 154 321 135 335 b 76 410 101 368 88 388 b 60 485 65 431 60 456 b 81 578 60 519 67 550 b 135 649 93 606 111 629 b 221 694 158 668 188 683 b 332 710 254 704 292 710 b 481 681 389 710 439 700 b 588 617 521 661 557 640 l 482 475 b 408 517 457 493 432 507 b 342 532 385 526 363 532 b 281 493 301 532 281 519 b 292 468 281 483 285 475 b 321 450 299 461 308 456 b 363 433 333 444 347 439 b 413 415 378 428 394 422 b 475 388 433 408 454 399 b 532 346 496 376 515 363 b 574 288 549 329 563 310 b 589 204 583 264 589 236 b 569 114 589 172 582 142 b 513 39 557 85 538 60 b 419 -10 488 18 457 1 b 290 -28 382 -22 339 -28 b 149 -1 246 -28 199 -19 b 19 69 99 17 56 40 l 125 217 z "},"t":{"ha":556,"x_min":0,"x_max":0,"o":"m 111 508 l 19 508 l 19 686 l 125 694 l 153 875 l 350 875 l 350 694 l 508 694 l 508 508 l 350 508 l 350 271 b 375 192 350 232 358 206 b 433 169 392 176 411 169 b 467 174 444 169 456 171 b 494 181 476 175 486 178 l 531 8 b 464 -8 513 3 490 -3 b 367 -17 438 -14 406 -17 b 250 4 321 -17 282 -10 b 171 61 218 17 192 36 b 125 151 150 86 135 117 b 110 268 115 186 110 225 l 110 510 z "},"u":{"ha":803,"x_min":0,"x_max":0,"o":"m 75 694 l 314 694 l 314 297 b 331 208 314 253 319 224 b 383 186 342 193 360 186 b 438 200 406 186 424 190 b 482 247 451 210 467 225 l 482 694 l 721 694 l 721 0 l 526 0 l 510 92 l 504 92 b 413 13 476 58 446 32 b 290 -17 378 -7 338 -17 b 193 4 253 -17 221 -10 b 125 61 165 17 143 36 b 86 149 107 85 94 114 b 74 265 78 183 74 222 l 74 693 z "},"v":{"ha":756,"x_min":0,"x_max":0,"o":"m 17 694 l 256 694 l 331 392 b 381 175 347 322 364 250 l 386 175 b 436 392 403 250 419 322 l 511 694 l 739 694 l 519 0 l 244 0 l 17 694 z "},"w":{"ha":1108,"x_min":0,"x_max":0,"o":"m 33 694 l 269 694 l 322 403 b 336 299 328 368 332 333 b 350 192 340 264 344 228 l 356 192 b 372 300 361 228 367 264 b 393 403 378 335 385 369 l 457 694 l 660 694 l 726 403 b 747 299 735 368 742 333 b 767 192 753 264 760 228 l 772 192 b 786 299 778 228 782 264 b 800 403 790 333 794 368 l 853 694 l 1072 694 l 914 0 l 636 0 l 586 242 b 569 338 581 274 575 306 b 553 444 564 369 558 406 l 547 444 b 532 338 542 406 536 369 b 517 242 528 306 522 274 l 469 0 l 197 0 l 31 694 z "},"x":{"ha":750,"x_min":0,"x_max":0,"o":"m 228 361 l 31 694 l 286 694 l 336 597 b 365 538 346 578 356 558 b 394 478 375 517 385 497 l 400 478 b 421 538 407 497 414 517 b 442 597 428 558 435 578 l 475 694 l 722 694 l 525 333 l 733 0 l 478 0 l 422 97 b 393 157 413 117 403 136 b 364 217 383 178 374 197 l 358 217 b 335 158 351 197 343 178 b 311 96 326 138 318 117 l 272 -1 l 25 -1 l 233 360 z "},"y":{"ha":753,"x_min":0,"x_max":0,"o":"m 119 -67 b 142 -71 126 -68 133 -69 b 163 -74 149 -72 156 -74 b 236 -54 194 -74 219 -67 b 269 -4 251 -42 263 -25 l 278 26 l 14 696 l 253 696 l 336 429 b 361 333 346 397 354 365 b 385 233 368 301 376 268 l 390 233 b 411 332 397 267 404 300 b 433 431 418 364 425 397 l 503 697 l 731 697 l 497 14 b 442 -108 479 -33 461 -74 b 375 -193 422 -143 400 -171 b 290 -243 350 -215 322 -232 b 178 -260 258 -254 221 -260 b 119 -256 154 -260 135 -258 b 74 -247 104 -254 89 -251 l 115 -67 l 115 -67 z "},"z":{"ha":658,"x_min":0,"x_max":0,"o":"m 56 128 l 319 508 l 86 508 l 86 694 l 617 694 l 617 567 l 353 186 l 625 186 l 625 0 l 56 0 l 56 128 z "},"À":{"ha":811,"x_min":0,"x_max":0,"o":"m 485 376 l 469 439 b 436 581 458 482 447 529 b 403 726 425 632 414 681 l 397 726 b 367 582 388 681 378 632 b 333 440 356 531 344 483 l 318 378 l 485 378 z m 528 193 l 275 193 l 231 1 l -14 1 l 261 904 l 550 904 l 825 1 l 572 1 l 528 193 z m 158 1146 l 408 1146 l 517 974 l 328 974 l 158 1146 z "},"Á":{"ha":811,"x_min":0,"x_max":0,"o":"m 485 376 l 469 439 b 436 581 458 482 447 529 b 403 726 425 632 414 681 l 397 726 b 367 582 388 681 378 632 b 333 440 356 531 344 483 l 318 378 l 485 378 z m 528 193 l 275 193 l 231 1 l -14 1 l 261 904 l 550 904 l 825 1 l 572 1 l 528 193 z m 472 974 l 283 974 l 392 1146 l 642 1146 l 472 974 z "},"Â":{"ha":811,"x_min":0,"x_max":0,"o":"m 485 376 l 469 439 b 436 581 458 482 447 529 b 403 726 425 632 414 681 l 397 726 b 367 582 388 681 378 632 b 333 440 356 531 344 483 l 318 378 l 485 378 z m 528 193 l 275 193 l 231 1 l -14 1 l 261 904 l 550 904 l 825 1 l 572 1 l 528 193 z m 150 974 l 283 1146 l 517 1146 l 650 974 l 469 974 l 403 1054 l 397 1054 l 331 974 l 150 974 z "},"Ã":{"ha":811,"x_min":0,"x_max":0,"o":"m 485 376 l 469 439 b 436 581 458 482 447 529 b 403 726 425 632 414 681 l 397 726 b 367 582 388 681 378 632 b 333 440 356 531 344 483 l 318 378 l 485 378 z m 528 193 l 275 193 l 231 1 l -14 1 l 261 904 l 550 904 l 825 1 l 572 1 l 528 193 z m 489 974 b 438 982 471 974 454 976 b 392 1001 421 988 406 994 b 354 1021 378 1008 365 1015 b 321 1029 342 1026 331 1029 b 290 1017 310 1029 300 1025 b 268 971 281 1008 274 993 l 149 971 b 207 1125 157 1042 176 1093 b 310 1174 238 1157 272 1174 b 363 1165 328 1174 346 1171 b 407 1144 378 1158 393 1151 b 444 1125 421 1138 433 1131 b 476 1115 456 1118 467 1115 b 507 1128 488 1115 497 1119 b 529 1174 517 1136 524 1151 l 649 1174 b 628 1083 644 1139 638 1108 b 592 1019 618 1057 606 1036 b 542 982 576 1003 560 990 b 488 969 524 974 506 969 z "},"Ä":{"ha":811,"x_min":0,"x_max":0,"o":"m 485 376 l 469 439 b 436 581 458 482 447 529 b 403 726 425 632 414 681 l 397 726 b 367 582 388 681 378 632 b 333 440 356 531 344 483 l 318 378 l 485 378 z m 528 193 l 275 193 l 231 1 l -14 1 l 261 904 l 550 904 l 825 1 l 572 1 l 528 193 z m 256 965 b 178 997 224 965 197 976 b 147 1074 157 1018 147 1043 b 176 1151 147 1104 157 1131 b 254 1182 196 1172 222 1182 b 332 1151 286 1182 313 1172 b 361 1074 351 1131 361 1104 b 332 997 361 1043 351 1018 b 253 965 311 976 285 965 z m 542 965 b 464 997 510 965 483 976 b 433 1074 443 1018 433 1043 b 463 1151 433 1104 443 1131 b 540 1182 482 1172 508 1182 b 618 1151 572 1182 599 1172 b 647 1074 638 1131 647 1104 b 618 997 647 1043 638 1018 b 539 965 597 976 571 965 z "},"Ā":{"ha":811,"x_min":0,"x_max":0,"o":"m 485 376 l 469 439 b 436 581 458 482 447 529 b 403 726 425 632 414 681 l 397 726 b 367 582 388 681 378 632 b 333 440 356 531 344 483 l 318 378 l 485 378 z m 528 193 l 275 193 l 231 1 l -14 1 l 261 904 l 550 904 l 825 1 l 572 1 l 528 193 z m 194 1146 l 606 1146 l 606 996 l 194 996 l 194 1146 z "},"Ă":{"ha":811,"x_min":0,"x_max":0,"o":"m 485 376 l 469 439 b 436 581 458 482 447 529 b 403 726 425 632 414 681 l 397 726 b 367 582 388 681 378 632 b 333 440 356 531 344 483 l 318 378 l 485 378 z m 528 193 l 275 193 l 231 1 l -14 1 l 261 904 l 550 904 l 825 1 l 572 1 l 528 193 z m 400 974 b 258 1019 338 974 290 989 b 203 1144 226 1049 208 1090 l 331 1144 b 351 1104 335 1128 342 1114 b 397 1089 361 1094 376 1089 b 443 1104 418 1089 433 1094 b 464 1144 453 1114 460 1128 l 592 1144 b 536 1018 586 1090 568 1049 b 394 972 504 988 457 972 z "},"Å":{"ha":811,"x_min":0,"x_max":0,"o":"m 485 376 l 469 439 b 436 581 458 482 447 529 b 403 726 425 632 414 681 l 397 726 b 367 582 388 681 378 632 b 333 440 356 531 344 483 l 318 378 l 485 378 z m 528 193 l 275 193 l 231 1 l -14 1 l 261 904 l 550 904 l 825 1 l 572 1 l 528 193 z m 400 968 b 279 1006 350 968 310 981 b 233 1108 249 1031 233 1065 b 279 1211 233 1151 249 1186 b 400 1249 310 1236 350 1249 b 521 1211 450 1249 490 1236 b 567 1107 551 1185 567 1150 b 521 1004 567 1064 551 1029 b 400 965 490 978 450 965 z m 400 1051 b 438 1067 415 1051 428 1057 b 453 1107 447 1076 453 1090 b 438 1147 453 1124 447 1138 b 400 1163 428 1157 415 1163 b 363 1147 385 1163 372 1157 b 347 1107 353 1138 347 1124 b 363 1067 347 1090 353 1076 b 400 1051 372 1057 385 1051 z "},"Ǎ":{"ha":811,"x_min":0,"x_max":0,"o":"m 485 376 l 469 439 b 436 581 458 482 447 529 b 403 726 425 632 414 681 l 397 726 b 367 582 388 681 378 632 b 333 440 356 531 344 483 l 318 378 l 485 378 z m 528 193 l 275 193 l 231 1 l -14 1 l 261 904 l 550 904 l 825 1 l 572 1 l 528 193 z m 650 1146 l 517 974 l 283 974 l 150 1146 l 331 1146 l 397 1065 l 403 1065 l 469 1146 l 650 1146 z "},"Ạ":{"ha":811,"x_min":0,"x_max":0,"o":"m 485 376 l 469 439 b 436 581 458 482 447 529 b 403 726 425 632 414 681 l 397 726 b 367 582 388 681 378 632 b 333 440 356 531 344 483 l 318 378 l 485 378 z m 528 193 l 275 193 l 231 1 l -14 1 l 261 904 l 550 904 l 825 1 l 572 1 l 528 193 z m 400 -324 b 308 -290 363 -324 332 -312 b 272 -204 285 -268 272 -239 b 308 -118 272 -169 285 -140 b 400 -85 332 -96 363 -85 b 492 -118 438 -85 468 -96 b 526 -204 515 -140 526 -169 b 492 -290 526 -239 515 -268 b 400 -324 468 -312 438 -324 z "},"Ả":{"ha":811,"x_min":0,"x_max":0,"o":"m 485 376 l 469 439 b 436 581 458 482 447 529 b 403 726 425 632 414 681 l 397 726 b 367 582 388 681 378 632 b 333 440 356 531 344 483 l 318 378 l 485 378 z m 528 193 l 275 193 l 231 1 l -14 1 l 261 904 l 550 904 l 825 1 l 572 1 l 528 193 z m 331 1049 b 371 1057 346 1050 360 1053 b 386 1081 381 1061 386 1069 b 363 1108 386 1092 378 1101 b 279 1122 347 1115 319 1119 l 307 1239 b 428 1226 356 1238 396 1233 b 504 1199 460 1219 485 1210 b 546 1157 524 1186 538 1172 b 557 1107 553 1142 557 1125 b 540 1043 557 1082 551 1061 b 494 997 529 1025 514 1010 b 428 968 475 985 453 975 b 347 956 403 961 376 957 l 331 1047 z "},"Ấ":{"ha":811,"x_min":0,"x_max":0,"o":"m 485 376 l 469 439 b 436 581 458 482 447 529 b 403 726 425 632 414 681 l 397 726 b 367 582 388 681 378 632 b 333 440 356 531 344 483 l 318 378 l 485 378 z m 528 193 l 275 193 l 231 1 l -14 1 l 261 904 l 550 904 l 825 1 l 572 1 l 528 193 z m 663 1243 l 843 1243 l 701 1071 l 568 1071 l 663 1243 z m 297 1138 l 503 1138 l 636 974 l 469 974 l 403 1046 l 397 1046 l 331 974 l 164 974 l 297 1138 z "},"Ầ":{"ha":811,"x_min":0,"x_max":0,"o":"m 485 376 l 469 439 b 436 581 458 482 447 529 b 403 726 425 632 414 681 l 397 726 b 367 582 388 681 378 632 b 333 440 356 531 344 483 l 318 378 l 485 378 z m 528 193 l 275 193 l 231 1 l -14 1 l 261 904 l 550 904 l 825 1 l 572 1 l 528 193 z m 760 1071 l 626 1071 l 485 1243 l 665 1243 l 760 1071 z m 297 1138 l 503 1138 l 636 974 l 469 974 l 403 1046 l 397 1046 l 331 974 l 164 974 l 297 1138 z "},"Ẩ":{"ha":811,"x_min":0,"x_max":0,"o":"m 485 376 l 469 439 b 436 581 458 482 447 529 b 403 726 425 632 414 681 l 397 726 b 367 582 388 681 378 632 b 333 440 356 531 344 483 l 318 378 l 485 378 z m 528 193 l 275 193 l 231 1 l -14 1 l 261 904 l 550 904 l 825 1 l 572 1 l 528 193 z m 586 1113 b 614 1121 597 1114 607 1117 b 625 1144 621 1125 625 1133 b 607 1172 625 1156 619 1165 b 536 1186 594 1179 571 1183 l 558 1281 b 664 1268 601 1279 636 1275 b 731 1243 692 1261 714 1253 b 765 1207 747 1233 758 1221 b 775 1164 772 1193 775 1179 b 725 1072 775 1121 758 1090 b 601 1040 692 1054 650 1043 l 585 1113 z m 296 1138 l 501 1138 l 635 974 l 468 974 l 401 1046 l 396 1046 l 329 974 l 163 974 l 296 1138 z "},"Ẫ":{"ha":811,"x_min":0,"x_max":0,"o":"m 485 376 l 469 439 b 436 581 458 482 447 529 b 403 726 425 632 414 681 l 397 726 b 367 582 388 681 378 632 b 333 440 356 531 344 483 l 318 378 l 485 378 z m 528 193 l 275 193 l 231 1 l -14 1 l 261 904 l 550 904 l 825 1 l 572 1 l 528 193 z m 297 1138 l 503 1138 l 636 974 l 469 974 l 403 1046 l 397 1046 l 331 974 l 164 974 l 297 1138 z m 183 1188 b 233 1318 190 1249 207 1292 b 318 1357 260 1344 288 1357 b 364 1349 335 1357 350 1354 b 401 1331 378 1343 390 1338 b 433 1313 413 1324 424 1318 b 463 1304 443 1307 453 1304 b 492 1315 474 1304 483 1308 b 511 1353 500 1322 507 1335 l 614 1353 b 564 1222 607 1292 590 1249 b 478 1183 538 1196 508 1183 b 432 1192 461 1183 446 1186 b 393 1208 418 1196 406 1201 b 360 1226 381 1215 369 1221 b 331 1233 350 1231 340 1233 b 301 1222 319 1233 310 1229 b 282 1185 293 1215 286 1203 l 179 1185 z "},"Ậ":{"ha":811,"x_min":0,"x_max":0,"o":"m 485 376 l 469 439 b 436 581 458 482 447 529 b 403 726 425 632 414 681 l 397 726 b 367 582 388 681 378 632 b 333 440 356 531 344 483 l 318 378 l 485 378 z m 528 193 l 275 193 l 231 1 l -14 1 l 261 904 l 550 904 l 825 1 l 572 1 l 528 193 z m 150 974 l 283 1146 l 517 1146 l 650 974 l 469 974 l 403 1054 l 397 1054 l 331 974 l 150 974 z m 400 -324 b 308 -290 363 -324 332 -312 b 272 -204 285 -268 272 -239 b 308 -118 272 -169 285 -140 b 400 -85 332 -96 363 -85 b 492 -118 438 -85 468 -96 b 526 -204 515 -140 526 -169 b 492 -290 526 -239 515 -268 b 400 -324 468 -312 438 -324 z "},"Ắ":{"ha":811,"x_min":0,"x_max":0,"o":"m 485 376 l 469 439 b 436 581 458 482 447 529 b 403 726 425 632 414 681 l 397 726 b 367 582 388 681 378 632 b 333 440 356 531 344 483 l 318 378 l 485 378 z m 528 193 l 275 193 l 231 1 l -14 1 l 261 904 l 550 904 l 825 1 l 572 1 l 528 193 z m 418 1299 l 593 1299 l 451 1126 l 335 1126 l 418 1299 z m 400 974 b 258 1019 338 974 290 989 b 203 1144 226 1049 208 1090 l 308 1144 b 336 1094 314 1124 324 1107 b 399 1075 349 1082 369 1075 b 461 1094 428 1075 449 1082 b 489 1144 474 1107 483 1124 l 594 1144 b 539 1018 589 1090 571 1049 b 397 972 507 988 460 972 z "},"Ằ":{"ha":811,"x_min":0,"x_max":0,"o":"m 485 376 l 469 439 b 436 581 458 482 447 529 b 403 726 425 632 414 681 l 397 726 b 367 582 388 681 378 632 b 333 440 356 531 344 483 l 318 378 l 485 378 z m 528 193 l 275 193 l 231 1 l -14 1 l 261 904 l 550 904 l 825 1 l 572 1 l 528 193 z m 465 1126 l 349 1126 l 207 1299 l 382 1299 l 465 1126 z m 400 974 b 258 1019 338 974 290 989 b 203 1144 226 1049 208 1090 l 308 1144 b 336 1094 314 1124 324 1107 b 399 1075 349 1082 369 1075 b 461 1094 428 1075 449 1082 b 489 1144 474 1107 483 1124 l 594 1144 b 539 1018 589 1090 571 1049 b 397 972 507 988 460 972 z "},"Ẳ":{"ha":811,"x_min":0,"x_max":0,"o":"m 485 376 l 469 439 b 436 581 458 482 447 529 b 403 726 425 632 414 681 l 397 726 b 367 582 388 681 378 632 b 333 440 356 531 344 483 l 318 378 l 485 378 z m 528 193 l 275 193 l 231 1 l -14 1 l 261 904 l 550 904 l 825 1 l 572 1 l 528 193 z m 333 1196 b 361 1204 344 1197 354 1200 b 372 1228 368 1208 372 1217 b 354 1256 372 1239 367 1249 b 283 1269 342 1263 318 1267 l 306 1364 b 411 1351 349 1363 383 1358 b 478 1326 439 1344 461 1336 b 513 1290 494 1317 506 1304 b 522 1247 519 1276 522 1263 b 472 1156 522 1204 506 1174 b 349 1124 439 1138 397 1126 l 332 1196 z m 399 974 b 257 1019 336 974 289 989 b 201 1144 225 1049 207 1090 l 307 1144 b 335 1094 313 1124 322 1107 b 397 1075 347 1082 368 1075 b 460 1094 426 1075 447 1082 b 488 1144 472 1107 482 1124 l 593 1144 b 538 1018 588 1090 569 1049 b 396 972 506 988 458 972 z "},"Ẵ":{"ha":811,"x_min":0,"x_max":0,"o":"m 485 376 l 469 439 b 436 581 458 482 447 529 b 403 726 425 632 414 681 l 397 726 b 367 582 388 681 378 632 b 333 440 356 531 344 483 l 318 378 l 485 378 z m 528 193 l 275 193 l 231 1 l -14 1 l 261 904 l 550 904 l 825 1 l 572 1 l 528 193 z m 400 974 b 258 1019 338 974 290 989 b 203 1144 226 1049 208 1090 l 308 1144 b 336 1094 314 1124 324 1107 b 399 1075 349 1082 369 1075 b 461 1094 428 1075 449 1082 b 489 1144 474 1107 483 1124 l 594 1144 b 539 1018 589 1090 571 1049 b 397 972 507 988 460 972 z m 181 1186 b 231 1317 188 1247 204 1290 b 315 1356 257 1343 285 1356 b 361 1347 332 1356 347 1353 b 399 1329 375 1342 388 1336 b 431 1311 410 1322 421 1317 b 460 1303 440 1306 450 1303 b 489 1314 471 1303 481 1307 b 508 1351 497 1321 504 1333 l 611 1351 b 561 1221 604 1290 588 1247 b 475 1182 535 1194 506 1182 b 429 1190 458 1182 443 1185 b 390 1207 415 1194 403 1200 b 357 1225 378 1214 367 1219 b 328 1232 347 1229 338 1232 b 299 1221 317 1232 307 1228 b 279 1183 290 1214 283 1201 l 176 1183 z "},"Ặ":{"ha":811,"x_min":0,"x_max":0,"o":"m 485 376 l 469 439 b 436 581 458 482 447 529 b 403 726 425 632 414 681 l 397 726 b 367 582 388 681 378 632 b 333 440 356 531 344 483 l 318 378 l 485 378 z m 528 193 l 275 193 l 231 1 l -14 1 l 261 904 l 550 904 l 825 1 l 572 1 l 528 193 z m 400 974 b 258 1019 338 974 290 989 b 203 1144 226 1049 208 1090 l 331 1144 b 351 1104 335 1128 342 1114 b 397 1089 361 1094 376 1089 b 443 1104 418 1089 433 1094 b 464 1144 453 1114 460 1128 l 592 1144 b 536 1018 586 1090 568 1049 b 394 972 504 988 457 972 z m 394 -325 b 303 -292 357 -325 326 -314 b 267 -206 279 -269 267 -240 b 303 -119 267 -171 279 -142 b 394 -86 326 -97 357 -86 b 486 -119 432 -86 463 -97 b 521 -206 510 -142 521 -171 b 486 -292 521 -240 510 -269 b 394 -325 463 -314 432 -325 z "},"Ą":{"ha":811,"x_min":0,"x_max":0,"o":"m 485 376 l 469 439 b 436 581 458 482 447 529 b 403 726 425 632 414 681 l 397 726 b 367 582 388 681 378 632 b 333 440 356 531 344 483 l 318 378 l 485 378 z m 850 -262 b 776 -300 831 -278 806 -290 b 693 -315 747 -310 719 -315 b 572 -279 646 -315 606 -303 b 522 -179 539 -256 522 -222 b 535 -117 522 -157 526 -136 b 564 -64 542 -97 551 -79 b 603 -24 576 -49 589 -35 b 639 1 615 -12 628 -4 l 572 1 l 528 193 l 275 193 l 231 1 l -14 1 l 261 904 l 550 904 l 825 1 b 769 -8 804 1 786 -1 b 728 -36 753 -15 739 -25 b 703 -74 717 -47 708 -60 b 693 -115 696 -87 693 -101 b 708 -150 693 -131 699 -142 b 743 -162 718 -158 729 -162 b 772 -156 753 -162 763 -160 b 797 -143 782 -151 790 -147 l 850 -262 z "},"Æ":{"ha":1186,"x_min":0,"x_max":0,"o":"m 528 368 l 528 725 l 522 725 b 475 600 506 682 490 640 b 429 485 460 560 444 521 l 379 369 l 529 369 z m 1113 201 l 1113 1 l 529 1 l 529 185 l 300 185 l 221 1 l -29 1 l 382 904 l 1099 904 l 1099 704 l 768 704 l 768 563 l 1049 563 l 1049 363 l 768 363 l 768 201 l 1113 201 z "},"Ç":{"ha":814,"x_min":0,"x_max":0,"o":"m 61 444 b 97 647 61 521 74 589 b 193 796 121 706 153 756 b 333 888 233 836 281 867 b 500 919 386 908 442 919 b 657 885 557 919 610 908 b 774 801 703 861 742 833 l 643 654 b 578 700 621 674 599 689 b 503 715 557 710 532 715 b 426 697 476 715 451 710 b 363 646 401 685 381 668 b 319 564 344 624 331 596 b 303 456 308 532 303 496 b 357 260 303 371 321 306 b 497 192 392 214 439 192 b 588 213 532 192 563 199 b 654 263 613 225 635 242 l 785 118 b 651 18 746 74 701 40 b 493 -15 601 -4 549 -15 b 325 14 433 -15 378 -6 b 186 99 272 32 226 60 b 90 243 146 136 114 185 b 56 443 67 300 56 367 z m 419 4 l 556 4 l 531 -57 b 589 -94 554 -65 574 -78 b 611 -164 604 -111 611 -135 b 590 -228 611 -189 604 -210 b 532 -274 575 -246 556 -261 b 449 -303 508 -286 481 -296 b 349 -315 417 -310 383 -314 l 332 -224 b 411 -207 364 -221 390 -215 b 442 -167 432 -199 442 -185 b 428 -137 442 -157 438 -147 b 365 -111 418 -128 397 -119 l 421 0 z "},"Ć":{"ha":814,"x_min":0,"x_max":0,"o":"m 61 444 b 97 647 61 521 74 589 b 193 796 121 706 153 756 b 333 888 233 836 281 867 b 500 919 386 908 442 919 b 657 885 557 919 610 908 b 774 801 703 861 742 833 l 643 654 b 578 700 621 674 599 689 b 503 715 557 710 532 715 b 426 697 476 715 451 710 b 363 646 401 685 381 668 b 319 564 344 624 331 596 b 303 456 308 532 303 496 b 357 260 303 371 321 306 b 497 192 392 214 439 192 b 588 213 532 192 563 199 b 654 263 613 225 635 242 l 785 118 b 651 18 746 74 701 40 b 493 -15 601 -4 549 -15 b 325 14 433 -15 378 -6 b 186 99 272 32 226 60 b 90 243 146 136 114 185 b 56 443 67 300 56 367 z m 550 971 l 361 971 l 469 1143 l 719 1143 l 550 971 z "},"Ĉ":{"ha":814,"x_min":0,"x_max":0,"o":"m 61 444 b 97 647 61 521 74 589 b 193 796 121 706 153 756 b 333 888 233 836 281 867 b 500 919 386 908 442 919 b 657 885 557 919 610 908 b 774 801 703 861 742 833 l 643 654 b 578 700 621 674 599 689 b 503 715 557 710 532 715 b 426 697 476 715 451 710 b 363 646 401 685 381 668 b 319 564 344 624 331 596 b 303 456 308 532 303 496 b 357 260 303 371 321 306 b 497 192 392 214 439 192 b 588 213 532 192 563 199 b 654 263 613 225 635 242 l 785 118 b 651 18 746 74 701 40 b 493 -15 601 -4 549 -15 b 325 14 433 -15 378 -6 b 186 99 272 32 226 60 b 90 243 146 136 114 185 b 56 443 67 300 56 367 z m 228 971 l 361 1143 l 594 1143 l 728 971 l 547 971 l 481 1051 l 475 1051 l 408 971 l 228 971 z "},"Č":{"ha":814,"x_min":0,"x_max":0,"o":"m 61 444 b 97 647 61 521 74 589 b 193 796 121 706 153 756 b 333 888 233 836 281 867 b 500 919 386 908 442 919 b 657 885 557 919 610 908 b 774 801 703 861 742 833 l 643 654 b 578 700 621 674 599 689 b 503 715 557 710 532 715 b 426 697 476 715 451 710 b 363 646 401 685 381 668 b 319 564 344 624 331 596 b 303 456 308 532 303 496 b 357 260 303 371 321 306 b 497 192 392 214 439 192 b 588 213 532 192 563 199 b 654 263 613 225 635 242 l 785 118 b 651 18 746 74 701 40 b 493 -15 601 -4 549 -15 b 325 14 433 -15 378 -6 b 186 99 272 32 226 60 b 90 243 146 136 114 185 b 56 443 67 300 56 367 z m 728 1143 l 594 971 l 361 971 l 228 1143 l 408 1143 l 475 1063 l 481 1063 l 547 1143 l 728 1143 z "},"Ċ":{"ha":814,"x_min":0,"x_max":0,"o":"m 61 444 b 97 647 61 521 74 589 b 193 796 121 706 153 756 b 333 888 233 836 281 867 b 500 919 386 908 442 919 b 657 885 557 919 610 908 b 774 801 703 861 742 833 l 643 654 b 578 700 621 674 599 689 b 503 715 557 710 532 715 b 426 697 476 715 451 710 b 363 646 401 685 381 668 b 319 564 344 624 331 596 b 303 456 308 532 303 496 b 357 260 303 371 321 306 b 497 192 392 214 439 192 b 588 213 532 192 563 199 b 654 263 613 225 635 242 l 785 118 b 651 18 746 74 701 40 b 493 -15 601 -4 549 -15 b 325 14 433 -15 378 -6 b 186 99 272 32 226 60 b 90 243 146 136 114 185 b 56 443 67 300 56 367 z m 478 965 b 382 999 439 965 407 976 b 344 1085 357 1021 344 1050 b 382 1171 344 1119 357 1149 b 478 1204 407 1193 439 1204 b 574 1171 517 1204 549 1193 b 611 1085 599 1149 611 1119 b 574 999 611 1050 599 1021 b 478 965 549 976 517 965 z "},"Ď":{"ha":892,"x_min":0,"x_max":0,"o":"m 100 903 l 367 903 b 554 878 435 903 497 894 b 700 799 611 861 660 835 b 794 660 740 763 772 717 b 828 456 817 603 828 535 b 794 251 828 376 817 308 b 701 110 772 194 742 147 b 558 26 661 72 614 44 b 378 0 503 8 443 0 l 97 0 l 97 903 z m 350 192 b 442 204 382 192 413 196 b 517 244 471 211 496 225 b 567 325 538 264 554 290 b 585 456 579 360 585 403 b 567 585 585 508 579 551 b 517 663 554 618 538 644 b 442 700 496 681 471 693 b 350 710 413 707 382 710 l 336 710 l 336 190 l 350 190 z m 694 1143 l 561 971 l 328 971 l 194 1143 l 375 1143 l 442 1063 l 447 1063 l 514 1143 l 694 1143 z "},"Ḍ":{"ha":892,"x_min":0,"x_max":0,"o":"m 100 903 l 367 903 b 554 878 435 903 497 894 b 700 799 611 861 660 835 b 794 660 740 763 772 717 b 828 456 817 603 828 535 b 794 251 828 376 817 308 b 701 110 772 194 742 147 b 558 26 661 72 614 44 b 378 0 503 8 443 0 l 97 0 l 97 903 z m 350 192 b 442 204 382 192 413 196 b 517 244 471 211 496 225 b 567 325 538 264 554 290 b 585 456 579 360 585 403 b 567 585 585 508 579 551 b 517 663 554 618 538 644 b 442 700 496 681 471 693 b 350 710 413 707 382 710 l 336 710 l 336 190 l 350 190 z m 436 -326 b 344 -293 399 -326 368 -315 b 308 -207 321 -271 308 -242 b 344 -121 308 -172 321 -143 b 436 -87 368 -99 399 -87 b 528 -121 474 -87 504 -99 b 563 -207 551 -143 563 -172 b 528 -293 563 -242 551 -271 b 436 -326 504 -315 474 -326 z "},"Ḏ":{"ha":892,"x_min":0,"x_max":0,"o":"m 100 903 l 367 903 b 554 878 435 903 497 894 b 700 799 611 861 660 835 b 794 660 740 763 772 717 b 828 456 817 603 828 535 b 794 251 828 376 817 308 b 701 110 772 194 742 147 b 558 26 661 72 614 44 b 378 0 503 8 443 0 l 97 0 l 97 903 z m 350 192 b 442 204 382 192 413 196 b 517 244 471 211 496 225 b 567 325 538 264 554 290 b 585 456 579 360 585 403 b 567 585 585 508 579 551 b 517 663 554 618 538 644 b 442 700 496 681 471 693 b 350 710 413 707 382 710 l 336 710 l 336 190 l 350 190 z m 636 -274 l 236 -274 l 236 -124 l 636 -124 l 636 -274 z "},"Đ":{"ha":928,"x_min":0,"x_max":0,"o":"m 389 192 b 481 204 421 192 451 196 b 556 244 510 211 535 225 b 606 325 576 264 593 290 b 624 456 618 360 624 403 b 606 585 624 508 618 551 b 556 663 593 618 576 644 b 481 700 535 681 510 693 b 389 710 451 707 421 710 l 375 710 l 375 518 l 536 518 l 536 407 l 375 407 l 375 190 l 389 190 z m 403 901 b 590 876 471 901 533 893 b 736 797 647 860 696 833 b 831 658 776 761 808 715 b 864 454 853 601 864 533 b 831 250 864 375 853 307 b 738 108 808 193 778 146 b 594 25 697 71 650 43 b 414 -1 539 7 479 -1 l 133 -1 l 133 407 l 31 407 l 31 510 l 133 518 l 133 901 l 400 901 z "},"È":{"ha":772,"x_min":0,"x_max":0,"o":"m 100 903 l 683 903 l 683 703 l 339 703 l 339 561 l 633 561 l 633 361 l 339 361 l 339 200 l 697 200 l 697 0 l 100 0 l 100 903 z m 161 1144 l 411 1144 l 519 972 l 331 972 l 161 1144 z "},"É":{"ha":772,"x_min":0,"x_max":0,"o":"m 100 903 l 683 903 l 683 703 l 339 703 l 339 561 l 633 561 l 633 361 l 339 361 l 339 200 l 697 200 l 697 0 l 100 0 l 100 903 z m 475 972 l 286 972 l 394 1144 l 644 1144 l 475 972 z "},"Ê":{"ha":772,"x_min":0,"x_max":0,"o":"m 100 903 l 683 903 l 683 703 l 339 703 l 339 561 l 633 561 l 633 361 l 339 361 l 339 200 l 697 200 l 697 0 l 100 0 l 100 903 z m 153 972 l 286 1144 l 519 1144 l 653 972 l 472 972 l 406 1053 l 400 1053 l 333 972 l 153 972 z "},"Ě":{"ha":772,"x_min":0,"x_max":0,"o":"m 100 903 l 683 903 l 683 703 l 339 703 l 339 561 l 633 561 l 633 361 l 339 361 l 339 200 l 697 200 l 697 0 l 100 0 l 100 903 z m 653 1144 l 519 972 l 286 972 l 153 1144 l 333 1144 l 400 1064 l 406 1064 l 472 1144 l 653 1144 z "},"Ë":{"ha":772,"x_min":0,"x_max":0,"o":"m 100 903 l 683 903 l 683 703 l 339 703 l 339 561 l 633 561 l 633 361 l 339 361 l 339 200 l 697 200 l 697 0 l 100 0 l 100 903 z m 258 964 b 181 996 226 964 200 975 b 150 1072 160 1017 150 1042 b 179 1150 150 1103 160 1129 b 257 1181 199 1171 225 1181 b 335 1150 289 1181 315 1171 b 364 1072 354 1129 364 1103 b 335 996 364 1042 354 1017 b 256 964 314 975 288 964 z m 544 964 b 467 996 513 964 486 975 b 436 1072 446 1017 436 1042 b 465 1150 436 1103 446 1129 b 543 1181 485 1171 511 1181 b 621 1150 575 1181 601 1171 b 650 1072 640 1129 650 1103 b 621 996 650 1042 640 1017 b 542 964 600 975 574 964 z "},"Ē":{"ha":772,"x_min":0,"x_max":0,"o":"m 100 903 l 683 903 l 683 703 l 339 703 l 339 561 l 633 561 l 633 361 l 339 361 l 339 200 l 697 200 l 697 0 l 100 0 l 100 903 z m 197 1144 l 608 1144 l 608 994 l 197 994 l 197 1144 z "},"Ĕ":{"ha":772,"x_min":0,"x_max":0,"o":"m 100 903 l 683 903 l 683 703 l 339 703 l 339 561 l 633 561 l 633 361 l 339 361 l 339 200 l 697 200 l 697 0 l 100 0 l 100 903 z m 403 972 b 261 1018 340 972 293 988 b 206 1143 229 1047 211 1089 l 333 1143 b 354 1103 338 1126 344 1113 b 400 1088 364 1093 379 1088 b 446 1103 421 1088 436 1093 b 467 1143 456 1113 463 1126 l 594 1143 b 539 1017 589 1089 571 1047 b 397 971 507 986 460 971 z "},"Ė":{"ha":772,"x_min":0,"x_max":0,"o":"m 100 903 l 683 903 l 683 703 l 339 703 l 339 561 l 633 561 l 633 361 l 339 361 l 339 200 l 697 200 l 697 0 l 100 0 l 100 903 z m 403 967 b 307 1000 364 967 332 978 b 269 1086 282 1022 269 1051 b 307 1172 269 1121 282 1150 b 403 1206 332 1194 364 1206 b 499 1172 442 1206 474 1194 b 536 1086 524 1150 536 1121 b 499 1000 536 1051 524 1022 b 403 967 474 978 442 967 z "},"Ẹ":{"ha":772,"x_min":0,"x_max":0,"o":"m 100 903 l 683 903 l 683 703 l 339 703 l 339 561 l 633 561 l 633 361 l 339 361 l 339 200 l 697 200 l 697 0 l 100 0 l 100 903 z m 408 -325 b 317 -292 371 -325 340 -314 b 281 -206 293 -269 281 -240 b 317 -119 281 -171 293 -142 b 408 -86 340 -97 371 -86 b 500 -119 446 -86 476 -97 b 535 -206 524 -142 535 -171 b 500 -292 535 -240 524 -269 b 408 -325 476 -314 446 -325 z "},"Ẻ":{"ha":772,"x_min":0,"x_max":0,"o":"m 100 903 l 683 903 l 683 703 l 339 703 l 339 561 l 633 561 l 633 361 l 339 361 l 339 200 l 697 200 l 697 0 l 100 0 l 100 903 z m 333 1047 b 374 1056 349 1049 363 1051 b 389 1079 383 1060 389 1068 b 365 1107 389 1090 381 1100 b 282 1121 350 1114 322 1118 l 310 1238 b 431 1225 358 1236 399 1232 b 507 1197 463 1218 488 1208 b 549 1156 526 1185 540 1171 b 560 1106 556 1140 560 1124 b 543 1042 560 1081 554 1060 b 497 996 532 1024 517 1008 b 431 967 478 983 456 974 b 350 954 406 960 379 956 l 333 1046 z "},"Ẽ":{"ha":772,"x_min":0,"x_max":0,"o":"m 100 903 l 683 903 l 683 703 l 339 703 l 339 561 l 633 561 l 633 361 l 339 361 l 339 200 l 697 200 l 697 0 l 100 0 l 100 903 z m 492 972 b 440 981 474 972 457 975 b 394 1000 424 986 408 993 b 357 1019 381 1007 368 1014 b 324 1028 344 1025 333 1028 b 293 1015 313 1028 303 1024 b 271 969 283 1007 276 992 l 151 969 b 210 1124 160 1040 179 1092 b 313 1172 240 1156 275 1172 b 365 1164 331 1172 349 1169 b 410 1143 381 1157 396 1150 b 447 1124 424 1136 436 1129 b 479 1114 458 1117 469 1114 b 510 1126 490 1114 500 1118 b 532 1172 519 1135 526 1150 l 651 1172 b 631 1082 647 1138 640 1107 b 594 1018 621 1056 608 1035 b 544 981 579 1001 563 989 b 490 968 526 972 508 968 z "},"Ế":{"ha":772,"x_min":0,"x_max":0,"o":"m 100 903 l 683 903 l 683 703 l 339 703 l 339 561 l 633 561 l 633 361 l 339 361 l 339 200 l 697 200 l 697 0 l 100 0 l 100 903 z m 665 1242 l 846 1242 l 704 1069 l 571 1069 l 665 1242 z m 300 1136 l 506 1136 l 639 972 l 472 972 l 406 1044 l 400 1044 l 333 972 l 167 972 l 300 1136 z "},"Ề":{"ha":772,"x_min":0,"x_max":0,"o":"m 100 903 l 683 903 l 683 703 l 339 703 l 339 561 l 633 561 l 633 361 l 339 361 l 339 200 l 697 200 l 697 0 l 100 0 l 100 903 z m 763 1069 l 629 1069 l 488 1242 l 668 1242 l 763 1069 z m 300 1136 l 506 1136 l 639 972 l 472 972 l 406 1044 l 400 1044 l 333 972 l 167 972 l 300 1136 z "},"Ể":{"ha":772,"x_min":0,"x_max":0,"o":"m 100 903 l 683 903 l 683 703 l 339 703 l 339 561 l 633 561 l 633 361 l 339 361 l 339 200 l 697 200 l 697 0 l 100 0 l 100 903 z m 589 1111 b 617 1119 600 1113 610 1115 b 628 1143 624 1124 628 1132 b 610 1171 628 1154 622 1164 b 539 1185 597 1178 574 1182 l 561 1279 b 667 1267 604 1278 639 1274 b 733 1242 694 1260 717 1251 b 768 1206 750 1232 761 1219 b 778 1163 775 1192 778 1178 b 728 1071 778 1119 761 1089 b 604 1039 694 1053 653 1042 l 588 1111 z m 299 1136 l 504 1136 l 638 972 l 471 972 l 404 1044 l 399 1044 l 332 972 l 165 972 l 299 1136 z "},"Ễ":{"ha":772,"x_min":0,"x_max":0,"o":"m 100 903 l 683 903 l 683 703 l 339 703 l 339 561 l 633 561 l 633 361 l 339 361 l 339 200 l 697 200 l 697 0 l 100 0 l 100 903 z m 300 1136 l 506 1136 l 639 972 l 472 972 l 406 1044 l 400 1044 l 333 972 l 167 972 l 300 1136 z m 186 1186 b 236 1317 193 1247 210 1290 b 321 1356 263 1343 290 1356 b 367 1347 338 1356 353 1353 b 404 1329 381 1342 393 1336 b 436 1311 415 1322 426 1317 b 465 1303 446 1306 456 1303 b 494 1314 476 1303 486 1307 b 514 1351 503 1321 510 1333 l 617 1351 b 567 1221 610 1290 593 1247 b 481 1182 540 1194 511 1182 b 435 1190 464 1182 449 1185 b 396 1207 421 1194 408 1200 b 363 1225 383 1214 372 1219 b 333 1232 353 1229 343 1232 b 304 1221 322 1232 313 1228 b 285 1183 296 1214 289 1201 l 182 1183 z "},"Ệ":{"ha":772,"x_min":0,"x_max":0,"o":"m 100 903 l 683 903 l 683 703 l 339 703 l 339 561 l 633 561 l 633 361 l 339 361 l 339 200 l 697 200 l 697 0 l 100 0 l 100 903 z m 153 972 l 286 1144 l 519 1144 l 653 972 l 472 972 l 406 1053 l 400 1053 l 333 972 l 153 972 z m 408 -325 b 317 -292 371 -325 340 -314 b 281 -206 293 -269 281 -240 b 317 -119 281 -171 293 -142 b 408 -86 340 -97 371 -86 b 500 -119 446 -86 476 -97 b 535 -206 524 -142 535 -171 b 500 -292 535 -240 524 -269 b 408 -325 476 -314 446 -325 z "},"Ę":{"ha":772,"x_min":0,"x_max":0,"o":"m 100 903 l 683 903 l 683 703 l 339 703 l 339 561 l 633 561 l 633 361 l 339 361 l 339 200 l 697 200 l 697 0 l 689 0 b 644 -10 674 0 658 -3 b 606 -37 629 -17 617 -26 b 581 -75 594 -49 586 -61 b 571 -117 574 -89 571 -103 b 588 -153 571 -133 576 -146 b 625 -164 599 -160 611 -164 b 650 -157 633 -164 642 -161 b 672 -144 658 -153 665 -149 l 725 -264 b 651 -301 706 -279 681 -292 b 568 -317 622 -311 594 -317 b 447 -281 521 -317 481 -304 b 397 -181 414 -257 397 -224 b 408 -118 397 -158 401 -137 b 436 -68 415 -100 425 -83 b 472 -29 447 -53 460 -40 b 508 -1 485 -18 497 -8 l 97 -1 l 97 901 z "},"Ĝ":{"ha":897,"x_min":0,"x_max":0,"o":"m 61 444 b 97 647 61 521 74 589 b 196 796 121 706 154 756 b 342 888 238 836 286 867 b 517 919 396 908 454 919 b 685 885 581 919 636 908 b 806 801 733 861 774 833 l 675 654 b 608 700 653 674 631 689 b 519 715 585 710 556 715 b 435 697 489 715 461 710 b 367 646 408 685 386 668 b 321 564 347 624 332 596 b 304 456 310 532 304 496 b 361 260 304 371 324 306 b 540 192 399 214 458 192 b 578 196 553 192 565 193 b 608 208 590 199 600 203 l 608 333 l 475 333 l 475 528 l 819 528 l 819 97 b 686 18 786 67 742 40 b 507 -15 631 -4 571 -15 b 332 14 444 -15 386 -6 b 190 99 278 32 231 60 b 94 243 150 136 118 185 b 58 443 71 300 58 367 z m 264 971 l 397 1143 l 631 1143 l 764 971 l 583 971 l 517 1051 l 511 1051 l 444 971 l 264 971 z "},"Ğ":{"ha":897,"x_min":0,"x_max":0,"o":"m 61 444 b 97 647 61 521 74 589 b 196 796 121 706 154 756 b 342 888 238 836 286 867 b 517 919 396 908 454 919 b 685 885 581 919 636 908 b 806 801 733 861 774 833 l 675 654 b 608 700 653 674 631 689 b 519 715 585 710 556 715 b 435 697 489 715 461 710 b 367 646 408 685 386 668 b 321 564 347 624 332 596 b 304 456 310 532 304 496 b 361 260 304 371 324 306 b 540 192 399 214 458 192 b 578 196 553 192 565 193 b 608 208 590 199 600 203 l 608 333 l 475 333 l 475 528 l 819 528 l 819 97 b 686 18 786 67 742 40 b 507 -15 631 -4 571 -15 b 332 14 444 -15 386 -6 b 190 99 278 32 231 60 b 94 243 150 136 118 185 b 58 443 71 300 58 367 z m 514 971 b 372 1017 451 971 404 986 b 317 1142 340 1046 322 1088 l 444 1142 b 465 1101 449 1125 456 1111 b 511 1086 475 1092 490 1086 b 557 1101 532 1086 547 1092 b 578 1142 567 1111 574 1125 l 706 1142 b 650 1015 700 1088 682 1046 b 508 969 618 985 571 969 z "},"Ġ":{"ha":897,"x_min":0,"x_max":0,"o":"m 61 444 b 97 647 61 521 74 589 b 196 796 121 706 154 756 b 342 888 238 836 286 867 b 517 919 396 908 454 919 b 685 885 581 919 636 908 b 806 801 733 861 774 833 l 675 654 b 608 700 653 674 631 689 b 519 715 585 710 556 715 b 435 697 489 715 461 710 b 367 646 408 685 386 668 b 321 564 347 624 332 596 b 304 456 310 532 304 496 b 361 260 304 371 324 306 b 540 192 399 214 458 192 b 578 196 553 192 565 193 b 608 208 590 199 600 203 l 608 333 l 475 333 l 475 528 l 819 528 l 819 97 b 686 18 786 67 742 40 b 507 -15 631 -4 571 -15 b 332 14 444 -15 386 -6 b 190 99 278 32 231 60 b 94 243 150 136 118 185 b 58 443 71 300 58 367 z m 514 965 b 418 999 475 965 443 976 b 381 1085 393 1021 381 1050 b 418 1171 381 1119 393 1149 b 514 1204 443 1193 475 1204 b 610 1171 553 1204 585 1193 b 647 1085 635 1149 647 1119 b 610 999 647 1050 635 1021 b 514 965 585 976 553 965 z "},"Ģ":{"ha":897,"x_min":0,"x_max":0,"o":"m 61 444 b 97 647 61 521 74 589 b 196 796 121 706 154 756 b 342 888 238 836 286 867 b 517 919 396 908 454 919 b 685 885 581 919 636 908 b 806 801 733 861 774 833 l 675 654 b 608 700 653 674 631 689 b 519 715 585 710 556 715 b 435 697 489 715 461 710 b 367 646 408 685 386 668 b 321 564 347 624 332 596 b 304 456 310 532 304 496 b 361 260 304 371 324 306 b 540 192 399 214 458 192 b 578 196 553 192 565 193 b 608 208 590 199 600 203 l 608 333 l 475 333 l 475 528 l 819 528 l 819 97 b 686 18 786 67 742 40 b 507 -15 631 -4 571 -15 b 332 14 444 -15 386 -6 b 190 99 278 32 231 60 b 94 243 150 136 118 185 b 58 443 71 300 58 367 z m 456 -57 b 597 -94 524 -62 571 -75 b 636 -178 624 -114 636 -142 b 615 -242 636 -203 629 -224 b 557 -287 600 -260 581 -275 b 474 -317 533 -300 506 -310 b 374 -329 442 -324 408 -328 l 357 -237 b 436 -224 389 -235 415 -231 b 467 -190 457 -217 467 -206 b 454 -162 467 -179 463 -169 b 410 -143 446 -156 431 -149 l 454 -60 l 454 -60 z "},"Ǧ":{"ha":897,"x_min":0,"x_max":0,"o":"m 61 444 b 97 647 61 521 74 589 b 196 796 121 706 154 756 b 342 888 238 836 286 867 b 517 919 396 908 454 919 b 685 885 581 919 636 908 b 806 801 733 861 774 833 l 675 654 b 608 700 653 674 631 689 b 519 715 585 710 556 715 b 435 697 489 715 461 710 b 367 646 408 685 386 668 b 321 564 347 624 332 596 b 304 456 310 532 304 496 b 361 260 304 371 324 306 b 540 192 399 214 458 192 b 578 196 553 192 565 193 b 608 208 590 199 600 203 l 608 333 l 475 333 l 475 528 l 819 528 l 819 97 b 686 18 786 67 742 40 b 507 -15 631 -4 571 -15 b 332 14 444 -15 386 -6 b 190 99 278 32 231 60 b 94 243 150 136 118 185 b 58 443 71 300 58 367 z m 764 1143 l 631 971 l 397 971 l 264 1143 l 444 1143 l 511 1063 l 517 1063 l 583 1143 l 764 1143 z "},"Ḡ":{"ha":897,"x_min":0,"x_max":0,"o":"m 61 444 b 97 647 61 521 74 589 b 196 796 121 706 154 756 b 342 888 238 836 286 867 b 517 919 396 908 454 919 b 685 885 581 919 636 908 b 806 801 733 861 774 833 l 675 654 b 608 700 653 674 631 689 b 519 715 585 710 556 715 b 435 697 489 715 461 710 b 367 646 408 685 386 668 b 321 564 347 624 332 596 b 304 456 310 532 304 496 b 361 260 304 371 324 306 b 540 192 399 214 458 192 b 578 196 553 192 565 193 b 608 208 590 199 600 203 l 608 333 l 475 333 l 475 528 l 819 528 l 819 97 b 686 18 786 67 742 40 b 507 -15 631 -4 571 -15 b 332 14 444 -15 386 -6 b 190 99 278 32 231 60 b 94 243 150 136 118 185 b 58 443 71 300 58 367 z m 308 1143 l 719 1143 l 719 993 l 308 993 l 308 1143 z "},"Ĥ":{"ha":947,"x_min":0,"x_max":0,"o":"m 100 903 l 339 903 l 339 567 l 608 567 l 608 903 l 847 903 l 847 0 l 608 0 l 608 358 l 339 358 l 339 0 l 100 0 l 100 903 z m 222 972 l 356 1144 l 589 1144 l 722 972 l 542 972 l 475 1053 l 469 1053 l 403 972 l 222 972 z "},"Ḥ":{"ha":947,"x_min":0,"x_max":0,"o":"m 100 903 l 339 903 l 339 567 l 608 567 l 608 903 l 847 903 l 847 0 l 608 0 l 608 358 l 339 358 l 339 0 l 100 0 l 100 903 z m 472 -325 b 381 -292 435 -325 404 -314 b 344 -206 357 -269 344 -240 b 381 -119 344 -171 357 -142 b 472 -86 404 -97 435 -86 b 564 -119 510 -86 540 -97 b 599 -206 588 -142 599 -171 b 564 -292 599 -240 588 -269 b 472 -325 540 -314 510 -325 z "},"Ḫ":{"ha":947,"x_min":0,"x_max":0,"o":"m 100 903 l 339 903 l 339 567 l 608 567 l 608 903 l 847 903 l 847 0 l 608 0 l 608 358 l 339 358 l 339 0 l 100 0 l 100 903 z m 472 -294 b 385 -278 439 -294 410 -289 b 322 -236 360 -268 339 -254 b 285 -172 306 -218 293 -197 b 271 -97 276 -149 272 -124 l 401 -97 b 422 -149 404 -118 411 -135 b 471 -169 433 -162 450 -169 b 519 -149 492 -169 508 -162 b 540 -99 531 -136 538 -119 l 671 -99 b 657 -175 669 -125 665 -150 b 619 -239 649 -200 636 -221 b 557 -282 603 -257 582 -271 b 469 -299 532 -293 503 -299 z "},"Ħ":{"ha":1003,"x_min":0,"x_max":0,"o":"m 636 672 l 367 672 l 367 567 l 636 567 l 636 672 z m 972 672 l 875 672 l 875 0 l 636 0 l 636 358 l 367 358 l 367 0 l 128 0 l 128 672 l 31 672 l 31 775 l 128 783 l 128 903 l 367 903 l 367 783 l 636 783 l 636 903 l 875 903 l 875 783 l 972 783 l 972 672 z "},"Ì":{"ha":439,"x_min":0,"x_max":0,"o":"m 100 903 l 339 903 l 339 0 l 100 0 l 100 903 z m -22 1144 l 228 1144 l 336 972 l 147 972 l -22 1144 z "},"Í":{"ha":439,"x_min":0,"x_max":0,"o":"m 100 903 l 339 903 l 339 0 l 100 0 l 100 903 z m 292 972 l 103 972 l 211 1144 l 461 1144 l 292 972 z "},"Î":{"ha":439,"x_min":0,"x_max":0,"o":"m 100 903 l 339 903 l 339 0 l 100 0 l 100 903 z m -31 972 l 103 1144 l 336 1144 l 469 972 l 289 972 l 222 1053 l 217 1053 l 150 972 l -31 972 z "},"Ĩ":{"ha":439,"x_min":0,"x_max":0,"o":"m 100 903 l 339 903 l 339 0 l 100 0 l 100 903 z m 308 972 b 257 981 290 972 274 975 b 211 1000 240 986 225 993 b 174 1019 197 1007 185 1014 b 140 1028 161 1025 150 1028 b 110 1015 129 1028 119 1024 b 88 969 100 1007 93 992 l -32 969 b 26 1124 -24 1040 -4 1092 b 129 1172 57 1156 92 1172 b 182 1164 147 1172 165 1169 b 226 1143 197 1157 213 1150 b 264 1124 240 1136 253 1129 b 296 1114 275 1117 286 1114 b 326 1126 307 1114 317 1118 b 349 1172 336 1135 343 1150 l 468 1172 b 447 1082 464 1138 457 1107 b 411 1018 438 1056 425 1035 b 361 981 396 1001 379 989 b 307 968 343 972 325 968 z "},"Ï":{"ha":439,"x_min":0,"x_max":0,"o":"m 100 903 l 339 903 l 339 0 l 100 0 l 100 903 z m 75 964 b -3 996 43 964 17 975 b -33 1072 -24 1017 -33 1042 b -4 1150 -33 1103 -24 1129 b 74 1181 15 1171 42 1181 b 151 1150 106 1181 132 1171 b 181 1072 171 1129 181 1103 b 151 996 181 1042 171 1017 b 72 964 131 975 104 964 z m 361 964 b 283 996 329 964 303 975 b 253 1072 263 1017 253 1042 b 282 1150 253 1103 263 1129 b 360 1181 301 1171 328 1181 b 438 1150 392 1181 418 1171 b 467 1072 457 1129 467 1103 b 438 996 467 1042 457 1017 b 358 964 417 975 390 964 z "},"Ī":{"ha":439,"x_min":0,"x_max":0,"o":"m 100 903 l 339 903 l 339 0 l 100 0 l 100 903 z m 14 1144 l 425 1144 l 425 994 l 14 994 l 14 1144 z "},"İ":{"ha":439,"x_min":0,"x_max":0,"o":"m 100 903 l 339 903 l 339 0 l 100 0 l 100 903 z m 219 967 b 124 1000 181 967 149 978 b 86 1086 99 1022 86 1051 b 124 1172 86 1121 99 1150 b 219 1206 149 1194 181 1206 b 315 1172 258 1206 290 1194 b 353 1086 340 1150 353 1121 b 315 1000 353 1051 340 1022 b 219 967 290 978 258 967 z "},"Ǐ":{"ha":439,"x_min":0,"x_max":0,"o":"m 100 903 l 339 903 l 339 0 l 100 0 l 100 903 z m 469 1144 l 336 972 l 103 972 l -31 1144 l 150 1144 l 217 1064 l 222 1064 l 289 1144 l 469 1144 z "},"Ỉ":{"ha":439,"x_min":0,"x_max":0,"o":"m 100 903 l 339 903 l 339 0 l 100 0 l 100 903 z m 150 1047 b 189 1056 165 1049 178 1051 b 204 1079 199 1060 204 1068 b 181 1107 204 1090 196 1100 b 97 1121 165 1114 138 1118 l 125 1238 b 246 1225 174 1236 214 1232 b 322 1197 278 1218 303 1208 b 364 1156 342 1185 356 1171 b 375 1106 371 1140 375 1124 b 358 1042 375 1081 369 1060 b 313 996 347 1024 332 1008 b 246 967 293 983 271 974 b 165 954 221 960 194 956 l 149 1046 z "},"Ị":{"ha":439,"x_min":0,"x_max":0,"o":"m 100 903 l 339 903 l 339 0 l 100 0 l 100 903 z m 219 -325 b 128 -292 182 -325 151 -314 b 92 -206 104 -269 92 -240 b 128 -119 92 -171 104 -142 b 219 -86 151 -97 182 -86 b 311 -119 257 -86 288 -97 b 346 -206 335 -142 346 -171 b 311 -292 346 -240 335 -269 b 219 -325 288 -314 257 -325 z "},"Į":{"ha":439,"x_min":0,"x_max":0,"o":"m 100 903 l 339 903 l 339 0 b 256 -50 299 -12 271 -29 b 232 -115 240 -71 232 -93 b 249 -151 232 -132 238 -144 b 285 -162 260 -158 272 -162 b 313 -156 294 -162 304 -160 b 333 -143 321 -151 328 -147 l 386 -262 b 313 -300 367 -278 342 -290 b 229 -315 283 -310 256 -315 b 108 -279 182 -315 142 -303 b 58 -179 75 -256 58 -222 b 69 -115 58 -156 63 -135 b 97 -65 76 -97 86 -81 b 132 -26 108 -50 119 -37 b 165 0 144 -15 156 -7 l 100 0 l 100 903 z "},"Ĵ":{"ha":722,"x_min":0,"x_max":0,"o":"m 175 275 b 229 210 190 246 208 224 b 289 189 250 196 269 189 b 331 196 304 189 318 192 b 361 218 343 200 353 207 b 381 263 369 229 376 244 b 388 333 385 281 388 304 l 388 903 l 626 903 l 626 314 b 608 185 626 268 621 225 b 551 79 596 144 576 110 b 456 7 526 49 494 25 b 319 -19 417 -11 371 -19 b 136 22 246 -19 185 -6 b 13 151 88 50 46 93 l 174 272 z m 254 969 l 388 1142 l 621 1142 l 754 969 l 574 969 l 507 1050 l 501 1050 l 435 969 l 254 969 z "},"Ķ":{"ha":872,"x_min":0,"x_max":0,"o":"m 100 903 l 339 903 l 339 567 l 344 567 l 572 903 l 833 903 l 564 536 l 886 0 l 625 0 l 425 347 l 339 225 l 339 0 l 100 0 l 100 903 z m 411 -56 b 553 -93 479 -61 526 -74 b 592 -176 579 -112 592 -140 b 571 -240 592 -201 585 -222 b 513 -286 556 -258 536 -274 b 429 -315 489 -299 461 -308 b 329 -328 397 -322 364 -326 l 313 -236 b 392 -222 344 -233 371 -229 b 422 -189 413 -215 422 -204 b 410 -161 422 -178 418 -168 b 365 -142 401 -154 386 -147 l 410 -58 l 410 -58 z "},"Ĺ":{"ha":736,"x_min":0,"x_max":0,"o":"m 100 903 l 339 903 l 339 200 l 681 200 l 681 0 l 100 0 l 100 903 z m 297 972 l 108 972 l 217 1144 l 467 1144 l 297 972 z "},"Ľ":{"ha":736,"x_min":0,"x_max":0,"o":"m 100 903 l 339 903 l 339 200 l 681 200 l 681 0 l 100 0 l 100 903 z m 500 707 l 492 1021 l 642 1021 l 639 918 l 600 707 l 500 707 z "},"Ļ":{"ha":736,"x_min":0,"x_max":0,"o":"m 100 903 l 339 903 l 339 200 l 681 200 l 681 0 l 100 0 l 100 903 z m 351 -56 b 493 -93 419 -61 467 -74 b 532 -176 519 -112 532 -140 b 511 -240 532 -201 525 -222 b 453 -286 496 -258 476 -274 b 369 -315 429 -299 401 -308 b 269 -328 338 -322 304 -326 l 253 -236 b 332 -222 285 -233 311 -229 b 363 -189 353 -215 363 -204 b 350 -161 363 -178 358 -168 b 306 -142 342 -154 326 -147 l 350 -58 l 350 -58 z "},"Ŀ":{"ha":736,"x_min":0,"x_max":0,"o":"m 100 903 l 339 903 l 339 200 l 681 200 l 681 0 l 100 0 l 100 903 z m 449 458 b 488 561 449 499 461 533 b 588 603 514 589 547 603 b 688 561 628 603 661 589 b 726 458 714 533 726 499 b 688 356 726 418 714 383 b 588 314 661 328 628 314 b 488 356 547 314 514 328 b 449 458 461 383 449 418 z "},"Ḷ":{"ha":736,"x_min":0,"x_max":0,"o":"m 100 903 l 339 903 l 339 200 l 681 200 l 681 0 l 100 0 l 100 903 z m 404 -325 b 313 -292 367 -325 336 -314 b 276 -206 289 -269 276 -240 b 313 -119 276 -171 289 -142 b 404 -86 336 -97 367 -86 b 496 -119 442 -86 472 -97 b 531 -206 519 -142 531 -171 b 496 -292 531 -240 519 -269 b 404 -325 472 -314 442 -325 z "},"Ḹ":{"ha":736,"x_min":0,"x_max":0,"o":"m 100 903 l 339 903 l 339 200 l 681 200 l 681 0 l 100 0 l 100 903 z m 19 1144 l 431 1144 l 431 994 l 19 994 l 19 1144 z m 404 -325 b 313 -292 367 -325 336 -314 b 276 -206 289 -269 276 -240 b 313 -119 276 -171 289 -142 b 404 -86 336 -97 367 -86 b 496 -119 442 -86 472 -97 b 531 -206 519 -142 531 -171 b 496 -292 531 -240 519 -269 b 404 -325 472 -314 442 -325 z "},"Ḻ":{"ha":736,"x_min":0,"x_max":0,"o":"m 100 903 l 339 903 l 339 200 l 681 200 l 681 0 l 100 0 l 100 903 z m 604 -272 l 204 -272 l 204 -122 l 604 -122 l 604 -272 z "},"Ł":{"ha":747,"x_min":0,"x_max":0,"o":"m 692 200 l 692 0 l 111 0 l 111 275 l 14 217 l 14 400 l 111 458 l 111 903 l 350 903 l 350 569 l 583 700 l 583 517 l 350 386 l 350 200 l 692 200 z "},"Ṃ":{"ha":1078,"x_min":0,"x_max":0,"o":"m 100 903 l 347 903 l 489 528 l 539 381 l 544 381 l 594 528 l 731 903 l 978 903 l 978 0 l 756 0 l 756 267 b 760 343 756 290 757 315 b 767 429 761 371 764 400 b 776 514 769 458 772 486 b 786 589 781 542 783 567 l 781 589 l 706 378 l 581 74 l 492 74 l 367 378 l 294 589 l 289 589 b 299 514 292 567 294 542 b 308 429 303 486 306 458 b 317 343 311 400 314 371 b 319 267 318 315 319 290 l 319 0 l 100 0 l 100 903 z m 542 -325 b 450 -292 504 -325 474 -314 b 414 -206 426 -269 414 -240 b 450 -119 414 -171 426 -142 b 542 -86 474 -97 504 -86 b 633 -119 579 -86 610 -97 b 668 -206 657 -142 668 -171 b 633 -292 668 -240 657 -269 b 542 -325 610 -314 579 -325 z "},"Ń":{"ha":933,"x_min":0,"x_max":0,"o":"m 100 903 l 344 903 l 544 500 l 631 297 l 636 297 b 626 376 633 321 631 347 b 617 465 622 406 619 435 b 608 556 614 494 611 525 b 604 642 606 585 604 614 l 604 903 l 832 903 l 832 0 l 588 0 l 388 404 l 301 606 l 296 606 b 315 436 301 554 308 497 b 326 261 322 375 326 317 l 326 0 l 99 0 l 99 903 z m 538 972 l 349 972 l 457 1144 l 707 1144 l 538 972 z "},"Ň":{"ha":933,"x_min":0,"x_max":0,"o":"m 100 903 l 344 903 l 544 500 l 631 297 l 636 297 b 626 376 633 321 631 347 b 617 465 622 406 619 435 b 608 556 614 494 611 525 b 604 642 606 585 604 614 l 604 903 l 832 903 l 832 0 l 588 0 l 388 404 l 301 606 l 296 606 b 315 436 301 554 308 497 b 326 261 322 375 326 317 l 326 0 l 99 0 l 99 903 z m 715 1144 l 582 972 l 349 972 l 215 1144 l 396 1144 l 463 1064 l 468 1064 l 535 1144 l 715 1144 z "},"Ñ":{"ha":933,"x_min":0,"x_max":0,"o":"m 100 903 l 344 903 l 544 500 l 631 297 l 636 297 b 626 376 633 321 631 347 b 617 465 622 406 619 435 b 608 556 614 494 611 525 b 604 642 606 585 604 614 l 604 903 l 832 903 l 832 0 l 588 0 l 388 404 l 301 606 l 296 606 b 315 436 301 554 308 497 b 326 261 322 375 326 317 l 326 0 l 99 0 l 99 903 z m 554 972 b 503 981 536 972 519 975 b 457 1000 486 986 471 993 b 419 1019 443 1007 431 1014 b 386 1028 407 1025 396 1028 b 356 1015 375 1028 365 1024 b 333 969 346 1007 339 992 l 214 969 b 272 1124 222 1040 242 1092 b 375 1172 303 1156 338 1172 b 428 1164 393 1172 411 1169 b 472 1143 443 1157 458 1150 b 510 1124 486 1136 499 1129 b 542 1114 521 1117 532 1114 b 572 1126 553 1114 563 1118 b 594 1172 582 1135 589 1150 l 714 1172 b 693 1082 710 1138 703 1107 b 657 1018 683 1056 671 1035 b 607 981 642 1001 625 989 b 553 968 589 972 571 968 z "},"Ņ":{"ha":933,"x_min":0,"x_max":0,"o":"m 100 903 l 344 903 l 544 500 l 631 297 l 636 297 b 626 376 633 321 631 347 b 617 465 622 406 619 435 b 608 556 614 494 611 525 b 604 642 606 585 604 614 l 604 903 l 832 903 l 832 0 l 588 0 l 388 404 l 301 606 l 296 606 b 315 436 301 554 308 497 b 326 261 322 375 326 317 l 326 0 l 99 0 l 99 903 z m 432 -56 b 574 -93 500 -61 547 -74 b 613 -176 600 -112 613 -140 b 592 -240 613 -201 606 -222 b 533 -286 576 -258 557 -274 b 450 -315 510 -299 482 -308 b 350 -328 418 -322 385 -326 l 333 -236 b 413 -222 365 -233 392 -229 b 443 -189 433 -215 443 -204 b 431 -161 443 -178 439 -168 b 386 -142 422 -154 407 -147 l 431 -58 l 431 -58 z "},"Ṅ":{"ha":933,"x_min":0,"x_max":0,"o":"m 100 903 l 344 903 l 544 500 l 631 297 l 636 297 b 626 376 633 321 631 347 b 617 465 622 406 619 435 b 608 556 614 494 611 525 b 604 642 606 585 604 614 l 604 903 l 832 903 l 832 0 l 588 0 l 388 404 l 301 606 l 296 606 b 315 436 301 554 308 497 b 326 261 322 375 326 317 l 326 0 l 99 0 l 99 903 z m 465 967 b 369 1000 426 967 394 978 b 332 1086 344 1022 332 1051 b 369 1172 332 1121 344 1150 b 465 1206 394 1194 426 1206 b 561 1172 504 1206 536 1194 b 599 1086 586 1150 599 1121 b 561 1000 599 1051 586 1022 b 465 967 536 978 504 967 z "},"Ṇ":{"ha":933,"x_min":0,"x_max":0,"o":"m 100 903 l 344 903 l 544 500 l 631 297 l 636 297 b 626 376 633 321 631 347 b 617 465 622 406 619 435 b 608 556 614 494 611 525 b 604 642 606 585 604 614 l 604 903 l 832 903 l 832 0 l 588 0 l 388 404 l 301 606 l 296 606 b 315 436 301 554 308 497 b 326 261 322 375 326 317 l 326 0 l 99 0 l 99 903 z m 485 -325 b 393 -292 447 -325 417 -314 b 357 -206 369 -269 357 -240 b 393 -119 357 -171 369 -142 b 485 -86 417 -97 447 -86 b 576 -119 522 -86 553 -97 b 611 -206 600 -142 611 -171 b 576 -292 611 -240 600 -269 b 485 -325 553 -314 522 -325 z "},"Ṉ":{"ha":933,"x_min":0,"x_max":0,"o":"m 100 903 l 344 903 l 544 500 l 631 297 l 636 297 b 626 376 633 321 631 347 b 617 465 622 406 619 435 b 608 556 614 494 611 525 b 604 642 606 585 604 614 l 604 903 l 832 903 l 832 0 l 588 0 l 388 404 l 301 606 l 296 606 b 315 436 301 554 308 497 b 326 261 322 375 326 317 l 326 0 l 99 0 l 99 903 z m 685 -272 l 285 -272 l 285 -122 l 685 -122 l 685 -272 z "},"Ò":{"ha":961,"x_min":0,"x_max":0,"o":"m 481 -17 b 310 15 418 -17 361 -6 b 178 107 258 36 214 67 b 90 256 140 147 111 197 b 60 454 69 314 60 381 b 90 653 60 528 69 594 b 176 797 111 710 140 758 b 308 886 213 836 257 865 b 479 917 360 907 417 917 b 650 886 542 917 599 907 b 782 794 701 865 746 835 b 867 649 818 754 846 706 b 897 453 888 592 897 526 b 867 254 897 379 888 313 b 782 104 846 194 818 144 b 649 13 744 64 700 33 b 478 -19 597 -8 540 -19 z m 478 186 b 606 257 532 186 575 210 b 651 451 636 304 651 369 b 606 642 651 533 636 597 b 476 708 574 686 531 708 b 349 642 422 708 379 686 b 301 450 317 596 301 532 b 347 256 301 368 317 303 b 475 183 378 207 421 183 z m 233 1139 l 483 1139 l 592 967 l 403 967 l 233 1139 z "},"Ó":{"ha":961,"x_min":0,"x_max":0,"o":"m 481 -17 b 310 15 418 -17 361 -6 b 178 107 258 36 214 67 b 90 256 140 147 111 197 b 60 454 69 314 60 381 b 90 653 60 528 69 594 b 176 797 111 710 140 758 b 308 886 213 836 257 865 b 479 917 360 907 417 917 b 650 886 542 917 599 907 b 782 794 701 865 746 835 b 867 649 818 754 846 706 b 897 453 888 592 897 526 b 867 254 897 379 888 313 b 782 104 846 194 818 144 b 649 13 744 64 700 33 b 478 -19 597 -8 540 -19 z m 478 186 b 606 257 532 186 575 210 b 651 451 636 304 651 369 b 606 642 651 533 636 597 b 476 708 574 686 531 708 b 349 642 422 708 379 686 b 301 450 317 596 301 532 b 347 256 301 368 317 303 b 475 183 378 207 421 183 z m 547 967 l 358 967 l 467 1139 l 717 1139 l 547 967 z "},"Ô":{"ha":961,"x_min":0,"x_max":0,"o":"m 481 -17 b 310 15 418 -17 361 -6 b 178 107 258 36 214 67 b 90 256 140 147 111 197 b 60 454 69 314 60 381 b 90 653 60 528 69 594 b 176 797 111 710 140 758 b 308 886 213 836 257 865 b 479 917 360 907 417 917 b 650 886 542 917 599 907 b 782 794 701 865 746 835 b 867 649 818 754 846 706 b 897 453 888 592 897 526 b 867 254 897 379 888 313 b 782 104 846 194 818 144 b 649 13 744 64 700 33 b 478 -19 597 -8 540 -19 z m 478 186 b 606 257 532 186 575 210 b 651 451 636 304 651 369 b 606 642 651 533 636 597 b 476 708 574 686 531 708 b 349 642 422 708 379 686 b 301 450 317 596 301 532 b 347 256 301 368 317 303 b 475 183 378 207 421 183 z m 225 967 l 358 1139 l 592 1139 l 725 967 l 544 967 l 478 1047 l 472 1047 l 406 967 l 225 967 z "},"Õ":{"ha":961,"x_min":0,"x_max":0,"o":"m 481 -17 b 310 15 418 -17 361 -6 b 178 107 258 36 214 67 b 90 256 140 147 111 197 b 60 454 69 314 60 381 b 90 653 60 528 69 594 b 176 797 111 710 140 758 b 308 886 213 836 257 865 b 479 917 360 907 417 917 b 650 886 542 917 599 907 b 782 794 701 865 746 835 b 867 649 818 754 846 706 b 897 453 888 592 897 526 b 867 254 897 379 888 313 b 782 104 846 194 818 144 b 649 13 744 64 700 33 b 478 -19 597 -8 540 -19 z m 478 186 b 606 257 532 186 575 210 b 651 451 636 304 651 369 b 606 642 651 533 636 597 b 476 708 574 686 531 708 b 349 642 422 708 379 686 b 301 450 317 596 301 532 b 347 256 301 368 317 303 b 475 183 378 207 421 183 z m 564 967 b 513 975 546 967 529 969 b 467 994 496 981 481 988 b 429 1014 453 1001 440 1008 b 396 1022 417 1019 406 1022 b 365 1010 385 1022 375 1018 b 343 964 356 1001 349 986 l 224 964 b 282 1118 232 1035 251 1086 b 385 1167 313 1150 347 1167 b 438 1158 403 1167 421 1164 b 482 1138 453 1151 468 1144 b 519 1118 496 1131 508 1124 b 551 1108 531 1111 542 1108 b 582 1121 563 1108 572 1113 b 604 1167 592 1129 599 1144 l 724 1167 b 703 1076 719 1132 713 1101 b 667 1013 693 1050 681 1029 b 617 975 651 996 635 983 b 563 963 599 967 581 963 z "},"Ö":{"ha":961,"x_min":0,"x_max":0,"o":"m 481 -17 b 310 15 418 -17 361 -6 b 178 107 258 36 214 67 b 90 256 140 147 111 197 b 60 454 69 314 60 381 b 90 653 60 528 69 594 b 176 797 111 710 140 758 b 308 886 213 836 257 865 b 479 917 360 907 417 917 b 650 886 542 917 599 907 b 782 794 701 865 746 835 b 867 649 818 754 846 706 b 897 453 888 592 897 526 b 867 254 897 379 888 313 b 782 104 846 194 818 144 b 649 13 744 64 700 33 b 478 -19 597 -8 540 -19 z m 478 186 b 606 257 532 186 575 210 b 651 451 636 304 651 369 b 606 642 651 533 636 597 b 476 708 574 686 531 708 b 349 642 422 708 379 686 b 301 450 317 596 301 532 b 347 256 301 368 317 303 b 475 183 378 207 421 183 z m 331 958 b 253 990 299 958 272 969 b 222 1067 232 1011 222 1036 b 251 1144 222 1097 232 1124 b 329 1175 271 1165 297 1175 b 407 1144 361 1175 388 1165 b 436 1067 426 1124 436 1097 b 407 990 436 1036 426 1011 b 328 958 386 969 360 958 z m 617 958 b 539 990 585 958 558 969 b 508 1067 518 1011 508 1036 b 538 1144 508 1097 518 1124 b 615 1175 557 1165 583 1175 b 693 1144 647 1175 674 1165 b 722 1067 713 1124 722 1097 b 693 990 722 1036 713 1011 b 614 958 672 969 646 958 z "},"Ō":{"ha":961,"x_min":0,"x_max":0,"o":"m 481 -17 b 310 15 418 -17 361 -6 b 178 107 258 36 214 67 b 90 256 140 147 111 197 b 60 454 69 314 60 381 b 90 653 60 528 69 594 b 176 797 111 710 140 758 b 308 886 213 836 257 865 b 479 917 360 907 417 917 b 650 886 542 917 599 907 b 782 794 701 865 746 835 b 867 649 818 754 846 706 b 897 453 888 592 897 526 b 867 254 897 379 888 313 b 782 104 846 194 818 144 b 649 13 744 64 700 33 b 478 -19 597 -8 540 -19 z m 478 186 b 606 257 532 186 575 210 b 651 451 636 304 651 369 b 606 642 651 533 636 597 b 476 708 574 686 531 708 b 349 642 422 708 379 686 b 301 450 317 596 301 532 b 347 256 301 368 317 303 b 475 183 378 207 421 183 z m 269 1139 l 681 1139 l 681 989 l 269 989 l 269 1139 z "},"Ő":{"ha":961,"x_min":0,"x_max":0,"o":"m 481 -17 b 310 15 418 -17 361 -6 b 178 107 258 36 214 67 b 90 256 140 147 111 197 b 60 454 69 314 60 381 b 90 653 60 528 69 594 b 176 797 111 710 140 758 b 308 886 213 836 257 865 b 479 917 360 907 417 917 b 650 886 542 917 599 907 b 782 794 701 865 746 835 b 867 649 818 754 846 706 b 897 453 888 592 897 526 b 867 254 897 379 888 313 b 782 104 846 194 818 144 b 649 13 744 64 700 33 b 478 -19 597 -8 540 -19 z m 478 186 b 606 257 532 186 575 210 b 651 451 636 304 651 369 b 606 642 651 533 636 597 b 476 708 574 686 531 708 b 349 642 422 708 379 686 b 301 450 317 596 301 532 b 347 256 301 368 317 303 b 475 183 378 207 421 183 z m 269 967 l 356 1139 l 556 1139 l 428 967 l 269 967 z m 617 1139 l 817 1139 l 689 967 l 531 967 l 617 1139 z "},"Ǒ":{"ha":961,"x_min":0,"x_max":0,"o":"m 481 -17 b 310 15 418 -17 361 -6 b 178 107 258 36 214 67 b 90 256 140 147 111 197 b 60 454 69 314 60 381 b 90 653 60 528 69 594 b 176 797 111 710 140 758 b 308 886 213 836 257 865 b 479 917 360 907 417 917 b 650 886 542 917 599 907 b 782 794 701 865 746 835 b 867 649 818 754 846 706 b 897 453 888 592 897 526 b 867 254 897 379 888 313 b 782 104 846 194 818 144 b 649 13 744 64 700 33 b 478 -19 597 -8 540 -19 z m 478 186 b 606 257 532 186 575 210 b 651 451 636 304 651 369 b 606 642 651 533 636 597 b 476 708 574 686 531 708 b 349 642 422 708 379 686 b 301 450 317 596 301 532 b 347 256 301 368 317 303 b 475 183 378 207 421 183 z m 725 1139 l 592 967 l 358 967 l 225 1139 l 406 1139 l 472 1058 l 478 1058 l 544 1139 l 725 1139 z "},"Ọ":{"ha":961,"x_min":0,"x_max":0,"o":"m 481 -17 b 310 15 418 -17 361 -6 b 178 107 258 36 214 67 b 90 256 140 147 111 197 b 60 454 69 314 60 381 b 90 653 60 528 69 594 b 176 797 111 710 140 758 b 308 886 213 836 257 865 b 479 917 360 907 417 917 b 650 886 542 917 599 907 b 782 794 701 865 746 835 b 867 649 818 754 846 706 b 897 453 888 592 897 526 b 867 254 897 379 888 313 b 782 104 846 194 818 144 b 649 13 744 64 700 33 b 478 -19 597 -8 540 -19 z m 478 186 b 606 257 532 186 575 210 b 651 451 636 304 651 369 b 606 642 651 533 636 597 b 476 708 574 686 531 708 b 349 642 422 708 379 686 b 301 450 317 596 301 532 b 347 256 301 368 317 303 b 475 183 378 207 421 183 z m 475 -331 b 383 -297 438 -331 407 -319 b 347 -211 360 -275 347 -246 b 383 -125 347 -176 360 -147 b 475 -92 407 -103 438 -92 b 567 -125 513 -92 543 -103 b 601 -211 590 -147 601 -176 b 567 -297 601 -246 590 -275 b 475 -331 543 -319 513 -331 z "},"Ỏ":{"ha":961,"x_min":0,"x_max":0,"o":"m 481 -17 b 310 15 418 -17 361 -6 b 178 107 258 36 214 67 b 90 256 140 147 111 197 b 60 454 69 314 60 381 b 90 653 60 528 69 594 b 176 797 111 710 140 758 b 308 886 213 836 257 865 b 479 917 360 907 417 917 b 650 886 542 917 599 907 b 782 794 701 865 746 835 b 867 649 818 754 846 706 b 897 453 888 592 897 526 b 867 254 897 379 888 313 b 782 104 846 194 818 144 b 649 13 744 64 700 33 b 478 -19 597 -8 540 -19 z m 478 186 b 606 257 532 186 575 210 b 651 451 636 304 651 369 b 606 642 651 533 636 597 b 476 708 574 686 531 708 b 349 642 422 708 379 686 b 301 450 317 596 301 532 b 347 256 301 368 317 303 b 475 183 378 207 421 183 z m 406 1042 b 446 1050 421 1043 435 1046 b 461 1074 456 1054 461 1063 b 438 1101 461 1085 453 1094 b 354 1115 422 1108 394 1113 l 382 1232 b 503 1219 431 1231 471 1226 b 579 1192 535 1213 560 1203 b 621 1150 599 1179 613 1165 b 632 1100 628 1135 632 1118 b 615 1036 632 1075 626 1054 b 569 990 604 1018 589 1003 b 503 961 550 978 528 968 b 422 949 478 954 451 950 l 406 1040 z "},"Ố":{"ha":961,"x_min":0,"x_max":0,"o":"m 481 -17 b 310 15 418 -17 361 -6 b 178 107 258 36 214 67 b 90 256 140 147 111 197 b 60 454 69 314 60 381 b 90 653 60 528 69 594 b 176 797 111 710 140 758 b 308 886 213 836 257 865 b 479 917 360 907 417 917 b 650 886 542 917 599 907 b 782 794 701 865 746 835 b 867 649 818 754 846 706 b 897 453 888 592 897 526 b 867 254 897 379 888 313 b 782 104 846 194 818 144 b 649 13 744 64 700 33 b 478 -19 597 -8 540 -19 z m 478 186 b 606 257 532 186 575 210 b 651 451 636 304 651 369 b 606 642 651 533 636 597 b 476 708 574 686 531 708 b 349 642 422 708 379 686 b 301 450 317 596 301 532 b 347 256 301 368 317 303 b 475 183 378 207 421 183 z m 738 1236 l 918 1236 l 776 1064 l 643 1064 l 738 1236 z m 372 1131 l 578 1131 l 711 967 l 544 967 l 478 1039 l 472 1039 l 406 967 l 239 967 l 372 1131 z "},"Ồ":{"ha":961,"x_min":0,"x_max":0,"o":"m 481 -17 b 310 15 418 -17 361 -6 b 178 107 258 36 214 67 b 90 256 140 147 111 197 b 60 454 69 314 60 381 b 90 653 60 528 69 594 b 176 797 111 710 140 758 b 308 886 213 836 257 865 b 479 917 360 907 417 917 b 650 886 542 917 599 907 b 782 794 701 865 746 835 b 867 649 818 754 846 706 b 897 453 888 592 897 526 b 867 254 897 379 888 313 b 782 104 846 194 818 144 b 649 13 744 64 700 33 b 478 -19 597 -8 540 -19 z m 478 186 b 606 257 532 186 575 210 b 651 451 636 304 651 369 b 606 642 651 533 636 597 b 476 708 574 686 531 708 b 349 642 422 708 379 686 b 301 450 317 596 301 532 b 347 256 301 368 317 303 b 475 183 378 207 421 183 z m 835 1064 l 701 1064 l 560 1236 l 740 1236 l 835 1064 z m 372 1131 l 578 1131 l 711 967 l 544 967 l 478 1039 l 472 1039 l 406 967 l 239 967 l 372 1131 z "},"Ổ":{"ha":961,"x_min":0,"x_max":0,"o":"m 481 -17 b 310 15 418 -17 361 -6 b 178 107 258 36 214 67 b 90 256 140 147 111 197 b 60 454 69 314 60 381 b 90 653 60 528 69 594 b 176 797 111 710 140 758 b 308 886 213 836 257 865 b 479 917 360 907 417 917 b 650 886 542 917 599 907 b 782 794 701 865 746 835 b 867 649 818 754 846 706 b 897 453 888 592 897 526 b 867 254 897 379 888 313 b 782 104 846 194 818 144 b 649 13 744 64 700 33 b 478 -19 597 -8 540 -19 z m 478 186 b 606 257 532 186 575 210 b 651 451 636 304 651 369 b 606 642 651 533 636 597 b 476 708 574 686 531 708 b 349 642 422 708 379 686 b 301 450 317 596 301 532 b 347 256 301 368 317 303 b 475 183 378 207 421 183 z m 661 1106 b 689 1114 672 1107 682 1110 b 700 1138 696 1118 700 1126 b 682 1165 700 1149 694 1158 b 611 1179 669 1172 646 1176 l 633 1274 b 739 1261 676 1272 711 1268 b 806 1236 767 1254 789 1246 b 840 1200 822 1226 833 1214 b 850 1157 847 1186 850 1172 b 800 1065 850 1114 833 1083 b 676 1033 767 1047 725 1036 l 660 1106 z m 371 1131 l 576 1131 l 710 967 l 543 967 l 476 1039 l 471 1039 l 404 967 l 238 967 l 371 1131 z "},"Ỗ":{"ha":961,"x_min":0,"x_max":0,"o":"m 481 -17 b 310 15 418 -17 361 -6 b 178 107 258 36 214 67 b 90 256 140 147 111 197 b 60 454 69 314 60 381 b 90 653 60 528 69 594 b 176 797 111 710 140 758 b 308 886 213 836 257 865 b 479 917 360 907 417 917 b 650 886 542 917 599 907 b 782 794 701 865 746 835 b 867 649 818 754 846 706 b 897 453 888 592 897 526 b 867 254 897 379 888 313 b 782 104 846 194 818 144 b 649 13 744 64 700 33 b 478 -19 597 -8 540 -19 z m 478 186 b 606 257 532 186 575 210 b 651 451 636 304 651 369 b 606 642 651 533 636 597 b 476 708 574 686 531 708 b 349 642 422 708 379 686 b 301 450 317 596 301 532 b 347 256 301 368 317 303 b 475 183 378 207 421 183 z m 372 1131 l 578 1131 l 711 967 l 544 967 l 478 1039 l 472 1039 l 406 967 l 239 967 l 372 1131 z m 258 1181 b 308 1311 265 1242 282 1285 b 393 1350 335 1338 363 1350 b 439 1342 410 1350 425 1347 b 476 1324 453 1336 465 1331 b 508 1306 488 1317 499 1311 b 538 1297 518 1300 528 1297 b 567 1308 549 1297 558 1301 b 586 1346 575 1315 582 1328 l 689 1346 b 639 1215 682 1285 665 1242 b 553 1176 613 1189 583 1176 b 507 1185 536 1176 521 1179 b 468 1201 493 1189 481 1194 b 435 1219 456 1208 444 1214 b 406 1226 425 1224 415 1226 b 376 1215 394 1226 385 1222 b 357 1178 368 1208 361 1196 l 254 1178 z "},"Ộ":{"ha":961,"x_min":0,"x_max":0,"o":"m 481 -17 b 310 15 418 -17 361 -6 b 178 107 258 36 214 67 b 90 256 140 147 111 197 b 60 454 69 314 60 381 b 90 653 60 528 69 594 b 176 797 111 710 140 758 b 308 886 213 836 257 865 b 479 917 360 907 417 917 b 650 886 542 917 599 907 b 782 794 701 865 746 835 b 867 649 818 754 846 706 b 897 453 888 592 897 526 b 867 254 897 379 888 313 b 782 104 846 194 818 144 b 649 13 744 64 700 33 b 478 -19 597 -8 540 -19 z m 478 186 b 606 257 532 186 575 210 b 651 451 636 304 651 369 b 606 642 651 533 636 597 b 476 708 574 686 531 708 b 349 642 422 708 379 686 b 301 450 317 596 301 532 b 347 256 301 368 317 303 b 475 183 378 207 421 183 z m 225 967 l 358 1139 l 592 1139 l 725 967 l 544 967 l 478 1047 l 472 1047 l 406 967 l 225 967 z m 475 -331 b 383 -297 438 -331 407 -319 b 347 -211 360 -275 347 -246 b 383 -125 347 -176 360 -147 b 475 -92 407 -103 438 -92 b 567 -125 513 -92 543 -103 b 601 -211 590 -147 601 -176 b 567 -297 601 -246 590 -275 b 475 -331 543 -319 513 -331 z "},"Ø":{"ha":961,"x_min":0,"x_max":0,"o":"m 399 213 b 481 189 422 197 450 189 b 608 260 535 189 578 213 b 654 454 639 307 654 372 b 650 519 654 478 653 500 l 397 211 z m 579 676 b 479 713 550 700 517 713 b 351 646 425 713 382 690 b 304 454 319 600 304 536 b 314 353 304 415 307 382 l 579 676 z m 828 738 b 882 611 851 700 869 658 b 900 454 894 564 900 511 b 869 256 900 381 890 314 b 785 106 849 196 821 146 b 651 14 747 65 703 35 b 481 -18 600 -7 543 -18 b 258 40 394 -18 321 1 l 172 -65 l 50 29 l 146 146 b 83 282 119 185 99 231 b 61 454 68 333 61 390 b 92 653 61 528 71 594 b 178 797 113 710 142 758 b 310 886 214 836 258 865 b 481 917 361 907 418 917 b 722 849 574 917 654 894 l 817 964 l 939 869 l 829 736 z "},"Œ":{"ha":1222,"x_min":0,"x_max":0,"o":"m 61 456 b 99 660 61 535 74 603 b 199 799 122 717 156 763 b 349 878 242 835 292 861 b 532 903 406 894 467 903 l 1132 903 l 1132 703 l 804 703 l 804 561 l 1082 561 l 1082 361 l 804 361 l 804 200 l 1146 200 l 1146 0 l 518 0 b 340 26 456 0 396 8 b 194 110 285 44 236 72 b 96 251 153 147 119 194 b 60 456 72 308 60 376 z m 304 456 b 324 322 304 401 311 357 b 375 242 336 288 353 261 b 450 201 396 222 421 208 b 544 190 479 194 511 190 l 564 190 l 564 710 l 544 710 b 450 700 511 710 479 707 b 374 663 421 693 396 681 b 322 585 351 644 335 618 b 303 454 310 551 303 508 z "},"Ơ":{"ha":961,"x_min":0,"x_max":0,"o":"m 481 189 b 608 260 535 189 578 213 b 654 454 639 307 654 372 b 608 644 654 536 639 600 b 479 711 576 689 533 711 b 351 644 425 711 382 689 b 304 453 319 599 304 535 b 350 258 304 371 319 306 b 478 186 381 210 424 186 z m 886 1092 b 917 1042 897 1079 907 1063 b 931 972 926 1021 931 997 b 889 858 931 924 917 886 b 778 797 861 831 824 810 b 865 651 815 757 844 708 b 896 453 886 594 896 528 b 865 254 896 379 886 313 b 781 104 844 194 817 144 b 647 13 743 64 699 33 b 476 -19 596 -8 539 -19 b 306 13 414 -19 357 -8 b 174 104 254 33 210 64 b 86 253 136 144 107 194 b 56 451 65 311 56 378 b 86 650 56 525 65 592 b 172 794 107 707 136 756 b 304 883 208 833 253 863 b 475 914 356 904 413 914 b 675 871 549 914 615 900 b 728 899 697 878 715 888 b 746 953 740 908 746 926 b 738 990 746 967 743 979 b 722 1018 732 1001 726 1011 l 883 1088 z "},"Ớ":{"ha":961,"x_min":0,"x_max":0,"o":"m 481 189 b 608 260 535 189 578 213 b 654 454 639 307 654 372 b 608 644 654 536 639 600 b 479 711 576 689 533 711 b 351 644 425 711 382 689 b 304 453 319 599 304 535 b 350 258 304 371 319 306 b 478 186 381 210 424 186 z m 886 1092 b 917 1042 897 1079 907 1063 b 931 972 926 1021 931 997 b 889 858 931 924 917 886 b 778 797 861 831 824 810 b 865 651 815 757 844 708 b 896 453 886 594 896 528 b 865 254 896 379 886 313 b 781 104 844 194 817 144 b 647 13 743 64 699 33 b 476 -19 596 -8 539 -19 b 306 13 414 -19 357 -8 b 174 104 254 33 210 64 b 86 253 136 144 107 194 b 56 451 65 311 56 378 b 86 650 56 525 65 592 b 172 794 107 707 136 756 b 304 883 208 833 253 863 b 475 914 356 904 413 914 b 675 871 549 914 615 900 b 728 899 697 878 715 888 b 746 953 740 908 746 926 b 738 990 746 967 743 979 b 722 1018 732 1001 726 1011 l 883 1088 z m 547 965 l 358 965 l 467 1138 l 717 1138 l 547 965 z "},"Ờ":{"ha":961,"x_min":0,"x_max":0,"o":"m 481 189 b 608 260 535 189 578 213 b 654 454 639 307 654 372 b 608 644 654 536 639 600 b 479 711 576 689 533 711 b 351 644 425 711 382 689 b 304 453 319 599 304 535 b 350 258 304 371 319 306 b 478 186 381 210 424 186 z m 886 1092 b 917 1042 897 1079 907 1063 b 931 972 926 1021 931 997 b 889 858 931 924 917 886 b 778 797 861 831 824 810 b 865 651 815 757 844 708 b 896 453 886 594 896 528 b 865 254 896 379 886 313 b 781 104 844 194 817 144 b 647 13 743 64 699 33 b 476 -19 596 -8 539 -19 b 306 13 414 -19 357 -8 b 174 104 254 33 210 64 b 86 253 136 144 107 194 b 56 451 65 311 56 378 b 86 650 56 525 65 592 b 172 794 107 707 136 756 b 304 883 208 833 253 863 b 475 914 356 904 413 914 b 675 871 549 914 615 900 b 728 899 697 878 715 888 b 746 953 740 908 746 926 b 738 990 746 967 743 979 b 722 1018 732 1001 726 1011 l 883 1088 z m 233 1138 l 483 1138 l 592 965 l 403 965 l 233 1138 z "},"Ở":{"ha":961,"x_min":0,"x_max":0,"o":"m 481 189 b 608 260 535 189 578 213 b 654 454 639 307 654 372 b 608 644 654 536 639 600 b 479 711 576 689 533 711 b 351 644 425 711 382 689 b 304 453 319 599 304 535 b 350 258 304 371 319 306 b 478 186 381 210 424 186 z m 886 1092 b 917 1042 897 1079 907 1063 b 931 972 926 1021 931 997 b 889 858 931 924 917 886 b 778 797 861 831 824 810 b 865 651 815 757 844 708 b 896 453 886 594 896 528 b 865 254 896 379 886 313 b 781 104 844 194 817 144 b 647 13 743 64 699 33 b 476 -19 596 -8 539 -19 b 306 13 414 -19 357 -8 b 174 104 254 33 210 64 b 86 253 136 144 107 194 b 56 451 65 311 56 378 b 86 650 56 525 65 592 b 172 794 107 707 136 756 b 304 883 208 833 253 863 b 475 914 356 904 413 914 b 675 871 549 914 615 900 b 728 899 697 878 715 888 b 746 953 740 908 746 926 b 738 990 746 967 743 979 b 722 1018 732 1001 726 1011 l 883 1088 z m 406 1040 b 446 1049 421 1042 435 1044 b 461 1072 456 1053 461 1061 b 438 1100 461 1083 453 1093 b 354 1114 422 1107 394 1111 l 382 1231 b 503 1218 431 1229 471 1225 b 579 1190 535 1211 560 1201 b 621 1149 599 1178 613 1164 b 632 1099 628 1133 632 1117 b 615 1035 632 1074 626 1053 b 569 989 604 1017 589 1001 b 503 960 550 976 528 967 b 422 947 478 953 451 949 l 406 1039 z "},"Ỡ":{"ha":961,"x_min":0,"x_max":0,"o":"m 481 189 b 608 260 535 189 578 213 b 654 454 639 307 654 372 b 608 644 654 536 639 600 b 479 711 576 689 533 711 b 351 644 425 711 382 689 b 304 453 319 599 304 535 b 350 258 304 371 319 306 b 478 186 381 210 424 186 z m 886 1092 b 917 1042 897 1079 907 1063 b 931 972 926 1021 931 997 b 889 858 931 924 917 886 b 778 797 861 831 824 810 b 865 651 815 757 844 708 b 896 453 886 594 896 528 b 865 254 896 379 886 313 b 781 104 844 194 817 144 b 647 13 743 64 699 33 b 476 -19 596 -8 539 -19 b 306 13 414 -19 357 -8 b 174 104 254 33 210 64 b 86 253 136 144 107 194 b 56 451 65 311 56 378 b 86 650 56 525 65 592 b 172 794 107 707 136 756 b 304 883 208 833 253 863 b 475 914 356 904 413 914 b 675 871 549 914 615 900 b 728 899 697 878 715 888 b 746 953 740 908 746 926 b 738 990 746 967 743 979 b 722 1018 732 1001 726 1011 l 883 1088 z m 564 965 b 513 974 546 965 529 968 b 467 993 496 979 481 986 b 429 1013 453 1000 440 1007 b 396 1021 417 1018 406 1021 b 365 1008 385 1021 375 1017 b 343 963 356 1000 349 985 l 224 963 b 282 1117 232 1033 251 1085 b 385 1165 313 1149 347 1165 b 438 1157 403 1165 421 1163 b 482 1136 453 1150 468 1143 b 519 1117 496 1129 508 1122 b 551 1107 531 1110 542 1107 b 582 1119 563 1107 572 1111 b 604 1165 592 1128 599 1143 l 724 1165 b 703 1075 719 1131 713 1100 b 667 1011 693 1049 681 1028 b 617 974 651 994 635 982 b 563 961 599 965 581 961 z "},"Ợ":{"ha":961,"x_min":0,"x_max":0,"o":"m 481 189 b 608 260 535 189 578 213 b 654 454 639 307 654 372 b 608 644 654 536 639 600 b 479 711 576 689 533 711 b 351 644 425 711 382 689 b 304 453 319 599 304 535 b 350 258 304 371 319 306 b 478 186 381 210 424 186 z m 886 1092 b 917 1042 897 1079 907 1063 b 931 972 926 1021 931 997 b 889 858 931 924 917 886 b 778 797 861 831 824 810 b 865 651 815 757 844 708 b 896 453 886 594 896 528 b 865 254 896 379 886 313 b 781 104 844 194 817 144 b 647 13 743 64 699 33 b 476 -19 596 -8 539 -19 b 306 13 414 -19 357 -8 b 174 104 254 33 210 64 b 86 253 136 144 107 194 b 56 451 65 311 56 378 b 86 650 56 525 65 592 b 172 794 107 707 136 756 b 304 883 208 833 253 863 b 475 914 356 904 413 914 b 675 871 549 914 615 900 b 728 899 697 878 715 888 b 746 953 740 908 746 926 b 738 990 746 967 743 979 b 722 1018 732 1001 726 1011 l 883 1088 z m 475 -332 b 383 -299 438 -332 407 -321 b 347 -212 360 -276 347 -247 b 383 -126 347 -178 360 -149 b 475 -93 407 -104 438 -93 b 567 -126 513 -93 543 -104 b 601 -212 590 -149 601 -178 b 567 -299 601 -247 590 -276 b 475 -332 543 -321 513 -332 z "},"Ǫ":{"ha":961,"x_min":0,"x_max":0,"o":"m 344 -181 b 374 -82 344 -143 354 -110 b 432 -15 393 -54 413 -32 b 278 29 375 -10 324 6 b 161 125 232 53 193 85 b 86 268 129 165 104 213 b 60 454 68 322 60 385 b 90 653 60 528 69 594 b 176 797 111 710 140 758 b 308 886 213 836 257 865 b 479 917 360 907 417 917 b 650 886 542 917 599 907 b 782 794 701 865 746 835 b 867 649 818 754 846 706 b 897 453 888 592 897 526 b 876 282 897 388 890 331 b 818 154 863 233 843 190 b 726 61 793 118 763 88 b 606 -10 690 35 650 11 b 533 -62 572 -25 549 -43 b 511 -121 518 -83 511 -103 b 528 -157 511 -137 517 -150 b 565 -168 539 -164 551 -168 b 590 -161 574 -168 582 -165 b 613 -149 599 -157 606 -153 l 665 -268 b 592 -306 646 -283 621 -296 b 508 -321 563 -315 535 -321 b 388 -285 461 -321 421 -308 b 338 -185 354 -261 338 -228 z m 474 185 b 601 256 528 185 571 208 b 647 450 632 303 647 368 b 601 640 647 532 632 596 b 472 707 569 685 526 707 b 344 640 418 707 375 685 b 297 449 313 594 297 531 b 343 254 297 367 313 301 b 471 182 374 206 417 182 z "},"Ŕ":{"ha":875,"x_min":0,"x_max":0,"o":"m 339 492 l 425 492 b 569 611 521 492 569 532 b 532 692 569 650 557 676 b 424 714 507 707 471 714 l 338 714 l 338 492 z m 585 0 l 429 303 l 338 303 l 338 0 l 99 0 l 99 903 l 440 903 b 579 889 489 903 535 899 b 694 842 622 879 661 864 b 772 753 726 819 753 790 b 801 611 792 715 801 668 b 763 449 801 546 789 492 b 656 349 736 406 700 372 l 851 -1 l 585 -1 z m 510 971 l 321 971 l 429 1143 l 679 1143 l 510 971 z "},"Ř":{"ha":875,"x_min":0,"x_max":0,"o":"m 339 492 l 425 492 b 569 611 521 492 569 532 b 532 692 569 650 557 676 b 424 714 507 707 471 714 l 338 714 l 338 492 z m 585 0 l 429 303 l 338 303 l 338 0 l 99 0 l 99 903 l 440 903 b 579 889 489 903 535 899 b 694 842 622 879 661 864 b 772 753 726 819 753 790 b 801 611 792 715 801 668 b 763 449 801 546 789 492 b 656 349 736 406 700 372 l 851 -1 l 585 -1 z m 688 1143 l 554 971 l 321 971 l 188 1143 l 368 1143 l 435 1063 l 440 1063 l 507 1143 l 688 1143 z "},"Ŗ":{"ha":875,"x_min":0,"x_max":0,"o":"m 339 492 l 425 492 b 569 611 521 492 569 532 b 532 692 569 650 557 676 b 424 714 507 707 471 714 l 338 714 l 338 492 z m 585 0 l 429 303 l 338 303 l 338 0 l 99 0 l 99 903 l 440 903 b 579 889 489 903 535 899 b 694 842 622 879 661 864 b 772 753 726 819 753 790 b 801 611 792 715 801 668 b 763 449 801 546 789 492 b 656 349 736 406 700 372 l 851 -1 l 585 -1 z m 410 -57 b 551 -94 478 -62 525 -75 b 590 -178 578 -114 590 -142 b 569 -242 590 -203 583 -224 b 511 -287 554 -260 535 -275 b 428 -317 488 -300 460 -310 b 328 -329 396 -324 363 -328 l 311 -237 b 390 -224 343 -235 369 -231 b 421 -190 411 -217 421 -206 b 408 -162 421 -179 417 -169 b 364 -143 400 -156 385 -149 l 408 -60 l 408 -60 z "},"Ṛ":{"ha":875,"x_min":0,"x_max":0,"o":"m 339 492 l 425 492 b 569 611 521 492 569 532 b 532 692 569 650 557 676 b 424 714 507 707 471 714 l 338 714 l 338 492 z m 585 0 l 429 303 l 338 303 l 338 0 l 99 0 l 99 903 l 440 903 b 579 889 489 903 535 899 b 694 842 622 879 661 864 b 772 753 726 819 753 790 b 801 611 792 715 801 668 b 763 449 801 546 789 492 b 656 349 736 406 700 372 l 851 -1 l 585 -1 z m 463 -326 b 371 -293 425 -326 394 -315 b 335 -207 347 -271 335 -242 b 371 -121 335 -172 347 -143 b 463 -87 394 -99 425 -87 b 554 -121 500 -87 531 -99 b 589 -207 578 -143 589 -172 b 554 -293 589 -242 578 -271 b 463 -326 531 -315 500 -326 z "},"Ṝ":{"ha":875,"x_min":0,"x_max":0,"o":"m 339 492 l 425 492 b 569 611 521 492 569 532 b 532 692 569 650 557 676 b 424 714 507 707 471 714 l 338 714 l 338 492 z m 585 0 l 429 303 l 338 303 l 338 0 l 99 0 l 99 903 l 440 903 b 579 889 489 903 535 899 b 694 842 622 879 661 864 b 772 753 726 819 753 790 b 801 611 792 715 801 668 b 763 449 801 546 789 492 b 656 349 736 406 700 372 l 851 -1 l 585 -1 z m 232 1143 l 643 1143 l 643 993 l 232 993 l 232 1143 z m 463 -326 b 371 -293 425 -326 394 -315 b 335 -207 347 -271 335 -242 b 371 -121 335 -172 347 -143 b 463 -87 394 -99 425 -87 b 554 -121 500 -87 531 -99 b 589 -207 578 -143 589 -172 b 554 -293 589 -242 578 -271 b 463 -326 531 -315 500 -326 z "},"Ṟ":{"ha":875,"x_min":0,"x_max":0,"o":"m 339 492 l 425 492 b 569 611 521 492 569 532 b 532 692 569 650 557 676 b 424 714 507 707 471 714 l 338 714 l 338 492 z m 585 0 l 429 303 l 338 303 l 338 0 l 99 0 l 99 903 l 440 903 b 579 889 489 903 535 899 b 694 842 622 879 661 864 b 772 753 726 819 753 790 b 801 611 792 715 801 668 b 763 449 801 546 789 492 b 656 349 736 406 700 372 l 851 -1 l 585 -1 z m 663 -274 l 263 -274 l 263 -124 l 663 -124 l 663 -274 z "},"Ś":{"ha":783,"x_min":0,"x_max":0,"o":"m 181 276 b 285 213 213 250 247 229 b 390 188 322 196 357 188 b 469 204 426 188 453 193 b 493 251 485 215 493 231 b 485 279 493 263 490 272 b 460 300 479 286 471 293 b 421 319 449 307 436 314 b 369 339 406 325 389 332 l 257 386 b 188 424 233 396 210 408 b 129 478 165 439 146 457 b 90 549 113 499 100 522 b 75 636 81 575 75 604 b 100 744 75 675 83 711 b 169 832 117 778 140 807 b 276 892 199 857 235 876 b 410 914 317 907 361 914 b 567 885 461 914 514 904 b 708 793 619 865 667 835 l 589 643 b 501 692 558 664 529 681 b 408 708 472 703 442 708 b 339 693 379 708 356 703 b 314 647 322 683 314 668 b 350 599 314 626 326 610 b 447 557 374 586 406 572 l 557 514 b 688 421 614 492 657 461 b 733 267 718 381 733 329 b 710 158 733 229 725 193 b 642 67 694 124 672 93 b 531 4 611 40 574 19 b 381 -19 488 -11 438 -19 b 204 13 324 -19 265 -8 b 39 110 143 33 88 65 l 175 274 z m 478 969 l 289 969 l 397 1142 l 647 1142 l 478 969 z "},"Ŝ":{"ha":783,"x_min":0,"x_max":0,"o":"m 181 276 b 285 213 213 250 247 229 b 390 188 322 196 357 188 b 469 204 426 188 453 193 b 493 251 485 215 493 231 b 485 279 493 263 490 272 b 460 300 479 286 471 293 b 421 319 449 307 436 314 b 369 339 406 325 389 332 l 257 386 b 188 424 233 396 210 408 b 129 478 165 439 146 457 b 90 549 113 499 100 522 b 75 636 81 575 75 604 b 100 744 75 675 83 711 b 169 832 117 778 140 807 b 276 892 199 857 235 876 b 410 914 317 907 361 914 b 567 885 461 914 514 904 b 708 793 619 865 667 835 l 589 643 b 501 692 558 664 529 681 b 408 708 472 703 442 708 b 339 693 379 708 356 703 b 314 647 322 683 314 668 b 350 599 314 626 326 610 b 447 557 374 586 406 572 l 557 514 b 688 421 614 492 657 461 b 733 267 718 381 733 329 b 710 158 733 229 725 193 b 642 67 694 124 672 93 b 531 4 611 40 574 19 b 381 -19 488 -11 438 -19 b 204 13 324 -19 265 -8 b 39 110 143 33 88 65 l 175 274 z m 156 969 l 289 1142 l 522 1142 l 656 969 l 475 969 l 408 1050 l 403 1050 l 336 969 l 156 969 z "},"Š":{"ha":783,"x_min":0,"x_max":0,"o":"m 181 276 b 285 213 213 250 247 229 b 390 188 322 196 357 188 b 469 204 426 188 453 193 b 493 251 485 215 493 231 b 485 279 493 263 490 272 b 460 300 479 286 471 293 b 421 319 449 307 436 314 b 369 339 406 325 389 332 l 257 386 b 188 424 233 396 210 408 b 129 478 165 439 146 457 b 90 549 113 499 100 522 b 75 636 81 575 75 604 b 100 744 75 675 83 711 b 169 832 117 778 140 807 b 276 892 199 857 235 876 b 410 914 317 907 361 914 b 567 885 461 914 514 904 b 708 793 619 865 667 835 l 589 643 b 501 692 558 664 529 681 b 408 708 472 703 442 708 b 339 693 379 708 356 703 b 314 647 322 683 314 668 b 350 599 314 626 326 610 b 447 557 374 586 406 572 l 557 514 b 688 421 614 492 657 461 b 733 267 718 381 733 329 b 710 158 733 229 725 193 b 642 67 694 124 672 93 b 531 4 611 40 574 19 b 381 -19 488 -11 438 -19 b 204 13 324 -19 265 -8 b 39 110 143 33 88 65 l 175 274 z m 656 1142 l 522 969 l 289 969 l 156 1142 l 336 1142 l 403 1061 l 408 1061 l 475 1142 l 656 1142 z "},"Ş":{"ha":783,"x_min":0,"x_max":0,"o":"m 181 276 b 285 213 213 250 247 229 b 390 188 322 196 357 188 b 469 204 426 188 453 193 b 493 251 485 215 493 231 b 485 279 493 263 490 272 b 460 300 479 286 471 293 b 421 319 449 307 436 314 b 369 339 406 325 389 332 l 257 386 b 188 424 233 396 210 408 b 129 478 165 439 146 457 b 90 549 113 499 100 522 b 75 636 81 575 75 604 b 100 744 75 675 83 711 b 169 832 117 778 140 807 b 276 892 199 857 235 876 b 410 914 317 907 361 914 b 567 885 461 914 514 904 b 708 793 619 865 667 835 l 589 643 b 501 692 558 664 529 681 b 408 708 472 703 442 708 b 339 693 379 708 356 703 b 314 647 322 683 314 668 b 350 599 314 626 326 610 b 447 557 374 586 406 572 l 557 514 b 688 421 614 492 657 461 b 733 267 718 381 733 329 b 710 158 733 229 725 193 b 642 67 694 124 672 93 b 531 4 611 40 574 19 b 381 -19 488 -11 438 -19 b 204 13 324 -19 265 -8 b 39 110 143 33 88 65 l 175 274 z m 322 3 l 458 3 l 433 -58 b 492 -96 457 -67 476 -79 b 514 -165 507 -112 514 -136 b 493 -229 514 -190 507 -211 b 435 -275 478 -247 458 -262 b 351 -304 411 -287 383 -297 b 251 -317 319 -311 286 -315 l 235 -225 b 314 -208 267 -222 293 -217 b 344 -168 335 -200 344 -186 b 331 -139 344 -158 340 -149 b 268 -112 321 -129 300 -121 l 324 -1 z "},"Ș":{"ha":783,"x_min":0,"x_max":0,"o":"m 181 276 b 285 213 213 250 247 229 b 390 188 322 196 357 188 b 469 204 426 188 453 193 b 493 251 485 215 493 231 b 485 279 493 263 490 272 b 460 300 479 286 471 293 b 421 319 449 307 436 314 b 369 339 406 325 389 332 l 257 386 b 188 424 233 396 210 408 b 129 478 165 439 146 457 b 90 549 113 499 100 522 b 75 636 81 575 75 604 b 100 744 75 675 83 711 b 169 832 117 778 140 807 b 276 892 199 857 235 876 b 410 914 317 907 361 914 b 567 885 461 914 514 904 b 708 793 619 865 667 835 l 589 643 b 501 692 558 664 529 681 b 408 708 472 703 442 708 b 339 693 379 708 356 703 b 314 647 322 683 314 668 b 350 599 314 626 326 610 b 447 557 374 586 406 572 l 557 514 b 688 421 614 492 657 461 b 733 267 718 381 733 329 b 710 158 733 229 725 193 b 642 67 694 124 672 93 b 531 4 611 40 574 19 b 381 -19 488 -11 438 -19 b 204 13 324 -19 265 -8 b 39 110 143 33 88 65 l 175 274 z m 333 -58 b 475 -96 401 -64 449 -76 b 514 -179 501 -115 514 -143 b 493 -243 514 -204 507 -225 b 435 -289 478 -261 458 -276 b 351 -318 411 -301 383 -311 b 251 -331 319 -325 286 -329 l 235 -239 b 314 -225 267 -236 293 -232 b 344 -192 335 -218 344 -207 b 332 -164 344 -181 340 -171 b 288 -144 324 -157 308 -150 l 332 -61 l 332 -61 z "},"Ṡ":{"ha":783,"x_min":0,"x_max":0,"o":"m 181 276 b 285 213 213 250 247 229 b 390 188 322 196 357 188 b 469 204 426 188 453 193 b 493 251 485 215 493 231 b 485 279 493 263 490 272 b 460 300 479 286 471 293 b 421 319 449 307 436 314 b 369 339 406 325 389 332 l 257 386 b 188 424 233 396 210 408 b 129 478 165 439 146 457 b 90 549 113 499 100 522 b 75 636 81 575 75 604 b 100 744 75 675 83 711 b 169 832 117 778 140 807 b 276 892 199 857 235 876 b 410 914 317 907 361 914 b 567 885 461 914 514 904 b 708 793 619 865 667 835 l 589 643 b 501 692 558 664 529 681 b 408 708 472 703 442 708 b 339 693 379 708 356 703 b 314 647 322 683 314 668 b 350 599 314 626 326 610 b 447 557 374 586 406 572 l 557 514 b 688 421 614 492 657 461 b 733 267 718 381 733 329 b 710 158 733 229 725 193 b 642 67 694 124 672 93 b 531 4 611 40 574 19 b 381 -19 488 -11 438 -19 b 204 13 324 -19 265 -8 b 39 110 143 33 88 65 l 175 274 z m 406 964 b 310 997 367 964 335 975 b 272 1083 285 1019 272 1049 b 310 1169 272 1118 285 1147 b 406 1203 335 1192 367 1203 b 501 1169 444 1203 476 1192 b 539 1083 526 1147 539 1118 b 501 997 539 1049 526 1019 b 406 964 476 975 444 964 z "},"Ṣ":{"ha":783,"x_min":0,"x_max":0,"o":"m 181 276 b 285 213 213 250 247 229 b 390 188 322 196 357 188 b 469 204 426 188 453 193 b 493 251 485 215 493 231 b 485 279 493 263 490 272 b 460 300 479 286 471 293 b 421 319 449 307 436 314 b 369 339 406 325 389 332 l 257 386 b 188 424 233 396 210 408 b 129 478 165 439 146 457 b 90 549 113 499 100 522 b 75 636 81 575 75 604 b 100 744 75 675 83 711 b 169 832 117 778 140 807 b 276 892 199 857 235 876 b 410 914 317 907 361 914 b 567 885 461 914 514 904 b 708 793 619 865 667 835 l 589 643 b 501 692 558 664 529 681 b 408 708 472 703 442 708 b 339 693 379 708 356 703 b 314 647 322 683 314 668 b 350 599 314 626 326 610 b 447 557 374 586 406 572 l 557 514 b 688 421 614 492 657 461 b 733 267 718 381 733 329 b 710 158 733 229 725 193 b 642 67 694 124 672 93 b 531 4 611 40 574 19 b 381 -19 488 -11 438 -19 b 204 13 324 -19 265 -8 b 39 110 143 33 88 65 l 175 274 z m 386 -328 b 294 -294 349 -328 318 -317 b 258 -208 271 -272 258 -243 b 294 -122 258 -174 271 -144 b 386 -89 318 -100 349 -89 b 478 -122 424 -89 454 -100 b 513 -208 501 -144 513 -174 b 478 -294 513 -243 501 -272 b 386 -328 454 -317 424 -328 z "},"ẞ":{"ha":1000,"x_min":0,"x_max":0,"o":"m 106 564 b 129 701 106 613 114 658 b 200 814 144 744 168 782 b 325 889 232 846 274 871 b 508 917 376 907 438 917 b 642 897 557 917 601 910 b 747 843 682 885 717 867 b 825 757 778 819 804 790 b 871 647 846 724 861 688 l 738 494 b 819 457 767 483 794 471 b 886 406 844 442 867 425 b 932 338 906 386 921 364 b 949 246 943 311 949 281 b 931 142 949 208 943 174 b 876 58 918 110 900 82 b 786 1 853 35 822 15 b 660 -19 750 -12 708 -19 b 501 11 597 -19 544 -10 b 399 78 458 32 424 54 l 521 222 b 579 183 542 203 561 190 b 629 172 597 176 614 172 b 683 193 651 172 669 179 b 704 250 697 207 704 226 b 658 313 704 272 689 293 b 515 360 628 332 581 347 l 500 497 l 636 656 b 588 704 626 674 610 690 b 503 725 565 718 538 725 b 383 675 449 725 408 708 b 344 529 357 642 344 593 l 344 -4 l 106 -4 l 106 560 z "},"Ť":{"ha":783,"x_min":0,"x_max":0,"o":"m 272 703 l 33 703 l 33 903 l 750 903 l 750 703 l 511 703 l 511 0 l 272 0 l 272 703 z m 642 1144 l 508 972 l 275 972 l 142 1144 l 322 1144 l 389 1064 l 394 1064 l 461 1144 l 642 1144 z "},"Ţ":{"ha":783,"x_min":0,"x_max":0,"o":"m 272 703 l 33 703 l 33 903 l 750 903 l 750 703 l 511 703 l 511 0 l 272 0 l 272 703 z m 333 6 l 469 6 l 444 -56 b 503 -93 468 -64 488 -76 b 525 -162 518 -110 525 -133 b 504 -226 525 -187 518 -208 b 446 -272 489 -244 469 -260 b 363 -301 422 -285 394 -294 b 263 -314 331 -308 297 -312 l 246 -222 b 325 -206 278 -219 304 -214 b 356 -165 346 -197 356 -183 b 342 -136 356 -156 351 -146 b 279 -110 332 -126 311 -118 l 335 1 z "},"Ț":{"ha":783,"x_min":0,"x_max":0,"o":"m 272 703 l 33 703 l 33 903 l 750 903 l 750 703 l 511 703 l 511 0 l 272 0 l 272 703 z m 339 -56 b 481 -93 407 -61 454 -74 b 519 -176 507 -112 519 -140 b 499 -240 519 -201 513 -222 b 440 -286 483 -258 464 -274 b 357 -315 417 -299 389 -308 b 257 -328 325 -322 292 -326 l 240 -236 b 319 -222 272 -233 299 -229 b 350 -189 340 -215 350 -204 b 338 -161 350 -178 346 -168 b 293 -142 329 -154 314 -147 l 338 -58 l 338 -58 z "},"Ṭ":{"ha":783,"x_min":0,"x_max":0,"o":"m 272 703 l 33 703 l 33 903 l 750 903 l 750 703 l 511 703 l 511 0 l 272 0 l 272 703 z m 392 -325 b 300 -292 354 -325 324 -314 b 264 -206 276 -269 264 -240 b 300 -119 264 -171 276 -142 b 392 -86 324 -97 354 -86 b 483 -119 429 -86 460 -97 b 518 -206 507 -142 518 -171 b 483 -292 518 -240 507 -269 b 392 -325 460 -314 429 -325 z "},"Ṯ":{"ha":783,"x_min":0,"x_max":0,"o":"m 272 703 l 33 703 l 33 903 l 750 903 l 750 703 l 511 703 l 511 0 l 272 0 l 272 703 z m 592 -272 l 192 -272 l 192 -122 l 592 -122 l 592 -272 z "},"Ù":{"ha":933,"x_min":0,"x_max":0,"o":"m 94 903 l 333 903 l 333 408 b 367 238 333 328 344 271 b 469 188 388 204 422 188 b 574 238 517 188 551 204 b 607 407 596 269 607 326 l 607 901 l 838 901 l 838 435 b 747 93 838 281 807 167 b 468 -18 688 19 594 -18 b 186 93 342 -18 247 19 b 93 435 124 167 93 281 l 93 901 z m 224 1143 l 474 1143 l 582 971 l 393 971 l 224 1143 z "},"Ú":{"ha":933,"x_min":0,"x_max":0,"o":"m 94 903 l 333 903 l 333 408 b 367 238 333 328 344 271 b 469 188 388 204 422 188 b 574 238 517 188 551 204 b 607 407 596 269 607 326 l 607 901 l 838 901 l 838 435 b 747 93 838 281 807 167 b 468 -18 688 19 594 -18 b 186 93 342 -18 247 19 b 93 435 124 167 93 281 l 93 901 z m 538 971 l 349 971 l 457 1143 l 707 1143 l 538 971 z "},"Û":{"ha":933,"x_min":0,"x_max":0,"o":"m 94 903 l 333 903 l 333 408 b 367 238 333 328 344 271 b 469 188 388 204 422 188 b 574 238 517 188 551 204 b 607 407 596 269 607 326 l 607 901 l 838 901 l 838 435 b 747 93 838 281 807 167 b 468 -18 688 19 594 -18 b 186 93 342 -18 247 19 b 93 435 124 167 93 281 l 93 901 z m 215 971 l 349 1143 l 582 1143 l 715 971 l 535 971 l 468 1051 l 463 1051 l 396 971 l 215 971 z "},"Ũ":{"ha":933,"x_min":0,"x_max":0,"o":"m 94 903 l 333 903 l 333 408 b 367 238 333 328 344 271 b 469 188 388 204 422 188 b 574 238 517 188 551 204 b 607 407 596 269 607 326 l 607 901 l 838 901 l 838 435 b 747 93 838 281 807 167 b 468 -18 688 19 594 -18 b 186 93 342 -18 247 19 b 93 435 124 167 93 281 l 93 901 z m 554 971 b 503 979 536 971 519 974 b 457 999 486 985 471 992 b 419 1018 443 1006 431 1013 b 386 1026 407 1024 396 1026 b 356 1014 375 1026 365 1022 b 333 968 346 1006 339 990 l 214 968 b 272 1122 222 1039 242 1090 b 375 1171 303 1154 338 1171 b 428 1163 393 1171 411 1168 b 472 1142 443 1156 458 1149 b 510 1122 486 1135 499 1128 b 542 1113 521 1115 532 1113 b 572 1125 553 1113 563 1117 b 594 1171 582 1133 589 1149 l 714 1171 b 693 1081 710 1136 703 1106 b 657 1017 683 1054 671 1033 b 607 979 642 1000 625 988 b 553 967 589 971 571 967 z "},"Ü":{"ha":933,"x_min":0,"x_max":0,"o":"m 94 903 l 333 903 l 333 408 b 367 238 333 328 344 271 b 469 188 388 204 422 188 b 574 238 517 188 551 204 b 607 407 596 269 607 326 l 607 901 l 838 901 l 838 435 b 747 93 838 281 807 167 b 468 -18 688 19 594 -18 b 186 93 342 -18 247 19 b 93 435 124 167 93 281 l 93 901 z m 321 963 b 243 994 289 963 263 974 b 213 1071 222 1015 213 1040 b 242 1149 213 1101 222 1128 b 319 1179 261 1169 288 1179 b 397 1149 351 1179 378 1169 b 426 1071 417 1128 426 1101 b 397 994 426 1040 417 1015 b 318 963 376 974 350 963 z m 607 963 b 529 994 575 963 549 974 b 499 1071 508 1015 499 1040 b 528 1149 499 1101 508 1128 b 606 1179 547 1169 574 1179 b 683 1149 638 1179 664 1169 b 713 1071 703 1128 713 1101 b 683 994 713 1040 703 1015 b 604 963 663 974 636 963 z "},"Ū":{"ha":933,"x_min":0,"x_max":0,"o":"m 94 903 l 333 903 l 333 408 b 367 238 333 328 344 271 b 469 188 388 204 422 188 b 574 238 517 188 551 204 b 607 407 596 269 607 326 l 607 901 l 838 901 l 838 435 b 747 93 838 281 807 167 b 468 -18 688 19 594 -18 b 186 93 342 -18 247 19 b 93 435 124 167 93 281 l 93 901 z m 260 1143 l 671 1143 l 671 993 l 260 993 l 260 1143 z "},"Ŭ":{"ha":933,"x_min":0,"x_max":0,"o":"m 94 903 l 333 903 l 333 408 b 367 238 333 328 344 271 b 469 188 388 204 422 188 b 574 238 517 188 551 204 b 607 407 596 269 607 326 l 607 901 l 838 901 l 838 435 b 747 93 838 281 807 167 b 468 -18 688 19 594 -18 b 186 93 342 -18 247 19 b 93 435 124 167 93 281 l 93 901 z m 465 971 b 324 1017 403 971 356 986 b 268 1142 292 1046 274 1088 l 396 1142 b 417 1101 400 1125 407 1111 b 463 1086 426 1092 442 1086 b 508 1101 483 1086 499 1092 b 529 1142 518 1111 525 1125 l 657 1142 b 601 1015 651 1088 633 1046 b 460 969 569 985 522 969 z "},"Ů":{"ha":933,"x_min":0,"x_max":0,"o":"m 94 903 l 333 903 l 333 408 b 367 238 333 328 344 271 b 469 188 388 204 422 188 b 574 238 517 188 551 204 b 607 407 596 269 607 326 l 607 901 l 838 901 l 838 435 b 747 93 838 281 807 167 b 468 -18 688 19 594 -18 b 186 93 342 -18 247 19 b 93 435 124 167 93 281 l 93 901 z m 465 965 b 344 1003 415 965 375 978 b 299 1106 314 1028 299 1063 b 344 1208 299 1149 314 1183 b 465 1246 375 1233 415 1246 b 586 1208 515 1246 556 1233 b 632 1104 617 1182 632 1147 b 586 1001 632 1061 617 1026 b 465 963 556 975 515 963 z m 465 1049 b 503 1064 481 1049 493 1054 b 518 1104 513 1074 518 1088 b 503 1144 518 1121 513 1135 b 465 1160 493 1154 481 1160 b 428 1144 450 1160 438 1154 b 413 1104 418 1135 413 1121 b 428 1064 413 1088 418 1074 b 465 1049 438 1054 450 1049 z "},"Ű":{"ha":933,"x_min":0,"x_max":0,"o":"m 94 903 l 333 903 l 333 408 b 367 238 333 328 344 271 b 469 188 388 204 422 188 b 574 238 517 188 551 204 b 607 407 596 269 607 326 l 607 901 l 838 901 l 838 435 b 747 93 838 281 807 167 b 468 -18 688 19 594 -18 b 186 93 342 -18 247 19 b 93 435 124 167 93 281 l 93 901 z m 260 971 l 346 1143 l 546 1143 l 418 971 l 260 971 z m 607 1143 l 807 1143 l 679 971 l 521 971 l 607 1143 z "},"Ǔ":{"ha":933,"x_min":0,"x_max":0,"o":"m 94 903 l 333 903 l 333 408 b 367 238 333 328 344 271 b 469 188 388 204 422 188 b 574 238 517 188 551 204 b 607 407 596 269 607 326 l 607 901 l 838 901 l 838 435 b 747 93 838 281 807 167 b 468 -18 688 19 594 -18 b 186 93 342 -18 247 19 b 93 435 124 167 93 281 l 93 901 z m 715 1143 l 582 971 l 349 971 l 215 1143 l 396 1143 l 463 1063 l 468 1063 l 535 1143 l 715 1143 z "},"Ǖ":{"ha":933,"x_min":0,"x_max":0,"o":"m 94 903 l 333 903 l 333 408 b 367 238 333 328 344 271 b 469 188 388 204 422 188 b 574 238 517 188 551 204 b 607 407 596 269 607 326 l 607 901 l 838 901 l 838 435 b 747 93 838 281 807 167 b 468 -18 688 19 594 -18 b 186 93 342 -18 247 19 b 93 435 124 167 93 281 l 93 901 z m 260 1324 l 671 1324 l 671 1215 l 260 1215 l 260 1324 z m 321 963 b 253 990 293 963 271 972 b 226 1057 235 1008 226 1031 b 253 1124 226 1083 235 1106 b 321 1150 271 1142 293 1150 b 389 1124 349 1150 371 1142 b 415 1057 407 1106 415 1083 b 389 990 415 1031 407 1008 b 321 963 371 972 349 963 z m 610 963 b 542 990 582 963 560 972 b 515 1057 524 1008 515 1031 b 542 1124 515 1083 524 1106 b 610 1150 560 1142 582 1150 b 678 1124 638 1150 660 1142 b 704 1057 696 1106 704 1083 b 678 990 704 1031 696 1008 b 610 963 660 972 638 963 z "},"Ǘ":{"ha":933,"x_min":0,"x_max":0,"o":"m 94 903 l 333 903 l 333 408 b 367 238 333 328 344 271 b 469 188 388 204 422 188 b 574 238 517 188 551 204 b 607 407 596 269 607 326 l 607 901 l 838 901 l 838 435 b 747 93 838 281 807 167 b 468 -18 688 19 594 -18 b 186 93 342 -18 247 19 b 93 435 124 167 93 281 l 93 901 z m 457 1365 l 704 1365 l 538 1193 l 349 1193 l 457 1365 z m 321 963 b 253 990 293 963 271 972 b 226 1057 235 1008 226 1031 b 253 1124 226 1083 235 1106 b 321 1150 271 1142 293 1150 b 389 1124 349 1150 371 1142 b 415 1057 407 1106 415 1083 b 389 990 415 1031 407 1008 b 321 963 371 972 349 963 z m 610 963 b 542 990 582 963 560 972 b 515 1057 524 1008 515 1031 b 542 1124 515 1083 524 1106 b 610 1150 560 1142 582 1150 b 678 1124 638 1150 660 1142 b 704 1057 696 1106 704 1083 b 678 990 704 1031 696 1008 b 610 963 660 972 638 963 z "},"Ǚ":{"ha":933,"x_min":0,"x_max":0,"o":"m 94 903 l 333 903 l 333 408 b 367 238 333 328 344 271 b 469 188 388 204 422 188 b 574 238 517 188 551 204 b 607 407 596 269 607 326 l 607 901 l 838 901 l 838 435 b 747 93 838 281 807 167 b 468 -18 688 19 594 -18 b 186 93 342 -18 247 19 b 93 435 124 167 93 281 l 93 901 z m 321 963 b 253 990 293 963 271 972 b 226 1057 235 1008 226 1031 b 253 1124 226 1083 235 1106 b 321 1150 271 1142 293 1150 b 389 1124 349 1150 371 1142 b 415 1057 407 1106 415 1083 b 389 990 415 1031 407 1008 b 321 963 371 972 349 963 z m 610 963 b 542 990 582 963 560 972 b 515 1057 524 1008 515 1031 b 542 1124 515 1083 524 1106 b 610 1150 560 1142 582 1150 b 678 1124 638 1150 660 1142 b 704 1057 696 1106 704 1083 b 678 990 704 1031 696 1008 b 610 963 660 972 638 963 z m 715 1365 l 582 1193 l 349 1193 l 215 1365 l 396 1365 l 463 1285 l 468 1285 l 535 1365 l 715 1365 z "},"Ǜ":{"ha":933,"x_min":0,"x_max":0,"o":"m 94 903 l 333 903 l 333 408 b 367 238 333 328 344 271 b 469 188 388 204 422 188 b 574 238 517 188 551 204 b 607 407 596 269 607 326 l 607 901 l 838 901 l 838 435 b 747 93 838 281 807 167 b 468 -18 688 19 594 -18 b 186 93 342 -18 247 19 b 93 435 124 167 93 281 l 93 901 z m 582 1193 l 393 1193 l 226 1365 l 474 1365 l 582 1193 z m 610 963 b 542 990 582 963 560 972 b 515 1057 524 1008 515 1031 b 542 1124 515 1083 524 1106 b 610 1150 560 1142 582 1150 b 678 1124 638 1150 660 1142 b 704 1057 696 1106 704 1083 b 678 990 704 1031 696 1008 b 610 963 660 972 638 963 z m 321 963 b 253 990 293 963 271 972 b 226 1057 235 1008 226 1031 b 253 1124 226 1083 235 1106 b 321 1150 271 1142 293 1150 b 389 1124 349 1150 371 1142 b 415 1057 407 1106 415 1083 b 389 990 415 1031 407 1008 b 321 963 371 972 349 963 z "},"Ụ":{"ha":933,"x_min":0,"x_max":0,"o":"m 94 903 l 333 903 l 333 408 b 367 238 333 328 344 271 b 469 188 388 204 422 188 b 574 238 517 188 551 204 b 607 407 596 269 607 326 l 607 901 l 838 901 l 838 435 b 747 93 838 281 807 167 b 468 -18 688 19 594 -18 b 186 93 342 -18 247 19 b 93 435 124 167 93 281 l 93 901 z m 465 -326 b 374 -293 428 -326 397 -315 b 338 -207 350 -271 338 -242 b 374 -121 338 -172 350 -143 b 465 -87 397 -99 428 -87 b 557 -121 503 -87 533 -99 b 592 -207 581 -143 592 -172 b 557 -293 592 -242 581 -271 b 465 -326 533 -315 503 -326 z "},"Ủ":{"ha":933,"x_min":0,"x_max":0,"o":"m 94 903 l 333 903 l 333 408 b 367 238 333 328 344 271 b 469 188 388 204 422 188 b 574 238 517 188 551 204 b 607 407 596 269 607 326 l 607 901 l 838 901 l 838 435 b 747 93 838 281 807 167 b 468 -18 688 19 594 -18 b 186 93 342 -18 247 19 b 93 435 124 167 93 281 l 93 901 z m 396 1046 b 436 1054 411 1047 425 1050 b 451 1078 446 1058 451 1067 b 428 1106 451 1089 443 1099 b 344 1119 413 1113 385 1117 l 372 1236 b 493 1224 421 1235 461 1231 b 569 1196 525 1217 550 1207 b 611 1154 589 1183 603 1169 b 622 1104 618 1139 622 1122 b 606 1040 622 1079 617 1058 b 560 994 594 1022 579 1007 b 493 965 540 982 518 972 b 413 953 468 958 442 954 l 396 1044 z "},"Ų":{"ha":933,"x_min":0,"x_max":0,"o":"m 94 903 l 333 903 l 333 408 b 367 238 333 328 344 271 b 469 188 388 204 422 188 b 574 238 517 188 551 204 b 607 407 596 269 607 326 l 607 901 l 838 901 l 838 435 b 825 268 838 369 833 314 b 782 147 815 222 801 182 b 707 60 763 113 738 83 b 594 -6 676 36 639 14 b 522 -58 560 -21 536 -39 b 500 -117 507 -79 500 -99 b 517 -153 500 -133 506 -146 b 554 -164 528 -160 540 -164 b 579 -157 563 -164 571 -161 b 601 -144 588 -153 594 -149 l 654 -264 b 581 -301 635 -279 610 -292 b 497 -317 551 -311 524 -317 b 376 -281 450 -317 410 -304 b 326 -181 343 -257 326 -224 b 338 -119 326 -158 331 -137 b 363 -71 344 -101 353 -85 b 392 -36 372 -57 382 -46 b 413 -15 401 -26 408 -19 b 168 108 303 -7 221 35 b 88 433 114 182 88 290 l 88 900 z "},"Ư":{"ha":961,"x_min":0,"x_max":0,"o":"m 975 1122 b 1006 1072 986 1110 996 1093 b 1019 1003 1015 1051 1019 1028 b 1006 932 1019 976 1015 953 b 967 878 996 911 983 893 b 908 840 950 863 931 850 b 836 819 886 831 863 824 l 836 438 b 746 96 836 283 806 169 b 467 -15 686 22 593 -15 b 185 96 340 -15 246 22 b 92 438 122 169 92 283 l 92 904 l 331 904 l 331 410 b 364 239 331 329 342 272 b 467 189 385 206 419 189 b 571 239 514 189 549 206 b 604 408 593 271 604 328 l 604 903 l 721 903 b 758 906 733 903 746 904 b 794 917 771 907 783 911 b 822 942 806 922 815 931 b 832 986 829 953 832 968 b 824 1024 832 1000 829 1013 b 808 1051 818 1035 813 1044 l 969 1121 z "},"Ứ":{"ha":961,"x_min":0,"x_max":0,"o":"m 975 1122 b 1006 1072 986 1110 996 1093 b 1019 1003 1015 1051 1019 1028 b 1006 932 1019 976 1015 953 b 967 878 996 911 983 893 b 908 840 950 863 931 850 b 836 819 886 831 863 824 l 836 438 b 746 96 836 283 806 169 b 467 -15 686 22 593 -15 b 185 96 340 -15 246 22 b 92 438 122 169 92 283 l 92 904 l 331 904 l 331 410 b 364 239 331 329 342 272 b 467 189 385 206 419 189 b 571 239 514 189 549 206 b 604 408 593 271 604 328 l 604 903 l 721 903 b 758 906 733 903 746 904 b 794 917 771 907 783 911 b 822 942 806 922 815 931 b 832 986 829 953 832 968 b 824 1024 832 1000 829 1013 b 808 1051 818 1035 813 1044 l 969 1121 z m 533 971 l 344 971 l 453 1143 l 703 1143 l 533 971 z "},"Ừ":{"ha":961,"x_min":0,"x_max":0,"o":"m 975 1122 b 1006 1072 986 1110 996 1093 b 1019 1003 1015 1051 1019 1028 b 1006 932 1019 976 1015 953 b 967 878 996 911 983 893 b 908 840 950 863 931 850 b 836 819 886 831 863 824 l 836 438 b 746 96 836 283 806 169 b 467 -15 686 22 593 -15 b 185 96 340 -15 246 22 b 92 438 122 169 92 283 l 92 904 l 331 904 l 331 410 b 364 239 331 329 342 272 b 467 189 385 206 419 189 b 571 239 514 189 549 206 b 604 408 593 271 604 328 l 604 903 l 721 903 b 758 906 733 903 746 904 b 794 917 771 907 783 911 b 822 942 806 922 815 931 b 832 986 829 953 832 968 b 824 1024 832 1000 829 1013 b 808 1051 818 1035 813 1044 l 969 1121 z m 219 1143 l 469 1143 l 578 971 l 389 971 l 219 1143 z "},"Ử":{"ha":961,"x_min":0,"x_max":0,"o":"m 975 1122 b 1006 1072 986 1110 996 1093 b 1019 1003 1015 1051 1019 1028 b 1006 932 1019 976 1015 953 b 967 878 996 911 983 893 b 908 840 950 863 931 850 b 836 819 886 831 863 824 l 836 438 b 746 96 836 283 806 169 b 467 -15 686 22 593 -15 b 185 96 340 -15 246 22 b 92 438 122 169 92 283 l 92 904 l 331 904 l 331 410 b 364 239 331 329 342 272 b 467 189 385 206 419 189 b 571 239 514 189 549 206 b 604 408 593 271 604 328 l 604 903 l 721 903 b 758 906 733 903 746 904 b 794 917 771 907 783 911 b 822 942 806 922 815 931 b 832 986 829 953 832 968 b 824 1024 832 1000 829 1013 b 808 1051 818 1035 813 1044 l 969 1121 z m 392 1046 b 432 1054 407 1047 421 1050 b 447 1078 442 1058 447 1067 b 424 1106 447 1089 439 1099 b 340 1119 408 1113 381 1117 l 368 1236 b 489 1224 417 1235 457 1231 b 565 1196 521 1217 546 1207 b 607 1154 585 1183 599 1169 b 618 1104 614 1139 618 1122 b 601 1040 618 1079 613 1058 b 556 994 590 1022 575 1007 b 489 965 536 982 514 972 b 408 953 464 958 438 954 l 392 1044 z "},"Ữ":{"ha":961,"x_min":0,"x_max":0,"o":"m 975 1122 b 1006 1072 986 1110 996 1093 b 1019 1003 1015 1051 1019 1028 b 1006 932 1019 976 1015 953 b 967 878 996 911 983 893 b 908 840 950 863 931 850 b 836 819 886 831 863 824 l 836 438 b 746 96 836 283 806 169 b 467 -15 686 22 593 -15 b 185 96 340 -15 246 22 b 92 438 122 169 92 283 l 92 904 l 331 904 l 331 410 b 364 239 331 329 342 272 b 467 189 385 206 419 189 b 571 239 514 189 549 206 b 604 408 593 271 604 328 l 604 903 l 721 903 b 758 906 733 903 746 904 b 794 917 771 907 783 911 b 822 942 806 922 815 931 b 832 986 829 953 832 968 b 824 1024 832 1000 829 1013 b 808 1051 818 1035 813 1044 l 969 1121 z m 550 971 b 499 979 532 971 515 974 b 453 999 482 985 467 992 b 415 1018 439 1006 426 1013 b 382 1026 403 1024 392 1026 b 351 1014 371 1026 361 1022 b 329 968 342 1006 335 990 l 210 968 b 268 1122 218 1039 238 1090 b 371 1171 299 1154 333 1171 b 424 1163 389 1171 407 1168 b 468 1142 439 1156 454 1149 b 506 1122 482 1135 494 1128 b 538 1113 517 1115 528 1113 b 568 1125 549 1113 558 1117 b 590 1171 578 1133 585 1149 l 710 1171 b 689 1081 706 1136 699 1106 b 653 1017 679 1054 667 1033 b 603 979 638 1000 621 988 b 549 967 585 971 567 967 z "},"Ự":{"ha":961,"x_min":0,"x_max":0,"o":"m 975 1122 b 1006 1072 986 1110 996 1093 b 1019 1003 1015 1051 1019 1028 b 1006 932 1019 976 1015 953 b 967 878 996 911 983 893 b 908 840 950 863 931 850 b 836 819 886 831 863 824 l 836 438 b 746 96 836 283 806 169 b 467 -15 686 22 593 -15 b 185 96 340 -15 246 22 b 92 438 122 169 92 283 l 92 904 l 331 904 l 331 410 b 364 239 331 329 342 272 b 467 189 385 206 419 189 b 571 239 514 189 549 206 b 604 408 593 271 604 328 l 604 903 l 721 903 b 758 906 733 903 746 904 b 794 917 771 907 783 911 b 822 942 806 922 815 931 b 832 986 829 953 832 968 b 824 1024 832 1000 829 1013 b 808 1051 818 1035 813 1044 l 969 1121 z m 461 -326 b 369 -293 424 -326 393 -315 b 333 -207 346 -271 333 -242 b 369 -121 333 -172 346 -143 b 461 -87 393 -99 424 -87 b 553 -121 499 -87 529 -99 b 588 -207 576 -143 588 -172 b 553 -293 588 -242 576 -271 b 461 -326 529 -315 499 -326 z "},"Ẁ":{"ha":1144,"x_min":0,"x_max":0,"o":"m 14 903 l 258 903 l 308 508 b 324 367 313 461 318 414 b 339 225 329 319 335 272 l 344 225 b 369 367 353 272 361 319 b 394 508 378 414 386 461 l 481 903 l 681 903 l 767 508 b 792 369 775 463 783 417 b 817 224 800 321 808 272 l 822 224 b 838 367 826 272 832 319 b 853 507 843 414 849 461 l 903 901 l 1131 901 l 981 -1 l 678 -1 l 608 357 b 590 464 601 392 596 428 b 575 568 585 500 579 535 l 569 568 b 556 464 565 535 561 500 b 536 357 550 428 543 392 l 469 -1 l 172 -1 l 14 901 z m 331 1143 l 581 1143 l 689 971 l 500 971 l 331 1143 z "},"Ẃ":{"ha":1144,"x_min":0,"x_max":0,"o":"m 14 903 l 258 903 l 308 508 b 324 367 313 461 318 414 b 339 225 329 319 335 272 l 344 225 b 369 367 353 272 361 319 b 394 508 378 414 386 461 l 481 903 l 681 903 l 767 508 b 792 369 775 463 783 417 b 817 224 800 321 808 272 l 822 224 b 838 367 826 272 832 319 b 853 507 843 414 849 461 l 903 901 l 1131 901 l 981 -1 l 678 -1 l 608 357 b 590 464 601 392 596 428 b 575 568 585 500 579 535 l 569 568 b 556 464 565 535 561 500 b 536 357 550 428 543 392 l 469 -1 l 172 -1 l 14 901 z m 644 971 l 456 971 l 564 1143 l 814 1143 l 644 971 z "},"Ŵ":{"ha":1144,"x_min":0,"x_max":0,"o":"m 14 903 l 258 903 l 308 508 b 324 367 313 461 318 414 b 339 225 329 319 335 272 l 344 225 b 369 367 353 272 361 319 b 394 508 378 414 386 461 l 481 903 l 681 903 l 767 508 b 792 369 775 463 783 417 b 817 224 800 321 808 272 l 822 224 b 838 367 826 272 832 319 b 853 507 843 414 849 461 l 903 901 l 1131 901 l 981 -1 l 678 -1 l 608 357 b 590 464 601 392 596 428 b 575 568 585 500 579 535 l 569 568 b 556 464 565 535 561 500 b 536 357 550 428 543 392 l 469 -1 l 172 -1 l 14 901 z m 322 971 l 456 1143 l 689 1143 l 822 971 l 642 971 l 575 1051 l 569 1051 l 503 971 l 322 971 z "},"Ẅ":{"ha":1144,"x_min":0,"x_max":0,"o":"m 14 903 l 258 903 l 308 508 b 324 367 313 461 318 414 b 339 225 329 319 335 272 l 344 225 b 369 367 353 272 361 319 b 394 508 378 414 386 461 l 481 903 l 681 903 l 767 508 b 792 369 775 463 783 417 b 817 224 800 321 808 272 l 822 224 b 838 367 826 272 832 319 b 853 507 843 414 849 461 l 903 901 l 1131 901 l 981 -1 l 678 -1 l 608 357 b 590 464 601 392 596 428 b 575 568 585 500 579 535 l 569 568 b 556 464 565 535 561 500 b 536 357 550 428 543 392 l 469 -1 l 172 -1 l 14 901 z m 428 963 b 350 994 396 963 369 974 b 319 1071 329 1015 319 1040 b 349 1149 319 1101 329 1128 b 426 1179 368 1169 394 1179 b 504 1149 458 1179 485 1169 b 533 1071 524 1128 533 1101 b 504 994 533 1040 524 1015 b 425 963 483 974 457 963 z m 714 963 b 636 994 682 963 656 974 b 606 1071 615 1015 606 1040 b 635 1149 606 1101 615 1128 b 713 1179 654 1169 681 1179 b 790 1149 744 1179 771 1169 b 819 1071 810 1128 819 1101 b 790 994 819 1040 810 1015 b 711 963 769 974 743 963 z "},"Ỳ":{"ha":756,"x_min":0,"x_max":0,"o":"m 258 311 l -14 903 l 242 903 l 308 714 b 342 614 319 679 331 646 b 376 514 353 582 364 549 l 382 514 b 418 614 394 549 407 582 b 453 714 429 646 440 679 l 519 903 l 769 903 l 497 311 l 497 0 l 258 0 l 258 311 z m 136 1144 l 386 1144 l 494 972 l 306 972 l 136 1144 z "},"Ý":{"ha":756,"x_min":0,"x_max":0,"o":"m 258 311 l -14 903 l 242 903 l 308 714 b 342 614 319 679 331 646 b 376 514 353 582 364 549 l 382 514 b 418 614 394 549 407 582 b 453 714 429 646 440 679 l 519 903 l 769 903 l 497 311 l 497 0 l 258 0 l 258 311 z m 450 972 l 261 972 l 369 1144 l 619 1144 l 450 972 z "},"Ŷ":{"ha":756,"x_min":0,"x_max":0,"o":"m 258 311 l -14 903 l 242 903 l 308 714 b 342 614 319 679 331 646 b 376 514 353 582 364 549 l 382 514 b 418 614 394 549 407 582 b 453 714 429 646 440 679 l 519 903 l 769 903 l 497 311 l 497 0 l 258 0 l 258 311 z m 128 972 l 261 1144 l 494 1144 l 628 972 l 447 972 l 381 1053 l 375 1053 l 308 972 l 128 972 z "},"Ÿ":{"ha":756,"x_min":0,"x_max":0,"o":"m 258 311 l -14 903 l 242 903 l 308 714 b 342 614 319 679 331 646 b 376 514 353 582 364 549 l 382 514 b 418 614 394 549 407 582 b 453 714 429 646 440 679 l 519 903 l 769 903 l 497 311 l 497 0 l 258 0 l 258 311 z m 233 964 b 156 996 201 964 175 975 b 125 1072 135 1017 125 1042 b 154 1150 125 1103 135 1129 b 232 1181 174 1171 200 1181 b 310 1150 264 1181 290 1171 b 339 1072 329 1129 339 1103 b 310 996 339 1042 329 1017 b 231 964 289 975 263 964 z m 519 964 b 442 996 488 964 461 975 b 411 1072 421 1017 411 1042 b 440 1150 411 1103 421 1129 b 518 1181 460 1171 486 1181 b 596 1150 550 1181 576 1171 b 625 1072 615 1129 625 1103 b 596 996 625 1042 615 1017 b 517 964 575 975 549 964 z "},"Ẏ":{"ha":756,"x_min":0,"x_max":0,"o":"m 258 311 l -14 903 l 242 903 l 308 714 b 342 614 319 679 331 646 b 376 514 353 582 364 549 l 382 514 b 418 614 394 549 407 582 b 453 714 429 646 440 679 l 519 903 l 769 903 l 497 311 l 497 0 l 258 0 l 258 311 z m 378 967 b 282 1000 339 967 307 978 b 244 1086 257 1022 244 1051 b 282 1172 244 1121 257 1150 b 378 1206 307 1194 339 1206 b 474 1172 417 1206 449 1194 b 511 1086 499 1150 511 1121 b 474 1000 511 1051 499 1022 b 378 967 449 978 417 967 z "},"Ỵ":{"ha":756,"x_min":0,"x_max":0,"o":"m 258 311 l -14 903 l 242 903 l 308 714 b 342 614 319 679 331 646 b 376 514 353 582 364 549 l 382 514 b 418 614 394 549 407 582 b 453 714 429 646 440 679 l 519 903 l 769 903 l 497 311 l 497 0 l 258 0 l 258 311 z m 381 -325 b 289 -292 343 -325 313 -314 b 253 -206 265 -269 253 -240 b 289 -119 253 -171 265 -142 b 381 -86 313 -97 343 -86 b 472 -119 418 -86 449 -97 b 507 -206 496 -142 507 -171 b 472 -292 507 -240 496 -269 b 381 -325 449 -314 418 -325 z "},"Ỷ":{"ha":756,"x_min":0,"x_max":0,"o":"m 258 311 l -14 903 l 242 903 l 308 714 b 342 614 319 679 331 646 b 376 514 353 582 364 549 l 382 514 b 418 614 394 549 407 582 b 453 714 429 646 440 679 l 519 903 l 769 903 l 497 311 l 497 0 l 258 0 l 258 311 z m 308 1047 b 349 1056 324 1049 338 1051 b 364 1079 358 1060 364 1068 b 340 1107 364 1090 356 1100 b 257 1121 325 1114 297 1118 l 285 1238 b 406 1225 333 1236 374 1232 b 482 1197 438 1218 463 1208 b 524 1156 501 1185 515 1171 b 535 1106 531 1140 535 1124 b 518 1042 535 1081 529 1060 b 472 996 507 1024 492 1008 b 406 967 453 983 431 974 b 325 954 381 960 354 956 l 308 1046 z "},"Ỹ":{"ha":756,"x_min":0,"x_max":0,"o":"m 258 311 l -14 903 l 242 903 l 308 714 b 342 614 319 679 331 646 b 376 514 353 582 364 549 l 382 514 b 418 614 394 549 407 582 b 453 714 429 646 440 679 l 519 903 l 769 903 l 497 311 l 497 0 l 258 0 l 258 311 z m 467 972 b 415 981 449 972 432 975 b 369 1000 399 986 383 993 b 332 1019 356 1007 343 1014 b 299 1028 319 1025 308 1028 b 268 1015 288 1028 278 1024 b 246 969 258 1007 251 992 l 126 969 b 185 1124 135 1040 154 1092 b 288 1172 215 1156 250 1172 b 340 1164 306 1172 324 1169 b 385 1143 356 1157 371 1150 b 422 1124 399 1136 411 1129 b 454 1114 433 1117 444 1114 b 485 1126 465 1114 475 1118 b 507 1172 494 1135 501 1150 l 626 1172 b 606 1082 622 1138 615 1107 b 569 1018 596 1056 583 1035 b 519 981 554 1001 538 989 b 465 968 501 972 483 968 z "},"Ź":{"ha":753,"x_min":0,"x_max":0,"o":"m 44 144 l 414 703 l 81 703 l 81 903 l 708 903 l 708 758 l 339 200 l 711 200 l 711 0 l 44 0 l 44 144 z m 467 972 l 278 972 l 386 1144 l 636 1144 l 467 972 z "},"Ž":{"ha":753,"x_min":0,"x_max":0,"o":"m 44 144 l 414 703 l 81 703 l 81 903 l 708 903 l 708 758 l 339 200 l 711 200 l 711 0 l 44 0 l 44 144 z m 644 1144 l 511 972 l 278 972 l 144 1144 l 325 1144 l 392 1064 l 397 1064 l 464 1144 l 644 1144 z "},"Ż":{"ha":753,"x_min":0,"x_max":0,"o":"m 44 144 l 414 703 l 81 703 l 81 903 l 708 903 l 708 758 l 339 200 l 711 200 l 711 0 l 44 0 l 44 144 z m 394 967 b 299 1000 356 967 324 978 b 261 1086 274 1022 261 1051 b 299 1172 261 1121 274 1150 b 394 1206 324 1194 356 1206 b 490 1172 433 1206 465 1194 b 528 1086 515 1150 528 1121 b 490 1000 528 1051 515 1022 b 394 967 465 978 433 967 z "},"Ẓ":{"ha":753,"x_min":0,"x_max":0,"o":"m 44 144 l 414 703 l 81 703 l 81 903 l 708 903 l 708 758 l 339 200 l 711 200 l 711 0 l 44 0 l 44 144 z m 392 -325 b 300 -292 354 -325 324 -314 b 264 -206 276 -269 264 -240 b 300 -119 264 -171 276 -142 b 392 -86 324 -97 354 -86 b 483 -119 429 -86 460 -97 b 518 -206 507 -142 518 -171 b 483 -292 518 -240 507 -269 b 392 -325 460 -314 429 -325 z "},"Ð":{"ha":928,"x_min":0,"x_max":0,"o":"m 389 192 b 481 204 421 192 451 196 b 556 244 510 211 535 225 b 606 325 576 264 593 290 b 624 456 618 360 624 403 b 606 585 624 508 618 551 b 556 663 593 618 576 644 b 481 700 535 681 510 693 b 389 710 451 707 421 710 l 375 710 l 375 518 l 536 518 l 536 407 l 375 407 l 375 190 l 389 190 z m 403 901 b 590 876 471 901 533 893 b 736 797 647 860 696 833 b 831 658 776 761 808 715 b 864 454 853 601 864 533 b 831 250 864 375 853 307 b 738 108 808 193 778 146 b 594 25 697 71 650 43 b 414 -1 539 7 479 -1 l 133 -1 l 133 407 l 31 407 l 31 510 l 133 518 l 133 901 l 400 901 z "},"Þ":{"ha":875,"x_min":0,"x_max":0,"o":"m 100 903 l 339 903 l 339 772 l 450 772 b 589 758 499 772 544 768 b 704 708 632 749 671 732 b 782 615 736 685 763 654 b 811 472 801 576 811 529 b 782 329 811 417 801 369 b 701 232 761 289 735 257 b 586 174 668 206 629 186 b 450 154 543 161 497 154 l 339 154 l 339 -1 l 100 -1 l 100 901 z m 439 343 b 543 376 486 343 521 354 b 576 471 565 399 576 431 b 540 557 576 511 564 540 b 438 582 517 574 482 582 l 338 582 l 338 343 l 438 343 z "},"Ə":{"ha":950,"x_min":0,"x_max":0,"o":"m 311 356 b 365 219 317 293 335 247 b 474 178 394 192 431 178 b 581 222 514 178 550 193 b 643 356 611 251 632 296 l 310 356 z m 151 806 b 288 888 189 839 235 867 b 478 919 340 908 404 919 b 642 889 538 919 592 910 b 771 797 692 868 735 838 b 856 650 807 757 835 708 b 886 451 876 592 886 525 b 856 253 886 378 876 311 b 771 106 835 194 807 146 b 638 14 733 65 689 35 b 471 -18 586 -7 531 -18 b 306 13 411 -18 356 -8 b 176 103 256 33 213 64 b 93 249 140 142 113 190 b 63 444 72 306 63 371 b 64 485 63 457 63 471 b 68 525 65 497 67 511 l 644 525 b 446 722 626 657 560 722 b 338 697 404 722 368 714 b 256 639 307 679 279 660 l 147 803 z "},"à":{"ha":753,"x_min":0,"x_max":0,"o":"m 58 197 b 147 368 58 269 88 326 b 436 450 207 408 303 436 b 339 522 431 499 399 522 b 260 508 314 522 288 518 b 164 464 232 499 200 483 l 81 619 b 229 686 129 649 179 671 b 386 710 279 701 332 710 b 599 633 476 710 547 685 b 675 385 650 582 675 499 l 675 -1 l 481 -1 l 464 65 l 458 65 b 371 6 431 40 401 21 b 267 -18 339 -10 304 -18 b 179 -1 235 -18 206 -12 b 113 44 153 10 131 25 b 71 113 94 64 81 86 b 57 196 61 139 57 167 z m 285 215 b 349 165 285 182 306 165 b 397 178 368 165 385 169 b 435 211 410 186 422 197 l 435 306 b 318 268 378 297 339 285 b 286 214 297 251 286 233 z m 168 1008 l 396 1008 l 518 794 l 346 794 l 168 1008 z "},"á":{"ha":753,"x_min":0,"x_max":0,"o":"m 58 197 b 147 368 58 269 88 326 b 436 450 207 408 303 436 b 339 522 431 499 399 522 b 260 508 314 522 288 518 b 164 464 232 499 200 483 l 81 619 b 229 686 129 649 179 671 b 386 710 279 701 332 710 b 599 633 476 710 547 685 b 675 385 650 582 675 499 l 675 -1 l 481 -1 l 464 65 l 458 65 b 371 6 431 40 401 21 b 267 -18 339 -10 304 -18 b 179 -1 235 -18 206 -12 b 113 44 153 10 131 25 b 71 113 94 64 81 86 b 57 196 61 139 57 167 z m 285 215 b 349 165 285 182 306 165 b 397 178 368 165 385 169 b 435 211 410 186 422 197 l 435 306 b 318 268 378 297 339 285 b 286 214 297 251 286 233 z m 446 794 l 274 794 l 396 1008 l 624 1008 l 446 794 z "},"â":{"ha":753,"x_min":0,"x_max":0,"o":"m 58 197 b 147 368 58 269 88 326 b 436 450 207 408 303 436 b 339 522 431 499 399 522 b 260 508 314 522 288 518 b 164 464 232 499 200 483 l 81 619 b 229 686 129 649 179 671 b 386 710 279 701 332 710 b 599 633 476 710 547 685 b 675 385 650 582 675 499 l 675 -1 l 481 -1 l 464 65 l 458 65 b 371 6 431 40 401 21 b 267 -18 339 -10 304 -18 b 179 -1 235 -18 206 -12 b 113 44 153 10 131 25 b 71 113 94 64 81 86 b 57 196 61 139 57 167 z m 285 215 b 349 165 285 182 306 165 b 397 178 368 165 385 169 b 435 211 410 186 422 197 l 435 306 b 318 268 378 297 339 285 b 286 214 297 251 286 233 z m 301 1008 l 490 1008 l 624 794 l 465 794 l 399 897 l 393 897 l 326 794 l 168 794 l 301 1008 z "},"ã":{"ha":753,"x_min":0,"x_max":0,"o":"m 58 197 b 147 368 58 269 88 326 b 436 450 207 408 303 436 b 339 522 431 499 399 522 b 260 508 314 522 288 518 b 164 464 232 499 200 483 l 81 619 b 229 686 129 649 179 671 b 386 710 279 701 332 710 b 599 633 476 710 547 685 b 675 385 650 582 675 499 l 675 -1 l 481 -1 l 464 65 l 458 65 b 371 6 431 40 401 21 b 267 -18 339 -10 304 -18 b 179 -1 235 -18 206 -12 b 113 44 153 10 131 25 b 71 113 94 64 81 86 b 57 196 61 139 57 167 z m 285 215 b 349 165 285 182 306 165 b 397 178 368 165 385 169 b 435 211 410 186 422 197 l 435 306 b 318 268 378 297 339 285 b 286 214 297 251 286 233 z m 151 794 b 207 949 160 865 178 917 b 307 996 236 981 269 996 b 360 988 325 996 343 993 b 404 967 375 981 390 974 b 442 947 418 960 431 953 b 474 938 453 940 464 938 b 501 950 485 938 494 942 b 521 996 508 958 515 974 l 640 996 b 585 842 632 925 614 874 b 485 793 556 810 522 793 b 433 801 467 793 450 796 b 388 821 417 807 401 814 b 350 840 374 828 361 835 b 317 849 338 846 326 849 b 289 836 306 849 296 844 b 269 790 282 828 275 813 l 150 790 l 150 790 z "},"ä":{"ha":753,"x_min":0,"x_max":0,"o":"m 58 197 b 147 368 58 269 88 326 b 436 450 207 408 303 436 b 339 522 431 499 399 522 b 260 508 314 522 288 518 b 164 464 232 499 200 483 l 81 619 b 229 686 129 649 179 671 b 386 710 279 701 332 710 b 599 633 476 710 547 685 b 675 385 650 582 675 499 l 675 -1 l 481 -1 l 464 65 l 458 65 b 371 6 431 40 401 21 b 267 -18 339 -10 304 -18 b 179 -1 235 -18 206 -12 b 113 44 153 10 131 25 b 71 113 94 64 81 86 b 57 196 61 139 57 167 z m 285 215 b 349 165 285 182 306 165 b 397 178 368 165 385 169 b 435 211 410 186 422 197 l 435 306 b 318 268 378 297 339 285 b 286 214 297 251 286 233 z m 251 781 b 174 813 219 781 193 792 b 143 889 153 833 143 858 b 172 967 143 919 153 946 b 250 997 192 988 218 997 b 328 967 282 997 308 988 b 357 889 347 946 357 919 b 328 813 357 858 347 833 b 249 781 307 792 281 781 z m 538 781 b 460 813 506 781 479 792 b 429 889 439 833 429 858 b 458 967 429 919 439 946 b 536 997 478 988 504 997 b 614 967 568 997 594 988 b 643 889 633 946 643 919 b 614 813 643 858 633 833 b 535 781 593 792 567 781 z "},"ā":{"ha":753,"x_min":0,"x_max":0,"o":"m 58 197 b 147 368 58 269 88 326 b 436 450 207 408 303 436 b 339 522 431 499 399 522 b 260 508 314 522 288 518 b 164 464 232 499 200 483 l 81 619 b 229 686 129 649 179 671 b 386 710 279 701 332 710 b 599 633 476 710 547 685 b 675 385 650 582 675 499 l 675 -1 l 481 -1 l 464 65 l 458 65 b 371 6 431 40 401 21 b 267 -18 339 -10 304 -18 b 179 -1 235 -18 206 -12 b 113 44 153 10 131 25 b 71 113 94 64 81 86 b 57 196 61 139 57 167 z m 285 215 b 349 165 285 182 306 165 b 397 178 368 165 385 169 b 435 211 410 186 422 197 l 435 306 b 318 268 378 297 339 285 b 286 214 297 251 286 233 z m 196 964 l 596 964 l 596 814 l 196 814 l 196 964 z "},"ă":{"ha":753,"x_min":0,"x_max":0,"o":"m 58 197 b 147 368 58 269 88 326 b 436 450 207 408 303 436 b 339 522 431 499 399 522 b 260 508 314 522 288 518 b 164 464 232 499 200 483 l 81 619 b 229 686 129 649 179 671 b 386 710 279 701 332 710 b 599 633 476 710 547 685 b 675 385 650 582 675 499 l 675 -1 l 481 -1 l 464 65 l 458 65 b 371 6 431 40 401 21 b 267 -18 339 -10 304 -18 b 179 -1 235 -18 206 -12 b 113 44 153 10 131 25 b 71 113 94 64 81 86 b 57 196 61 139 57 167 z m 285 215 b 349 165 285 182 306 165 b 397 178 368 165 385 169 b 435 211 410 186 422 197 l 435 306 b 318 268 378 297 339 285 b 286 214 297 251 286 233 z m 396 794 b 308 811 363 794 333 800 b 246 853 283 821 263 835 b 208 917 229 871 217 892 b 194 992 200 940 196 965 l 325 992 b 346 940 328 971 335 954 b 394 919 357 926 374 919 b 443 940 415 919 432 926 b 464 990 454 953 461 969 l 594 990 b 581 914 593 964 589 939 b 543 850 572 889 560 868 b 481 807 526 832 506 818 b 393 790 456 796 426 790 z "},"å":{"ha":753,"x_min":0,"x_max":0,"o":"m 58 197 b 147 368 58 269 88 326 b 436 450 207 408 303 436 b 339 522 431 499 399 522 b 260 508 314 522 288 518 b 164 464 232 499 200 483 l 81 619 b 229 686 129 649 179 671 b 386 710 279 701 332 710 b 599 633 476 710 547 685 b 675 385 650 582 675 499 l 675 -1 l 481 -1 l 464 65 l 458 65 b 371 6 431 40 401 21 b 267 -18 339 -10 304 -18 b 179 -1 235 -18 206 -12 b 113 44 153 10 131 25 b 71 113 94 64 81 86 b 57 196 61 139 57 167 z m 285 215 b 349 165 285 182 306 165 b 397 178 368 165 385 169 b 435 211 410 186 422 197 l 435 306 b 318 268 378 297 339 285 b 286 214 297 251 286 233 z m 396 761 b 275 801 346 761 306 775 b 229 908 244 828 229 864 b 275 1015 229 953 244 989 b 396 1056 306 1042 346 1056 b 517 1015 446 1056 486 1042 b 563 908 547 989 563 953 b 517 801 563 864 547 828 b 396 761 486 775 446 761 z m 396 847 b 433 864 411 847 424 853 b 449 908 443 875 449 890 b 433 953 449 926 443 942 b 396 969 424 964 411 969 b 358 953 381 969 368 964 b 343 908 349 942 343 926 b 358 864 343 890 349 875 b 396 847 368 853 381 847 z "},"ǎ":{"ha":753,"x_min":0,"x_max":0,"o":"m 58 197 b 147 368 58 269 88 326 b 436 450 207 408 303 436 b 339 522 431 499 399 522 b 260 508 314 522 288 518 b 164 464 232 499 200 483 l 81 619 b 229 686 129 649 179 671 b 386 710 279 701 332 710 b 599 633 476 710 547 685 b 675 385 650 582 675 499 l 675 -1 l 481 -1 l 464 65 l 458 65 b 371 6 431 40 401 21 b 267 -18 339 -10 304 -18 b 179 -1 235 -18 206 -12 b 113 44 153 10 131 25 b 71 113 94 64 81 86 b 57 196 61 139 57 167 z m 285 215 b 349 165 285 182 306 165 b 397 178 368 165 385 169 b 435 211 410 186 422 197 l 435 306 b 318 268 378 297 339 285 b 286 214 297 251 286 233 z m 168 1008 l 326 1008 l 393 906 l 399 906 l 465 1008 l 624 1008 l 490 794 l 301 794 l 168 1008 z "},"ạ":{"ha":753,"x_min":0,"x_max":0,"o":"m 58 197 b 147 368 58 269 88 326 b 436 450 207 408 303 436 b 339 522 431 499 399 522 b 260 508 314 522 288 518 b 164 464 232 499 200 483 l 81 619 b 229 686 129 649 179 671 b 386 710 279 701 332 710 b 599 633 476 710 547 685 b 675 385 650 582 675 499 l 675 -1 l 481 -1 l 464 65 l 458 65 b 371 6 431 40 401 21 b 267 -18 339 -10 304 -18 b 179 -1 235 -18 206 -12 b 113 44 153 10 131 25 b 71 113 94 64 81 86 b 57 196 61 139 57 167 z m 285 215 b 349 165 285 182 306 165 b 397 178 368 165 385 169 b 435 211 410 186 422 197 l 435 306 b 318 268 378 297 339 285 b 286 214 297 251 286 233 z m 372 -328 b 281 -294 335 -328 304 -317 b 244 -208 257 -272 244 -243 b 281 -122 244 -174 257 -144 b 372 -89 304 -100 335 -89 b 464 -122 410 -89 440 -100 b 499 -208 488 -144 499 -174 b 464 -294 499 -243 488 -272 b 372 -328 440 -317 410 -328 z "},"ả":{"ha":753,"x_min":0,"x_max":0,"o":"m 58 197 b 147 368 58 269 88 326 b 436 450 207 408 303 436 b 339 522 431 499 399 522 b 260 508 314 522 288 518 b 164 464 232 499 200 483 l 81 619 b 229 686 129 649 179 671 b 386 710 279 701 332 710 b 599 633 476 710 547 685 b 675 385 650 582 675 499 l 675 -1 l 481 -1 l 464 65 l 458 65 b 371 6 431 40 401 21 b 267 -18 339 -10 304 -18 b 179 -1 235 -18 206 -12 b 113 44 153 10 131 25 b 71 113 94 64 81 86 b 57 196 61 139 57 167 z m 285 215 b 349 165 285 182 306 165 b 397 178 368 165 385 169 b 435 211 410 186 422 197 l 435 306 b 318 268 378 297 339 285 b 286 214 297 251 286 233 z m 326 864 b 367 872 342 865 356 868 b 382 896 376 876 382 885 b 358 924 382 907 374 917 b 275 938 343 931 315 935 l 303 1054 b 424 1042 351 1053 392 1049 b 500 1014 456 1035 481 1025 b 542 972 519 1001 533 988 b 553 922 549 957 553 940 b 536 858 553 897 547 876 b 490 813 525 840 510 825 b 424 783 471 800 449 790 b 343 771 399 776 372 772 l 326 863 z "},"ấ":{"ha":753,"x_min":0,"x_max":0,"o":"m 58 197 b 147 368 58 269 88 326 b 436 450 207 408 303 436 b 339 522 431 499 399 522 b 260 508 314 522 288 518 b 164 464 232 499 200 483 l 81 619 b 229 686 129 649 179 671 b 386 710 279 701 332 710 b 599 633 476 710 547 685 b 675 385 650 582 675 499 l 675 -1 l 481 -1 l 464 65 l 458 65 b 371 6 431 40 401 21 b 267 -18 339 -10 304 -18 b 179 -1 235 -18 206 -12 b 113 44 153 10 131 25 b 71 113 94 64 81 86 b 57 196 61 139 57 167 z m 285 215 b 349 165 285 182 306 165 b 397 178 368 165 385 169 b 435 211 410 186 422 197 l 435 306 b 318 268 378 297 339 285 b 286 214 297 251 286 233 z m 301 978 l 490 978 l 601 794 l 457 794 l 399 881 l 393 881 l 335 794 l 190 794 l 301 978 z m 646 1064 l 818 1064 l 685 897 l 554 897 l 646 1064 z "},"ầ":{"ha":753,"x_min":0,"x_max":0,"o":"m 58 197 b 147 368 58 269 88 326 b 436 450 207 408 303 436 b 339 522 431 499 399 522 b 260 508 314 522 288 518 b 164 464 232 499 200 483 l 81 619 b 229 686 129 649 179 671 b 386 710 279 701 332 710 b 599 633 476 710 547 685 b 675 385 650 582 675 499 l 675 -1 l 481 -1 l 464 65 l 458 65 b 371 6 431 40 401 21 b 267 -18 339 -10 304 -18 b 179 -1 235 -18 206 -12 b 113 44 153 10 131 25 b 71 113 94 64 81 86 b 57 196 61 139 57 167 z m 285 215 b 349 165 285 182 306 165 b 397 178 368 165 385 169 b 435 211 410 186 422 197 l 435 306 b 318 268 378 297 339 285 b 286 214 297 251 286 233 z m 301 978 l 490 978 l 601 794 l 457 794 l 399 881 l 393 881 l 335 794 l 190 794 l 301 978 z m 768 897 l 638 897 l 504 1064 l 676 1064 l 768 897 z "},"ẩ":{"ha":753,"x_min":0,"x_max":0,"o":"m 58 197 b 147 368 58 269 88 326 b 436 450 207 408 303 436 b 339 522 431 499 399 522 b 260 508 314 522 288 518 b 164 464 232 499 200 483 l 81 619 b 229 686 129 649 179 671 b 386 710 279 701 332 710 b 599 633 476 710 547 685 b 675 385 650 582 675 499 l 675 -1 l 481 -1 l 464 65 l 458 65 b 371 6 431 40 401 21 b 267 -18 339 -10 304 -18 b 179 -1 235 -18 206 -12 b 113 44 153 10 131 25 b 71 113 94 64 81 86 b 57 196 61 139 57 167 z m 285 215 b 349 165 285 182 306 165 b 397 178 368 165 385 169 b 435 211 410 186 422 197 l 435 306 b 318 268 378 297 339 285 b 286 214 297 251 286 233 z m 301 978 l 490 978 l 601 794 l 457 794 l 399 881 l 393 881 l 335 794 l 190 794 l 301 978 z m 585 947 b 611 956 596 949 604 951 b 621 979 618 960 621 968 b 603 1007 621 990 615 1000 b 532 1021 590 1014 567 1018 l 554 1118 b 661 1107 597 1117 633 1113 b 728 1082 689 1100 711 1092 b 764 1047 744 1072 757 1061 b 774 1003 771 1033 774 1018 b 760 943 774 979 769 960 b 722 903 750 926 738 913 b 668 879 707 893 689 885 b 601 867 647 874 625 869 l 588 944 z "},"ẫ":{"ha":753,"x_min":0,"x_max":0,"o":"m 58 197 b 147 368 58 269 88 326 b 436 450 207 408 303 436 b 339 522 431 499 399 522 b 260 508 314 522 288 518 b 164 464 232 499 200 483 l 81 619 b 229 686 129 649 179 671 b 386 710 279 701 332 710 b 599 633 476 710 547 685 b 675 385 650 582 675 499 l 675 -1 l 481 -1 l 464 65 l 458 65 b 371 6 431 40 401 21 b 267 -18 339 -10 304 -18 b 179 -1 235 -18 206 -12 b 113 44 153 10 131 25 b 71 113 94 64 81 86 b 57 196 61 139 57 167 z m 285 215 b 349 165 285 182 306 165 b 397 178 368 165 385 169 b 435 211 410 186 422 197 l 435 306 b 318 268 378 297 339 285 b 286 214 297 251 286 233 z m 288 953 l 504 953 l 613 794 l 460 794 l 399 872 l 393 872 l 332 794 l 179 794 l 288 953 z m 185 1003 b 233 1133 192 1064 208 1107 b 317 1172 258 1160 286 1172 b 365 1164 335 1172 351 1169 b 403 1146 379 1158 392 1153 b 431 1128 413 1139 422 1133 b 457 1119 439 1122 447 1119 b 486 1131 468 1119 478 1124 b 503 1168 493 1138 499 1150 l 603 1168 b 554 1038 596 1107 579 1064 b 469 999 528 1011 500 999 b 421 1007 451 999 435 1001 b 383 1024 407 1011 394 1017 b 354 1042 372 1031 363 1036 b 325 1049 344 1046 335 1049 b 296 1038 314 1049 304 1044 b 276 1000 288 1031 281 1018 l 176 1000 z "},"ậ":{"ha":753,"x_min":0,"x_max":0,"o":"m 58 197 b 147 368 58 269 88 326 b 436 450 207 408 303 436 b 339 522 431 499 399 522 b 260 508 314 522 288 518 b 164 464 232 499 200 483 l 81 619 b 229 686 129 649 179 671 b 386 710 279 701 332 710 b 599 633 476 710 547 685 b 675 385 650 582 675 499 l 675 -1 l 481 -1 l 464 65 l 458 65 b 371 6 431 40 401 21 b 267 -18 339 -10 304 -18 b 179 -1 235 -18 206 -12 b 113 44 153 10 131 25 b 71 113 94 64 81 86 b 57 196 61 139 57 167 z m 285 215 b 349 165 285 182 306 165 b 397 178 368 165 385 169 b 435 211 410 186 422 197 l 435 306 b 318 268 378 297 339 285 b 286 214 297 251 286 233 z m 301 1008 l 490 1008 l 624 794 l 465 794 l 399 897 l 393 897 l 326 794 l 168 794 l 301 1008 z m 372 -328 b 281 -294 335 -328 304 -317 b 244 -208 257 -272 244 -243 b 281 -122 244 -174 257 -144 b 372 -89 304 -100 335 -89 b 464 -122 410 -89 440 -100 b 499 -208 488 -144 499 -174 b 464 -294 499 -243 488 -272 b 372 -328 440 -317 410 -328 z "},"ắ":{"ha":753,"x_min":0,"x_max":0,"o":"m 58 197 b 147 368 58 269 88 326 b 436 450 207 408 303 436 b 339 522 431 499 399 522 b 260 508 314 522 288 518 b 164 464 232 499 200 483 l 81 619 b 229 686 129 649 179 671 b 386 710 279 701 332 710 b 599 633 476 710 547 685 b 675 385 650 582 675 499 l 675 -1 l 481 -1 l 464 65 l 458 65 b 371 6 431 40 401 21 b 267 -18 339 -10 304 -18 b 179 -1 235 -18 206 -12 b 113 44 153 10 131 25 b 71 113 94 64 81 86 b 57 196 61 139 57 167 z m 285 215 b 349 165 285 182 306 165 b 397 178 368 165 385 169 b 435 211 410 186 422 197 l 435 306 b 318 268 378 297 339 285 b 286 214 297 251 286 233 z m 401 1133 l 568 1133 l 443 967 l 326 967 l 401 1133 z m 396 794 b 308 811 363 794 333 800 b 246 853 283 821 263 835 b 208 917 229 871 217 892 b 194 992 200 940 196 965 l 297 992 b 326 929 301 967 311 946 b 393 904 342 913 364 904 b 460 929 422 904 444 913 b 489 990 475 944 485 965 l 592 990 b 578 914 590 964 586 939 b 540 850 569 889 557 868 b 478 807 524 832 503 818 b 390 790 453 796 424 790 z "},"ằ":{"ha":753,"x_min":0,"x_max":0,"o":"m 58 197 b 147 368 58 269 88 326 b 436 450 207 408 303 436 b 339 522 431 499 399 522 b 260 508 314 522 288 518 b 164 464 232 499 200 483 l 81 619 b 229 686 129 649 179 671 b 386 710 279 701 332 710 b 599 633 476 710 547 685 b 675 385 650 582 675 499 l 675 -1 l 481 -1 l 464 65 l 458 65 b 371 6 431 40 401 21 b 267 -18 339 -10 304 -18 b 179 -1 235 -18 206 -12 b 113 44 153 10 131 25 b 71 113 94 64 81 86 b 57 196 61 139 57 167 z m 285 215 b 349 165 285 182 306 165 b 397 178 368 165 385 169 b 435 211 410 186 422 197 l 435 306 b 318 268 378 297 339 285 b 286 214 297 251 286 233 z m 465 967 l 349 967 l 224 1133 l 390 1133 l 465 967 z m 396 794 b 308 811 363 794 333 800 b 246 853 283 821 263 835 b 208 917 229 871 217 892 b 194 992 200 940 196 965 l 297 992 b 326 929 301 967 311 946 b 393 904 342 913 364 904 b 460 929 422 904 444 913 b 489 990 475 944 485 965 l 592 990 b 578 914 590 964 586 939 b 540 850 569 889 557 868 b 478 807 524 832 503 818 b 390 790 453 796 424 790 z "},"ẳ":{"ha":753,"x_min":0,"x_max":0,"o":"m 58 197 b 147 368 58 269 88 326 b 436 450 207 408 303 436 b 339 522 431 499 399 522 b 260 508 314 522 288 518 b 164 464 232 499 200 483 l 81 619 b 229 686 129 649 179 671 b 386 710 279 701 332 710 b 599 633 476 710 547 685 b 675 385 650 582 675 499 l 675 -1 l 481 -1 l 464 65 l 458 65 b 371 6 431 40 401 21 b 267 -18 339 -10 304 -18 b 179 -1 235 -18 206 -12 b 113 44 153 10 131 25 b 71 113 94 64 81 86 b 57 196 61 139 57 167 z m 285 215 b 349 165 285 182 306 165 b 397 178 368 165 385 169 b 435 211 410 186 422 197 l 435 306 b 318 268 378 297 339 285 b 286 214 297 251 286 233 z m 396 794 b 308 811 363 794 333 800 b 246 853 283 821 263 835 b 208 917 229 871 217 892 b 194 992 200 940 196 965 l 297 992 b 326 929 301 967 311 946 b 393 904 342 913 364 904 b 460 929 422 904 444 913 b 489 990 475 944 485 965 l 592 990 b 578 914 590 964 586 939 b 540 850 569 889 557 868 b 478 807 524 832 503 818 b 390 790 453 796 424 790 z m 324 1047 b 350 1056 335 1049 343 1051 b 360 1079 357 1060 360 1068 b 342 1107 360 1090 354 1100 b 271 1121 329 1114 306 1118 l 293 1218 b 399 1207 336 1217 371 1213 b 465 1182 426 1200 449 1192 b 501 1147 482 1172 494 1161 b 511 1103 508 1133 511 1118 b 497 1043 511 1079 507 1060 b 460 1003 488 1026 475 1013 b 406 979 444 993 426 985 b 339 967 385 974 363 969 l 325 1044 z "},"ẵ":{"ha":753,"x_min":0,"x_max":0,"o":"m 58 197 b 147 368 58 269 88 326 b 436 450 207 408 303 436 b 339 522 431 499 399 522 b 260 508 314 522 288 518 b 164 464 232 499 200 483 l 81 619 b 229 686 129 649 179 671 b 386 710 279 701 332 710 b 599 633 476 710 547 685 b 675 385 650 582 675 499 l 675 -1 l 481 -1 l 464 65 l 458 65 b 371 6 431 40 401 21 b 267 -18 339 -10 304 -18 b 179 -1 235 -18 206 -12 b 113 44 153 10 131 25 b 71 113 94 64 81 86 b 57 196 61 139 57 167 z m 285 215 b 349 165 285 182 306 165 b 397 178 368 165 385 169 b 435 211 410 186 422 197 l 435 306 b 318 268 378 297 339 285 b 286 214 297 251 286 233 z m 396 794 b 246 844 329 794 279 811 b 194 965 213 878 196 918 l 303 965 b 331 921 307 949 317 933 b 393 901 343 908 364 901 b 458 921 422 901 444 908 b 483 965 471 933 479 949 l 592 965 b 578 899 590 942 586 919 b 540 844 569 878 557 860 b 478 807 524 829 503 817 b 390 793 453 797 424 793 z m 179 1001 b 228 1132 186 1063 203 1106 b 311 1171 253 1158 281 1171 b 360 1163 329 1171 346 1168 b 397 1144 374 1157 386 1151 b 425 1126 407 1138 417 1132 b 451 1118 433 1121 442 1118 b 481 1129 463 1118 472 1122 b 497 1167 488 1136 493 1149 l 597 1167 b 549 1036 590 1106 574 1063 b 464 997 522 1010 494 997 b 415 1006 446 997 429 1000 b 378 1022 401 1010 389 1015 b 349 1040 367 1029 357 1035 b 319 1047 339 1044 329 1047 b 290 1036 308 1047 299 1043 b 271 999 282 1029 275 1017 l 171 999 z "},"ặ":{"ha":753,"x_min":0,"x_max":0,"o":"m 58 197 b 147 368 58 269 88 326 b 436 450 207 408 303 436 b 339 522 431 499 399 522 b 260 508 314 522 288 518 b 164 464 232 499 200 483 l 81 619 b 229 686 129 649 179 671 b 386 710 279 701 332 710 b 599 633 476 710 547 685 b 675 385 650 582 675 499 l 675 -1 l 481 -1 l 464 65 l 458 65 b 371 6 431 40 401 21 b 267 -18 339 -10 304 -18 b 179 -1 235 -18 206 -12 b 113 44 153 10 131 25 b 71 113 94 64 81 86 b 57 196 61 139 57 167 z m 285 215 b 349 165 285 182 306 165 b 397 178 368 165 385 169 b 435 211 410 186 422 197 l 435 306 b 318 268 378 297 339 285 b 286 214 297 251 286 233 z m 396 794 b 308 811 363 794 333 800 b 246 853 283 821 263 835 b 208 917 229 871 217 892 b 194 992 200 940 196 965 l 325 992 b 346 940 328 971 335 954 b 394 919 357 926 374 919 b 443 940 415 919 432 926 b 464 990 454 953 461 969 l 594 990 b 581 914 593 964 589 939 b 543 850 572 889 560 868 b 481 807 526 832 506 818 b 393 790 456 796 426 790 z m 369 -332 b 278 -299 332 -332 301 -321 b 242 -212 254 -276 242 -247 b 278 -126 242 -178 254 -149 b 369 -93 301 -104 332 -93 b 461 -126 407 -93 438 -104 b 496 -212 485 -149 496 -178 b 461 -299 496 -247 485 -276 b 369 -332 438 -321 407 -332 z "},"ą":{"ha":753,"x_min":0,"x_max":0,"o":"m 286 217 b 350 167 286 183 307 167 b 399 179 369 167 386 171 b 436 213 411 188 424 199 l 436 307 b 319 269 379 299 340 286 b 288 215 299 253 288 235 z m 60 196 b 149 367 60 268 89 325 b 438 449 208 407 304 435 b 340 521 432 497 400 521 b 261 507 315 521 289 517 b 165 463 233 497 201 482 l 82 618 b 231 685 131 647 181 669 b 388 708 281 700 333 708 b 600 632 478 708 549 683 b 676 383 651 581 676 497 l 676 -3 b 581 -50 629 -14 597 -29 b 554 -111 563 -71 554 -92 b 571 -147 554 -128 560 -140 b 608 -158 582 -154 594 -158 b 633 -154 617 -158 625 -157 b 654 -143 642 -151 649 -147 l 701 -249 b 629 -285 682 -264 658 -276 b 550 -299 600 -294 574 -299 b 440 -265 507 -299 471 -287 b 394 -169 410 -244 394 -212 b 404 -111 394 -149 397 -129 b 429 -64 411 -93 419 -78 b 458 -31 439 -51 449 -40 b 483 -10 468 -21 476 -14 l 464 63 l 458 63 b 371 3 431 38 401 18 b 267 -21 339 -12 304 -21 b 179 -4 235 -21 206 -15 b 113 42 153 7 131 22 b 71 110 94 61 81 83 b 57 193 61 136 57 164 z "},"æ":{"ha":1092,"x_min":0,"x_max":0,"o":"m 286 217 b 350 167 286 183 307 167 b 406 178 371 167 389 171 b 450 207 421 185 436 194 b 433 281 442 232 436 257 l 431 307 b 318 269 378 299 340 286 b 285 214 296 253 285 235 z m 79 617 b 224 683 128 646 176 668 b 369 707 271 699 319 707 b 478 683 410 707 446 699 b 560 618 510 668 538 646 b 651 685 590 647 621 669 b 756 707 682 700 717 707 b 879 681 803 707 844 699 b 967 607 914 663 943 638 b 1019 497 990 575 1008 539 b 1036 365 1031 456 1036 411 b 1032 308 1036 344 1035 325 b 1025 271 1029 292 1026 279 l 643 271 b 697 189 653 232 671 204 b 789 165 724 174 754 165 b 858 178 813 165 836 169 b 928 211 879 186 903 197 l 1008 58 b 883 -1 971 32 929 13 b 756 -22 838 -15 794 -22 b 624 4 707 -22 663 -14 b 519 79 583 22 549 47 b 449 32 494 60 471 44 b 385 1 426 19 406 10 b 322 -15 364 -7 343 -12 b 256 -21 301 -19 279 -21 b 168 -4 224 -21 194 -15 b 101 42 142 7 119 22 b 60 110 83 61 69 83 b 46 193 50 136 46 164 b 133 364 46 265 75 322 b 421 447 192 406 288 433 b 396 500 418 471 410 489 b 325 517 381 511 357 517 b 246 503 300 517 274 513 b 150 458 218 493 186 478 l 67 614 z m 825 414 b 807 493 825 444 819 471 b 740 525 794 514 772 525 b 674 500 714 525 692 517 b 638 414 656 483 643 454 l 826 414 z "},"ç":{"ha":656,"x_min":0,"x_max":0,"o":"m 44 347 b 75 501 44 404 54 456 b 158 617 96 547 124 586 b 278 688 193 647 233 671 b 418 711 322 703 369 711 b 533 690 460 711 499 704 b 621 633 568 676 597 657 l 513 486 b 471 511 497 499 483 507 b 433 518 458 515 446 518 b 329 472 389 518 354 503 b 292 346 304 440 292 399 b 329 221 292 293 304 251 b 424 174 354 189 386 174 b 485 188 446 174 467 178 b 535 218 503 197 519 207 l 629 68 b 514 1 594 38 556 15 b 396 -19 471 -12 432 -19 b 258 6 347 -19 301 -11 b 146 75 215 21 178 44 b 71 189 114 106 89 143 b 43 343 53 235 43 286 z m 333 1 l 469 1 l 444 -60 b 503 -97 468 -68 488 -81 b 525 -167 518 -114 525 -137 b 504 -231 525 -192 518 -212 b 446 -276 489 -249 469 -264 b 363 -306 422 -289 394 -299 b 263 -318 331 -312 297 -317 l 246 -226 b 325 -210 278 -224 304 -218 b 356 -169 346 -201 356 -187 b 340 -140 356 -160 350 -150 b 278 -114 331 -131 310 -122 l 333 -3 z "},"ć":{"ha":656,"x_min":0,"x_max":0,"o":"m 44 347 b 75 501 44 404 54 456 b 158 617 96 547 124 586 b 278 688 193 647 233 671 b 418 711 322 703 369 711 b 533 690 460 711 499 704 b 621 633 568 676 597 657 l 513 486 b 471 511 497 499 483 507 b 433 518 458 515 446 518 b 329 472 389 518 354 503 b 292 346 304 440 292 399 b 329 221 292 293 304 251 b 424 174 354 189 386 174 b 485 188 446 174 467 178 b 535 218 503 197 519 207 l 629 68 b 514 1 594 38 556 15 b 396 -19 471 -12 432 -19 b 258 6 347 -19 301 -11 b 146 75 215 21 178 44 b 71 189 114 106 89 143 b 43 343 53 235 43 286 z m 458 793 l 286 793 l 408 1007 l 636 1007 l 458 793 z "},"ĉ":{"ha":656,"x_min":0,"x_max":0,"o":"m 44 347 b 75 501 44 404 54 456 b 158 617 96 547 124 586 b 278 688 193 647 233 671 b 418 711 322 703 369 711 b 533 690 460 711 499 704 b 621 633 568 676 597 657 l 513 486 b 471 511 497 499 483 507 b 433 518 458 515 446 518 b 329 472 389 518 354 503 b 292 346 304 440 292 399 b 329 221 292 293 304 251 b 424 174 354 189 386 174 b 485 188 446 174 467 178 b 535 218 503 197 519 207 l 629 68 b 514 1 594 38 556 15 b 396 -19 471 -12 432 -19 b 258 6 347 -19 301 -11 b 146 75 215 21 178 44 b 71 189 114 106 89 143 b 43 343 53 235 43 286 z m 314 1007 l 503 1007 l 636 793 l 478 793 l 411 896 l 406 896 l 339 793 l 181 793 l 314 1007 z "},"č":{"ha":656,"x_min":0,"x_max":0,"o":"m 44 347 b 75 501 44 404 54 456 b 158 617 96 547 124 586 b 278 688 193 647 233 671 b 418 711 322 703 369 711 b 533 690 460 711 499 704 b 621 633 568 676 597 657 l 513 486 b 471 511 497 499 483 507 b 433 518 458 515 446 518 b 329 472 389 518 354 503 b 292 346 304 440 292 399 b 329 221 292 293 304 251 b 424 174 354 189 386 174 b 485 188 446 174 467 178 b 535 218 503 197 519 207 l 629 68 b 514 1 594 38 556 15 b 396 -19 471 -12 432 -19 b 258 6 347 -19 301 -11 b 146 75 215 21 178 44 b 71 189 114 106 89 143 b 43 343 53 235 43 286 z m 181 1007 l 339 1007 l 406 904 l 411 904 l 478 1007 l 636 1007 l 503 793 l 314 793 l 181 1007 z "},"ċ":{"ha":656,"x_min":0,"x_max":0,"o":"m 44 347 b 75 501 44 404 54 456 b 158 617 96 547 124 586 b 278 688 193 647 233 671 b 418 711 322 703 369 711 b 533 690 460 711 499 704 b 621 633 568 676 597 657 l 513 486 b 471 511 497 499 483 507 b 433 518 458 515 446 518 b 329 472 389 518 354 503 b 292 346 304 440 292 399 b 329 221 292 293 304 251 b 424 174 354 189 386 174 b 485 188 446 174 467 178 b 535 218 503 197 519 207 l 629 68 b 514 1 594 38 556 15 b 396 -19 471 -12 432 -19 b 258 6 347 -19 301 -11 b 146 75 215 21 178 44 b 71 189 114 106 89 143 b 43 343 53 235 43 286 z m 408 776 b 317 810 371 776 340 788 b 281 896 293 832 281 861 b 317 982 281 931 293 960 b 408 1015 340 1004 371 1015 b 500 982 446 1015 476 1004 b 535 896 524 960 535 931 b 500 810 535 861 524 832 b 408 776 476 788 446 776 z "},"ď":{"ha":875,"x_min":0,"x_max":0,"o":"m 50 347 b 75 501 50 404 58 456 b 138 617 90 547 111 586 b 229 688 164 647 194 671 b 333 713 264 704 299 713 b 425 694 371 713 401 707 b 492 644 449 682 471 665 l 483 744 l 483 969 l 722 969 l 722 3 l 528 3 l 511 67 l 506 67 b 424 8 482 43 454 24 b 331 -14 392 -7 361 -14 b 214 11 288 -14 249 -6 b 125 83 179 28 150 51 b 67 199 100 115 81 154 b 46 350 53 243 46 293 z m 290 353 b 318 219 290 290 300 246 b 393 181 336 193 361 181 b 442 192 411 181 428 185 b 482 231 456 199 469 211 l 482 486 b 436 511 468 499 453 507 b 388 518 419 515 403 518 b 321 481 363 518 340 506 b 290 351 300 456 290 413 z m 774 763 l 765 1076 l 915 1076 l 913 974 l 874 763 l 774 763 z "},"ḍ":{"ha":806,"x_min":0,"x_max":0,"o":"m 50 347 b 75 501 50 404 58 456 b 138 617 90 547 111 586 b 229 688 164 647 194 671 b 333 713 264 704 299 713 b 425 694 371 713 401 707 b 492 644 449 682 471 665 l 483 744 l 483 969 l 722 969 l 722 3 l 528 3 l 511 67 l 506 67 b 424 8 482 43 454 24 b 331 -14 392 -7 361 -14 b 214 11 288 -14 249 -6 b 125 83 179 28 150 51 b 67 199 100 115 81 154 b 46 350 53 243 46 293 z m 290 353 b 318 219 290 290 300 246 b 393 181 336 193 361 181 b 442 192 411 181 428 185 b 482 231 456 199 469 211 l 482 486 b 436 511 468 499 453 507 b 388 518 419 515 403 518 b 321 481 363 518 340 506 b 290 351 300 456 290 413 z m 435 -324 b 343 -290 397 -324 367 -312 b 307 -204 319 -268 307 -239 b 343 -118 307 -169 319 -140 b 435 -85 367 -96 397 -85 b 526 -118 472 -85 503 -96 b 561 -204 550 -140 561 -169 b 526 -290 561 -239 550 -268 b 435 -324 503 -312 472 -324 z "},"ḏ":{"ha":806,"x_min":0,"x_max":0,"o":"m 50 347 b 75 501 50 404 58 456 b 138 617 90 547 111 586 b 229 688 164 647 194 671 b 333 713 264 704 299 713 b 425 694 371 713 401 707 b 492 644 449 682 471 665 l 483 744 l 483 969 l 722 969 l 722 3 l 528 3 l 511 67 l 506 67 b 424 8 482 43 454 24 b 331 -14 392 -7 361 -14 b 214 11 288 -14 249 -6 b 125 83 179 28 150 51 b 67 199 100 115 81 154 b 46 350 53 243 46 293 z m 290 353 b 318 219 290 290 300 246 b 393 181 336 193 361 181 b 442 192 411 181 428 185 b 482 231 456 199 469 211 l 482 486 b 436 511 468 499 453 507 b 388 518 419 515 403 518 b 321 481 363 518 340 506 b 290 351 300 456 290 413 z m 635 -271 l 235 -271 l 235 -121 l 635 -121 l 635 -271 z "},"đ":{"ha":806,"x_min":0,"x_max":0,"o":"m 486 456 b 440 481 472 468 457 476 b 392 488 424 485 407 488 b 325 454 367 488 344 476 b 294 333 304 431 294 390 b 322 208 294 274 304 232 b 397 174 340 185 365 174 b 446 185 415 174 432 178 b 486 224 460 192 474 204 l 486 451 z m 817 768 l 725 761 l 725 -4 l 525 -4 l 511 51 l 506 51 b 426 -1 482 29 456 11 b 335 -21 397 -14 367 -21 b 218 3 292 -21 253 -12 b 129 71 183 18 154 40 b 71 179 104 100 85 136 b 50 325 57 222 50 271 b 75 471 50 379 58 428 b 138 582 90 514 111 551 b 229 651 164 611 194 635 b 333 675 264 667 299 675 b 425 657 371 675 401 669 b 492 607 449 644 471 628 l 483 707 l 483 757 l 283 757 l 283 868 l 483 868 l 483 960 l 722 960 l 722 868 l 814 868 l 814 765 z "},"è":{"ha":731,"x_min":0,"x_max":0,"o":"m 44 347 b 74 500 44 404 54 456 b 147 614 92 544 117 582 b 253 686 178 646 213 669 b 378 711 293 703 335 711 b 511 685 429 711 474 703 b 606 613 549 667 581 643 b 663 506 631 582 650 546 b 681 376 675 465 681 422 b 676 319 681 356 679 336 b 669 282 674 303 671 290 l 274 282 b 333 190 285 238 304 207 b 435 165 363 174 396 165 b 504 176 458 165 482 169 b 575 207 526 183 550 193 l 653 65 b 528 6 615 39 574 19 b 400 -15 482 -8 439 -15 b 258 10 349 -15 301 -7 b 146 79 215 25 178 49 b 71 193 114 110 89 147 b 43 347 53 239 43 290 z m 476 425 b 456 500 476 454 469 479 b 381 531 442 521 417 531 b 311 507 354 531 331 522 b 269 425 290 492 276 464 l 475 425 z m 147 1011 l 375 1011 l 497 797 l 325 797 l 147 1011 z "},"é":{"ha":731,"x_min":0,"x_max":0,"o":"m 44 347 b 74 500 44 404 54 456 b 147 614 92 544 117 582 b 253 686 178 646 213 669 b 378 711 293 703 335 711 b 511 685 429 711 474 703 b 606 613 549 667 581 643 b 663 506 631 582 650 546 b 681 376 675 465 681 422 b 676 319 681 356 679 336 b 669 282 674 303 671 290 l 274 282 b 333 190 285 238 304 207 b 435 165 363 174 396 165 b 504 176 458 165 482 169 b 575 207 526 183 550 193 l 653 65 b 528 6 615 39 574 19 b 400 -15 482 -8 439 -15 b 258 10 349 -15 301 -7 b 146 79 215 25 178 49 b 71 193 114 110 89 147 b 43 347 53 239 43 290 z m 476 425 b 456 500 476 454 469 479 b 381 531 442 521 417 531 b 311 507 354 531 331 522 b 269 425 290 492 276 464 l 475 425 z m 425 797 l 253 797 l 375 1011 l 603 1011 l 425 797 z "},"ê":{"ha":731,"x_min":0,"x_max":0,"o":"m 44 347 b 74 500 44 404 54 456 b 147 614 92 544 117 582 b 253 686 178 646 213 669 b 378 711 293 703 335 711 b 511 685 429 711 474 703 b 606 613 549 667 581 643 b 663 506 631 582 650 546 b 681 376 675 465 681 422 b 676 319 681 356 679 336 b 669 282 674 303 671 290 l 274 282 b 333 190 285 238 304 207 b 435 165 363 174 396 165 b 504 176 458 165 482 169 b 575 207 526 183 550 193 l 653 65 b 528 6 615 39 574 19 b 400 -15 482 -8 439 -15 b 258 10 349 -15 301 -7 b 146 79 215 25 178 49 b 71 193 114 110 89 147 b 43 347 53 239 43 290 z m 476 425 b 456 500 476 454 469 479 b 381 531 442 521 417 531 b 311 507 354 531 331 522 b 269 425 290 492 276 464 l 475 425 z m 281 1011 l 469 1011 l 603 797 l 444 797 l 378 900 l 372 900 l 306 797 l 147 797 l 281 1011 z "},"ě":{"ha":731,"x_min":0,"x_max":0,"o":"m 44 347 b 74 500 44 404 54 456 b 147 614 92 544 117 582 b 253 686 178 646 213 669 b 378 711 293 703 335 711 b 511 685 429 711 474 703 b 606 613 549 667 581 643 b 663 506 631 582 650 546 b 681 376 675 465 681 422 b 676 319 681 356 679 336 b 669 282 674 303 671 290 l 274 282 b 333 190 285 238 304 207 b 435 165 363 174 396 165 b 504 176 458 165 482 169 b 575 207 526 183 550 193 l 653 65 b 528 6 615 39 574 19 b 400 -15 482 -8 439 -15 b 258 10 349 -15 301 -7 b 146 79 215 25 178 49 b 71 193 114 110 89 147 b 43 347 53 239 43 290 z m 476 425 b 456 500 476 454 469 479 b 381 531 442 521 417 531 b 311 507 354 531 331 522 b 269 425 290 492 276 464 l 475 425 z m 147 1011 l 306 1011 l 372 908 l 378 908 l 444 1011 l 603 1011 l 469 797 l 281 797 l 147 1011 z "},"ë":{"ha":731,"x_min":0,"x_max":0,"o":"m 44 347 b 74 500 44 404 54 456 b 147 614 92 544 117 582 b 253 686 178 646 213 669 b 378 711 293 703 335 711 b 511 685 429 711 474 703 b 606 613 549 667 581 643 b 663 506 631 582 650 546 b 681 376 675 465 681 422 b 676 319 681 356 679 336 b 669 282 674 303 671 290 l 274 282 b 333 190 285 238 304 207 b 435 165 363 174 396 165 b 504 176 458 165 482 169 b 575 207 526 183 550 193 l 653 65 b 528 6 615 39 574 19 b 400 -15 482 -8 439 -15 b 258 10 349 -15 301 -7 b 146 79 215 25 178 49 b 71 193 114 110 89 147 b 43 347 53 239 43 290 z m 476 425 b 456 500 476 454 469 479 b 381 531 442 521 417 531 b 311 507 354 531 331 522 b 269 425 290 492 276 464 l 475 425 z m 231 783 b 153 815 199 783 172 794 b 122 892 132 836 122 861 b 151 969 122 922 132 949 b 229 1000 171 990 197 1000 b 307 969 261 1000 288 990 b 336 892 326 949 336 922 b 307 815 336 861 326 836 b 228 783 286 794 260 783 z m 517 783 b 439 815 485 783 458 794 b 408 892 418 836 408 861 b 438 969 408 922 418 949 b 515 1000 457 990 483 1000 b 593 969 547 1000 574 990 b 622 892 613 949 622 922 b 593 815 622 861 613 836 b 514 783 572 794 546 783 z "},"ē":{"ha":731,"x_min":0,"x_max":0,"o":"m 44 347 b 74 500 44 404 54 456 b 147 614 92 544 117 582 b 253 686 178 646 213 669 b 378 711 293 703 335 711 b 511 685 429 711 474 703 b 606 613 549 667 581 643 b 663 506 631 582 650 546 b 681 376 675 465 681 422 b 676 319 681 356 679 336 b 669 282 674 303 671 290 l 274 282 b 333 190 285 238 304 207 b 435 165 363 174 396 165 b 504 176 458 165 482 169 b 575 207 526 183 550 193 l 653 65 b 528 6 615 39 574 19 b 400 -15 482 -8 439 -15 b 258 10 349 -15 301 -7 b 146 79 215 25 178 49 b 71 193 114 110 89 147 b 43 347 53 239 43 290 z m 476 425 b 456 500 476 454 469 479 b 381 531 442 521 417 531 b 311 507 354 531 331 522 b 269 425 290 492 276 464 l 475 425 z m 175 967 l 575 967 l 575 817 l 175 817 l 175 967 z "},"ĕ":{"ha":731,"x_min":0,"x_max":0,"o":"m 44 347 b 74 500 44 404 54 456 b 147 614 92 544 117 582 b 253 686 178 646 213 669 b 378 711 293 703 335 711 b 511 685 429 711 474 703 b 606 613 549 667 581 643 b 663 506 631 582 650 546 b 681 376 675 465 681 422 b 676 319 681 356 679 336 b 669 282 674 303 671 290 l 274 282 b 333 190 285 238 304 207 b 435 165 363 174 396 165 b 504 176 458 165 482 169 b 575 207 526 183 550 193 l 653 65 b 528 6 615 39 574 19 b 400 -15 482 -8 439 -15 b 258 10 349 -15 301 -7 b 146 79 215 25 178 49 b 71 193 114 110 89 147 b 43 347 53 239 43 290 z m 476 425 b 456 500 476 454 469 479 b 381 531 442 521 417 531 b 311 507 354 531 331 522 b 269 425 290 492 276 464 l 475 425 z m 375 797 b 288 814 342 797 313 803 b 225 856 263 824 242 838 b 188 919 208 874 196 894 b 174 994 179 943 175 968 l 304 994 b 325 943 307 974 314 957 b 374 922 336 929 353 922 b 422 943 394 922 411 929 b 443 993 433 956 440 972 l 574 993 b 560 917 572 967 568 942 b 522 853 551 892 539 871 b 460 810 506 835 485 821 b 372 793 435 799 406 793 z "},"ė":{"ha":731,"x_min":0,"x_max":0,"o":"m 44 347 b 74 500 44 404 54 456 b 147 614 92 544 117 582 b 253 686 178 646 213 669 b 378 711 293 703 335 711 b 511 685 429 711 474 703 b 606 613 549 667 581 643 b 663 506 631 582 650 546 b 681 376 675 465 681 422 b 676 319 681 356 679 336 b 669 282 674 303 671 290 l 274 282 b 333 190 285 238 304 207 b 435 165 363 174 396 165 b 504 176 458 165 482 169 b 575 207 526 183 550 193 l 653 65 b 528 6 615 39 574 19 b 400 -15 482 -8 439 -15 b 258 10 349 -15 301 -7 b 146 79 215 25 178 49 b 71 193 114 110 89 147 b 43 347 53 239 43 290 z m 476 425 b 456 500 476 454 469 479 b 381 531 442 521 417 531 b 311 507 354 531 331 522 b 269 425 290 492 276 464 l 475 425 z m 375 781 b 283 814 338 781 307 792 b 247 900 260 836 247 865 b 283 986 247 935 260 964 b 375 1019 307 1008 338 1019 b 467 986 413 1019 443 1008 b 501 900 490 964 501 935 b 467 814 501 865 490 836 b 375 781 443 792 413 781 z "},"ẹ":{"ha":731,"x_min":0,"x_max":0,"o":"m 44 347 b 74 500 44 404 54 456 b 147 614 92 544 117 582 b 253 686 178 646 213 669 b 378 711 293 703 335 711 b 511 685 429 711 474 703 b 606 613 549 667 581 643 b 663 506 631 582 650 546 b 681 376 675 465 681 422 b 676 319 681 356 679 336 b 669 282 674 303 671 290 l 274 282 b 333 190 285 238 304 207 b 435 165 363 174 396 165 b 504 176 458 165 482 169 b 575 207 526 183 550 193 l 653 65 b 528 6 615 39 574 19 b 400 -15 482 -8 439 -15 b 258 10 349 -15 301 -7 b 146 79 215 25 178 49 b 71 193 114 110 89 147 b 43 347 53 239 43 290 z m 476 425 b 456 500 476 454 469 479 b 381 531 442 521 417 531 b 311 507 354 531 331 522 b 269 425 290 492 276 464 l 475 425 z m 375 -325 b 283 -292 338 -325 307 -314 b 247 -206 260 -269 247 -240 b 283 -119 247 -171 260 -142 b 375 -86 307 -97 338 -86 b 467 -119 413 -86 443 -97 b 501 -206 490 -142 501 -171 b 467 -292 501 -240 490 -269 b 375 -325 443 -314 413 -325 z "},"ẻ":{"ha":731,"x_min":0,"x_max":0,"o":"m 44 347 b 74 500 44 404 54 456 b 147 614 92 544 117 582 b 253 686 178 646 213 669 b 378 711 293 703 335 711 b 511 685 429 711 474 703 b 606 613 549 667 581 643 b 663 506 631 582 650 546 b 681 376 675 465 681 422 b 676 319 681 356 679 336 b 669 282 674 303 671 290 l 274 282 b 333 190 285 238 304 207 b 435 165 363 174 396 165 b 504 176 458 165 482 169 b 575 207 526 183 550 193 l 653 65 b 528 6 615 39 574 19 b 400 -15 482 -8 439 -15 b 258 10 349 -15 301 -7 b 146 79 215 25 178 49 b 71 193 114 110 89 147 b 43 347 53 239 43 290 z m 476 425 b 456 500 476 454 469 479 b 381 531 442 521 417 531 b 311 507 354 531 331 522 b 269 425 290 492 276 464 l 475 425 z m 306 867 b 346 875 321 868 335 871 b 361 899 356 879 361 888 b 338 926 361 910 353 919 b 254 940 322 933 294 938 l 282 1057 b 403 1044 331 1056 371 1051 b 479 1017 435 1038 460 1028 b 521 975 499 1004 513 990 b 532 925 528 960 532 943 b 515 861 532 900 526 879 b 469 815 504 843 489 828 b 403 786 450 803 428 793 b 322 774 378 779 351 775 l 306 865 z "},"ẽ":{"ha":731,"x_min":0,"x_max":0,"o":"m 44 347 b 74 500 44 404 54 456 b 147 614 92 544 117 582 b 253 686 178 646 213 669 b 378 711 293 703 335 711 b 511 685 429 711 474 703 b 606 613 549 667 581 643 b 663 506 631 582 650 546 b 681 376 675 465 681 422 b 676 319 681 356 679 336 b 669 282 674 303 671 290 l 274 282 b 333 190 285 238 304 207 b 435 165 363 174 396 165 b 504 176 458 165 482 169 b 575 207 526 183 550 193 l 653 65 b 528 6 615 39 574 19 b 400 -15 482 -8 439 -15 b 258 10 349 -15 301 -7 b 146 79 215 25 178 49 b 71 193 114 110 89 147 b 43 347 53 239 43 290 z m 476 425 b 456 500 476 454 469 479 b 381 531 442 521 417 531 b 311 507 354 531 331 522 b 269 425 290 492 276 464 l 475 425 z m 131 797 b 186 951 139 868 157 919 b 286 999 215 983 249 999 b 339 990 304 999 322 996 b 383 969 354 983 369 976 b 421 950 397 963 410 956 b 453 940 432 943 443 940 b 481 953 464 940 474 944 b 500 999 488 961 494 976 l 619 999 b 564 844 611 928 593 876 b 464 796 535 813 501 796 b 413 804 446 796 429 799 b 367 824 396 810 381 817 b 329 843 353 831 340 838 b 296 851 317 849 306 851 b 268 839 285 851 275 847 b 249 793 261 831 254 815 l 129 793 l 129 793 z "},"ế":{"ha":731,"x_min":0,"x_max":0,"o":"m 44 347 b 74 500 44 404 54 456 b 147 614 92 544 117 582 b 253 686 178 646 213 669 b 378 711 293 703 335 711 b 511 685 429 711 474 703 b 606 613 549 667 581 643 b 663 506 631 582 650 546 b 681 376 675 465 681 422 b 676 319 681 356 679 336 b 669 282 674 303 671 290 l 274 282 b 333 190 285 238 304 207 b 435 165 363 174 396 165 b 504 176 458 165 482 169 b 575 207 526 183 550 193 l 653 65 b 528 6 615 39 574 19 b 400 -15 482 -8 439 -15 b 258 10 349 -15 301 -7 b 146 79 215 25 178 49 b 71 193 114 110 89 147 b 43 347 53 239 43 290 z m 476 425 b 456 500 476 454 469 479 b 381 531 442 521 417 531 b 311 507 354 531 331 522 b 269 425 290 492 276 464 l 475 425 z m 281 981 l 469 981 l 581 797 l 436 797 l 378 883 l 372 883 l 314 797 l 169 797 l 281 981 z m 625 1067 l 797 1067 l 664 900 l 533 900 l 625 1067 z "},"ề":{"ha":731,"x_min":0,"x_max":0,"o":"m 44 347 b 74 500 44 404 54 456 b 147 614 92 544 117 582 b 253 686 178 646 213 669 b 378 711 293 703 335 711 b 511 685 429 711 474 703 b 606 613 549 667 581 643 b 663 506 631 582 650 546 b 681 376 675 465 681 422 b 676 319 681 356 679 336 b 669 282 674 303 671 290 l 274 282 b 333 190 285 238 304 207 b 435 165 363 174 396 165 b 504 176 458 165 482 169 b 575 207 526 183 550 193 l 653 65 b 528 6 615 39 574 19 b 400 -15 482 -8 439 -15 b 258 10 349 -15 301 -7 b 146 79 215 25 178 49 b 71 193 114 110 89 147 b 43 347 53 239 43 290 z m 476 425 b 456 500 476 454 469 479 b 381 531 442 521 417 531 b 311 507 354 531 331 522 b 269 425 290 492 276 464 l 475 425 z m 281 981 l 469 981 l 581 797 l 436 797 l 378 883 l 372 883 l 314 797 l 169 797 l 281 981 z m 747 900 l 617 900 l 483 1067 l 656 1067 l 747 900 z "},"ể":{"ha":731,"x_min":0,"x_max":0,"o":"m 44 347 b 74 500 44 404 54 456 b 147 614 92 544 117 582 b 253 686 178 646 213 669 b 378 711 293 703 335 711 b 511 685 429 711 474 703 b 606 613 549 667 581 643 b 663 506 631 582 650 546 b 681 376 675 465 681 422 b 676 319 681 356 679 336 b 669 282 674 303 671 290 l 274 282 b 333 190 285 238 304 207 b 435 165 363 174 396 165 b 504 176 458 165 482 169 b 575 207 526 183 550 193 l 653 65 b 528 6 615 39 574 19 b 400 -15 482 -8 439 -15 b 258 10 349 -15 301 -7 b 146 79 215 25 178 49 b 71 193 114 110 89 147 b 43 347 53 239 43 290 z m 476 425 b 456 500 476 454 469 479 b 381 531 442 521 417 531 b 311 507 354 531 331 522 b 269 425 290 492 276 464 l 475 425 z m 281 981 l 469 981 l 581 797 l 436 797 l 378 883 l 372 883 l 314 797 l 169 797 l 281 981 z m 564 950 b 590 958 575 951 583 954 b 600 982 597 963 600 971 b 582 1010 600 993 594 1003 b 511 1024 569 1017 546 1021 l 533 1121 b 640 1110 576 1119 613 1115 b 707 1085 668 1103 690 1094 b 743 1050 724 1075 736 1064 b 753 1006 750 1036 753 1021 b 739 946 753 982 749 963 b 701 906 729 929 717 915 b 647 882 686 896 668 888 b 581 869 626 876 604 872 l 567 947 z "},"ễ":{"ha":731,"x_min":0,"x_max":0,"o":"m 44 347 b 74 500 44 404 54 456 b 147 614 92 544 117 582 b 253 686 178 646 213 669 b 378 711 293 703 335 711 b 511 685 429 711 474 703 b 606 613 549 667 581 643 b 663 506 631 582 650 546 b 681 376 675 465 681 422 b 676 319 681 356 679 336 b 669 282 674 303 671 290 l 274 282 b 333 190 285 238 304 207 b 435 165 363 174 396 165 b 504 176 458 165 482 169 b 575 207 526 183 550 193 l 653 65 b 528 6 615 39 574 19 b 400 -15 482 -8 439 -15 b 258 10 349 -15 301 -7 b 146 79 215 25 178 49 b 71 193 114 110 89 147 b 43 347 53 239 43 290 z m 476 425 b 456 500 476 454 469 479 b 381 531 442 521 417 531 b 311 507 354 531 331 522 b 269 425 290 492 276 464 l 475 425 z m 267 956 l 483 956 l 592 797 l 439 797 l 378 875 l 372 875 l 311 797 l 158 797 l 267 956 z m 164 1006 b 213 1136 171 1067 188 1110 b 296 1175 238 1163 265 1175 b 344 1167 314 1175 331 1172 b 382 1149 358 1161 371 1156 b 410 1131 392 1142 401 1136 b 436 1122 418 1125 426 1122 b 465 1133 447 1122 457 1126 b 482 1171 472 1140 478 1153 l 582 1171 b 533 1040 575 1110 558 1067 b 449 1001 507 1014 479 1001 b 400 1010 431 1001 414 1004 b 363 1026 386 1014 374 1019 b 333 1044 351 1033 342 1039 b 304 1051 324 1049 314 1051 b 275 1040 293 1051 283 1047 b 256 1003 267 1033 260 1021 l 156 1003 z "},"ệ":{"ha":731,"x_min":0,"x_max":0,"o":"m 44 347 b 74 500 44 404 54 456 b 147 614 92 544 117 582 b 253 686 178 646 213 669 b 378 711 293 703 335 711 b 511 685 429 711 474 703 b 606 613 549 667 581 643 b 663 506 631 582 650 546 b 681 376 675 465 681 422 b 676 319 681 356 679 336 b 669 282 674 303 671 290 l 274 282 b 333 190 285 238 304 207 b 435 165 363 174 396 165 b 504 176 458 165 482 169 b 575 207 526 183 550 193 l 653 65 b 528 6 615 39 574 19 b 400 -15 482 -8 439 -15 b 258 10 349 -15 301 -7 b 146 79 215 25 178 49 b 71 193 114 110 89 147 b 43 347 53 239 43 290 z m 476 425 b 456 500 476 454 469 479 b 381 531 442 521 417 531 b 311 507 354 531 331 522 b 269 425 290 492 276 464 l 475 425 z m 281 1011 l 469 1011 l 603 797 l 444 797 l 378 900 l 372 900 l 306 797 l 147 797 l 281 1011 z m 375 -325 b 283 -292 338 -325 307 -314 b 247 -206 260 -269 247 -240 b 283 -119 247 -171 260 -142 b 375 -86 307 -97 338 -86 b 467 -119 413 -86 443 -97 b 501 -206 490 -142 501 -171 b 467 -292 501 -240 490 -269 b 375 -325 443 -314 413 -325 z "},"ę":{"ha":731,"x_min":0,"x_max":0,"o":"m 44 347 b 74 500 44 404 54 456 b 147 614 92 544 117 582 b 253 686 178 646 213 669 b 378 711 293 703 335 711 b 511 685 429 711 474 703 b 606 613 549 667 581 643 b 663 506 631 582 650 546 b 681 376 675 465 681 422 b 676 319 681 356 679 336 b 669 282 674 303 671 290 l 274 282 b 333 190 285 238 304 207 b 435 165 363 174 396 165 b 504 176 458 165 482 169 b 575 207 526 183 550 193 l 653 65 b 578 11 622 44 597 26 b 532 -31 558 -4 543 -18 b 510 -68 521 -43 514 -56 b 504 -106 506 -81 504 -93 b 521 -140 504 -121 510 -132 b 561 -153 532 -149 546 -153 b 586 -149 569 -153 578 -151 b 607 -137 593 -146 600 -142 l 654 -243 b 582 -279 635 -258 611 -271 b 503 -293 553 -289 526 -293 b 394 -260 460 -293 424 -282 b 350 -164 365 -239 350 -207 b 375 -76 350 -131 358 -101 b 425 -15 392 -51 408 -31 b 410 -18 418 -17 413 -18 b 400 -18 406 -18 403 -18 b 258 7 349 -18 301 -10 b 146 76 215 22 178 46 b 71 190 114 107 89 144 b 43 344 53 236 43 288 z m 476 422 b 456 497 476 451 469 476 b 381 528 442 518 417 528 b 311 504 354 528 331 519 b 269 422 290 489 276 461 l 475 422 z "},"ĝ":{"ha":758,"x_min":0,"x_max":0,"o":"m 236 -75 b 274 -124 236 -97 249 -114 b 372 -139 299 -133 332 -139 b 469 -122 411 -139 443 -133 b 508 -76 496 -111 508 -96 b 483 -43 508 -58 500 -47 b 414 -36 467 -39 443 -36 l 360 -36 b 297 -33 332 -36 311 -35 b 260 -28 282 -32 269 -31 b 242 -51 251 -36 246 -44 b 235 -76 238 -58 235 -67 z m 40 -115 b 138 18 40 -61 72 -17 l 138 24 b 92 69 119 36 104 51 b 74 140 79 88 74 111 b 94 211 74 164 81 188 b 151 271 108 235 128 254 l 151 276 b 85 347 126 293 104 317 b 56 454 65 378 56 414 b 81 567 56 497 64 535 b 147 646 97 599 119 625 b 243 692 175 667 207 682 b 351 707 278 701 314 707 b 463 690 392 707 429 701 l 721 690 l 721 518 l 621 518 b 629 486 624 510 626 499 b 632 446 631 474 632 460 b 610 342 632 406 625 371 b 550 271 594 313 575 289 b 461 231 525 253 496 239 b 351 217 426 221 390 217 b 272 226 328 217 301 219 b 260 208 265 219 261 214 b 257 185 258 203 257 194 b 279 153 257 169 264 158 b 354 143 294 146 319 143 l 458 143 b 661 101 546 143 614 129 b 732 -37 708 72 732 26 b 703 -140 732 -75 722 -110 b 622 -221 683 -172 657 -199 b 496 -272 588 -243 546 -260 b 328 -290 446 -285 390 -290 b 215 -282 288 -290 250 -287 b 124 -253 181 -276 150 -267 b 61 -199 97 -239 76 -221 b 38 -119 46 -178 38 -151 z m 351 356 b 406 379 374 356 392 364 b 426 453 419 394 426 419 b 406 524 426 485 419 508 b 351 546 392 539 374 546 b 297 524 329 546 311 539 b 276 453 283 508 276 485 b 297 379 276 419 283 394 b 351 356 311 364 329 356 z m 257 1006 l 446 1006 l 579 792 l 421 792 l 354 894 l 349 894 l 282 792 l 124 792 l 257 1006 z "},"ğ":{"ha":758,"x_min":0,"x_max":0,"o":"m 236 -75 b 274 -124 236 -97 249 -114 b 372 -139 299 -133 332 -139 b 469 -122 411 -139 443 -133 b 508 -76 496 -111 508 -96 b 483 -43 508 -58 500 -47 b 414 -36 467 -39 443 -36 l 360 -36 b 297 -33 332 -36 311 -35 b 260 -28 282 -32 269 -31 b 242 -51 251 -36 246 -44 b 235 -76 238 -58 235 -67 z m 40 -115 b 138 18 40 -61 72 -17 l 138 24 b 92 69 119 36 104 51 b 74 140 79 88 74 111 b 94 211 74 164 81 188 b 151 271 108 235 128 254 l 151 276 b 85 347 126 293 104 317 b 56 454 65 378 56 414 b 81 567 56 497 64 535 b 147 646 97 599 119 625 b 243 692 175 667 207 682 b 351 707 278 701 314 707 b 463 690 392 707 429 701 l 721 690 l 721 518 l 621 518 b 629 486 624 510 626 499 b 632 446 631 474 632 460 b 610 342 632 406 625 371 b 550 271 594 313 575 289 b 461 231 525 253 496 239 b 351 217 426 221 390 217 b 272 226 328 217 301 219 b 260 208 265 219 261 214 b 257 185 258 203 257 194 b 279 153 257 169 264 158 b 354 143 294 146 319 143 l 458 143 b 661 101 546 143 614 129 b 732 -37 708 72 732 26 b 703 -140 732 -75 722 -110 b 622 -221 683 -172 657 -199 b 496 -272 588 -243 546 -260 b 328 -290 446 -285 390 -290 b 215 -282 288 -290 250 -287 b 124 -253 181 -276 150 -267 b 61 -199 97 -239 76 -221 b 38 -119 46 -178 38 -151 z m 351 356 b 406 379 374 356 392 364 b 426 453 419 394 426 419 b 406 524 426 485 419 508 b 351 546 392 539 374 546 b 297 524 329 546 311 539 b 276 453 283 508 276 485 b 297 379 276 419 283 394 b 351 356 311 364 329 356 z m 351 792 b 264 808 318 792 289 797 b 201 850 239 818 218 832 b 164 914 185 868 172 889 b 150 989 156 938 151 963 l 281 989 b 301 938 283 968 290 951 b 350 917 313 924 329 917 b 399 938 371 917 388 924 b 419 988 410 950 417 967 l 550 988 b 536 911 549 961 544 936 b 499 847 528 886 515 865 b 436 804 482 829 461 815 b 349 788 411 793 382 788 z "},"ġ":{"ha":758,"x_min":0,"x_max":0,"o":"m 236 -75 b 274 -124 236 -97 249 -114 b 372 -139 299 -133 332 -139 b 469 -122 411 -139 443 -133 b 508 -76 496 -111 508 -96 b 483 -43 508 -58 500 -47 b 414 -36 467 -39 443 -36 l 360 -36 b 297 -33 332 -36 311 -35 b 260 -28 282 -32 269 -31 b 242 -51 251 -36 246 -44 b 235 -76 238 -58 235 -67 z m 40 -115 b 138 18 40 -61 72 -17 l 138 24 b 92 69 119 36 104 51 b 74 140 79 88 74 111 b 94 211 74 164 81 188 b 151 271 108 235 128 254 l 151 276 b 85 347 126 293 104 317 b 56 454 65 378 56 414 b 81 567 56 497 64 535 b 147 646 97 599 119 625 b 243 692 175 667 207 682 b 351 707 278 701 314 707 b 463 690 392 707 429 701 l 721 690 l 721 518 l 621 518 b 629 486 624 510 626 499 b 632 446 631 474 632 460 b 610 342 632 406 625 371 b 550 271 594 313 575 289 b 461 231 525 253 496 239 b 351 217 426 221 390 217 b 272 226 328 217 301 219 b 260 208 265 219 261 214 b 257 185 258 203 257 194 b 279 153 257 169 264 158 b 354 143 294 146 319 143 l 458 143 b 661 101 546 143 614 129 b 732 -37 708 72 732 26 b 703 -140 732 -75 722 -110 b 622 -221 683 -172 657 -199 b 496 -272 588 -243 546 -260 b 328 -290 446 -285 390 -290 b 215 -282 288 -290 250 -287 b 124 -253 181 -276 150 -267 b 61 -199 97 -239 76 -221 b 38 -119 46 -178 38 -151 z m 351 356 b 406 379 374 356 392 364 b 426 453 419 394 426 419 b 406 524 426 485 419 508 b 351 546 392 539 374 546 b 297 524 329 546 311 539 b 276 453 283 508 276 485 b 297 379 276 419 283 394 b 351 356 311 364 329 356 z m 351 775 b 260 808 314 775 283 786 b 224 894 236 831 224 860 b 260 981 224 929 236 958 b 351 1014 283 1003 314 1014 b 443 981 389 1014 419 1003 b 478 894 467 958 478 929 b 443 808 478 860 467 831 b 351 775 419 786 389 775 z "},"ģ":{"ha":758,"x_min":0,"x_max":0,"o":"m 236 -75 b 274 -124 236 -97 249 -114 b 372 -139 299 -133 332 -139 b 469 -122 411 -139 443 -133 b 508 -76 496 -111 508 -96 b 483 -43 508 -58 500 -47 b 414 -36 467 -39 443 -36 l 360 -36 b 297 -33 332 -36 311 -35 b 260 -28 282 -32 269 -31 b 242 -51 251 -36 246 -44 b 235 -76 238 -58 235 -67 z m 40 -115 b 138 18 40 -61 72 -17 l 138 24 b 92 69 119 36 104 51 b 74 140 79 88 74 111 b 94 211 74 164 81 188 b 151 271 108 235 128 254 l 151 276 b 85 347 126 293 104 317 b 56 454 65 378 56 414 b 81 567 56 497 64 535 b 147 646 97 599 119 625 b 243 692 175 667 207 682 b 351 707 278 701 314 707 b 463 690 392 707 429 701 l 721 690 l 721 518 l 621 518 b 629 486 624 510 626 499 b 632 446 631 474 632 460 b 610 342 632 406 625 371 b 550 271 594 313 575 289 b 461 231 525 253 496 239 b 351 217 426 221 390 217 b 272 226 328 217 301 219 b 260 208 265 219 261 214 b 257 185 258 203 257 194 b 279 153 257 169 264 158 b 354 143 294 146 319 143 l 458 143 b 661 101 546 143 614 129 b 732 -37 708 72 732 26 b 703 -140 732 -75 722 -110 b 622 -221 683 -172 657 -199 b 496 -272 588 -243 546 -260 b 328 -290 446 -285 390 -290 b 215 -282 288 -290 250 -287 b 124 -253 181 -276 150 -267 b 61 -199 97 -239 76 -221 b 38 -119 46 -178 38 -151 z m 351 356 b 406 379 374 356 392 364 b 426 453 419 394 426 419 b 406 524 426 485 419 508 b 351 546 392 539 374 546 b 297 524 329 546 311 539 b 276 453 283 508 276 485 b 297 379 276 419 283 394 b 351 356 311 364 329 356 z m 404 753 b 317 765 369 756 340 760 b 261 789 293 771 275 779 b 232 824 247 799 238 810 b 222 869 225 836 222 851 b 243 935 222 894 229 917 b 300 981 257 953 276 968 b 383 1008 324 993 351 1003 b 483 1019 415 1014 449 1018 l 500 928 b 421 914 468 925 442 921 b 389 881 400 907 389 896 b 401 853 389 869 393 860 b 443 833 408 846 422 839 l 399 750 l 399 750 z "},"ǧ":{"ha":758,"x_min":0,"x_max":0,"o":"m 236 -75 b 274 -124 236 -97 249 -114 b 372 -139 299 -133 332 -139 b 469 -122 411 -139 443 -133 b 508 -76 496 -111 508 -96 b 483 -43 508 -58 500 -47 b 414 -36 467 -39 443 -36 l 360 -36 b 297 -33 332 -36 311 -35 b 260 -28 282 -32 269 -31 b 242 -51 251 -36 246 -44 b 235 -76 238 -58 235 -67 z m 40 -115 b 138 18 40 -61 72 -17 l 138 24 b 92 69 119 36 104 51 b 74 140 79 88 74 111 b 94 211 74 164 81 188 b 151 271 108 235 128 254 l 151 276 b 85 347 126 293 104 317 b 56 454 65 378 56 414 b 81 567 56 497 64 535 b 147 646 97 599 119 625 b 243 692 175 667 207 682 b 351 707 278 701 314 707 b 463 690 392 707 429 701 l 721 690 l 721 518 l 621 518 b 629 486 624 510 626 499 b 632 446 631 474 632 460 b 610 342 632 406 625 371 b 550 271 594 313 575 289 b 461 231 525 253 496 239 b 351 217 426 221 390 217 b 272 226 328 217 301 219 b 260 208 265 219 261 214 b 257 185 258 203 257 194 b 279 153 257 169 264 158 b 354 143 294 146 319 143 l 458 143 b 661 101 546 143 614 129 b 732 -37 708 72 732 26 b 703 -140 732 -75 722 -110 b 622 -221 683 -172 657 -199 b 496 -272 588 -243 546 -260 b 328 -290 446 -285 390 -290 b 215 -282 288 -290 250 -287 b 124 -253 181 -276 150 -267 b 61 -199 97 -239 76 -221 b 38 -119 46 -178 38 -151 z m 351 356 b 406 379 374 356 392 364 b 426 453 419 394 426 419 b 406 524 426 485 419 508 b 351 546 392 539 374 546 b 297 524 329 546 311 539 b 276 453 283 508 276 485 b 297 379 276 419 283 394 b 351 356 311 364 329 356 z m 124 1006 l 282 1006 l 349 903 l 354 903 l 421 1006 l 579 1006 l 446 792 l 257 792 l 124 1006 z "},"ḡ":{"ha":758,"x_min":0,"x_max":0,"o":"m 236 -75 b 274 -124 236 -97 249 -114 b 372 -139 299 -133 332 -139 b 469 -122 411 -139 443 -133 b 508 -76 496 -111 508 -96 b 483 -43 508 -58 500 -47 b 414 -36 467 -39 443 -36 l 360 -36 b 297 -33 332 -36 311 -35 b 260 -28 282 -32 269 -31 b 242 -51 251 -36 246 -44 b 235 -76 238 -58 235 -67 z m 40 -115 b 138 18 40 -61 72 -17 l 138 24 b 92 69 119 36 104 51 b 74 140 79 88 74 111 b 94 211 74 164 81 188 b 151 271 108 235 128 254 l 151 276 b 85 347 126 293 104 317 b 56 454 65 378 56 414 b 81 567 56 497 64 535 b 147 646 97 599 119 625 b 243 692 175 667 207 682 b 351 707 278 701 314 707 b 463 690 392 707 429 701 l 721 690 l 721 518 l 621 518 b 629 486 624 510 626 499 b 632 446 631 474 632 460 b 610 342 632 406 625 371 b 550 271 594 313 575 289 b 461 231 525 253 496 239 b 351 217 426 221 390 217 b 272 226 328 217 301 219 b 260 208 265 219 261 214 b 257 185 258 203 257 194 b 279 153 257 169 264 158 b 354 143 294 146 319 143 l 458 143 b 661 101 546 143 614 129 b 732 -37 708 72 732 26 b 703 -140 732 -75 722 -110 b 622 -221 683 -172 657 -199 b 496 -272 588 -243 546 -260 b 328 -290 446 -285 390 -290 b 215 -282 288 -290 250 -287 b 124 -253 181 -276 150 -267 b 61 -199 97 -239 76 -221 b 38 -119 46 -178 38 -151 z m 351 356 b 406 379 374 356 392 364 b 426 453 419 394 426 419 b 406 524 426 485 419 508 b 351 546 392 539 374 546 b 297 524 329 546 311 539 b 276 453 283 508 276 485 b 297 379 276 419 283 394 b 351 356 311 364 329 356 z m 151 961 l 551 961 l 551 811 l 151 811 l 151 961 z "},"ĥ":{"ha":808,"x_min":0,"x_max":0,"o":"m 81 967 l 319 967 l 319 742 l 308 622 b 394 683 332 643 361 664 b 515 711 428 701 468 711 b 682 635 592 711 647 686 b 733 428 717 583 733 514 l 733 0 l 494 0 l 494 397 b 478 486 494 442 489 471 b 425 508 467 501 449 508 b 369 494 403 508 385 504 b 319 456 354 485 338 472 l 319 0 l 81 0 l 81 967 z m -53 1042 l 81 1214 l 314 1214 l 447 1042 l 267 1042 l 200 1122 l 194 1122 l 128 1042 l -53 1042 z "},"ḥ":{"ha":808,"x_min":0,"x_max":0,"o":"m 81 967 l 319 967 l 319 742 l 308 622 b 394 683 332 643 361 664 b 515 711 428 701 468 711 b 682 635 592 711 647 686 b 733 428 717 583 733 514 l 733 0 l 494 0 l 494 397 b 478 486 494 442 489 471 b 425 508 467 501 449 508 b 369 494 403 508 385 504 b 319 456 354 485 338 472 l 319 0 l 81 0 l 81 967 z m 411 -325 b 319 -292 374 -325 343 -314 b 283 -206 296 -269 283 -240 b 319 -119 283 -171 296 -142 b 411 -86 343 -97 374 -86 b 503 -119 449 -86 479 -97 b 538 -206 526 -142 538 -171 b 503 -292 538 -240 526 -269 b 411 -325 479 -314 449 -325 z "},"ḫ":{"ha":808,"x_min":0,"x_max":0,"o":"m 81 967 l 319 967 l 319 742 l 308 622 b 394 683 332 643 361 664 b 515 711 428 701 468 711 b 682 635 592 711 647 686 b 733 428 717 583 733 514 l 733 0 l 494 0 l 494 397 b 478 486 494 442 489 471 b 425 508 467 501 449 508 b 369 494 403 508 385 504 b 319 456 354 485 338 472 l 319 0 l 81 0 l 81 967 z m 411 -294 b 324 -278 378 -294 349 -289 b 261 -236 299 -268 278 -254 b 224 -172 244 -218 232 -197 b 210 -97 215 -149 211 -124 l 340 -97 b 361 -149 343 -118 350 -135 b 410 -169 372 -162 389 -169 b 458 -149 431 -169 447 -162 b 479 -99 469 -136 476 -119 l 610 -99 b 596 -175 608 -125 604 -150 b 558 -239 588 -200 575 -221 b 496 -282 542 -257 521 -271 b 408 -299 471 -293 442 -299 z "},"ħ":{"ha":808,"x_min":0,"x_max":0,"o":"m 308 594 b 394 656 332 615 361 636 b 515 683 428 674 468 683 b 682 607 592 683 647 658 b 733 400 717 556 733 486 l 733 0 l 494 0 l 494 369 b 478 458 494 414 489 443 b 425 481 467 474 449 481 b 369 467 403 481 385 476 b 319 428 354 457 338 444 l 319 0 l 81 0 l 81 764 l -11 764 l -11 867 l 81 874 l 81 967 l 319 967 l 319 875 l 547 875 l 547 764 l 319 764 l 319 714 l 308 594 z "},"ì":{"ha":400,"x_min":0,"x_max":0,"o":"m 81 694 l 319 694 l 319 0 l 81 0 l 81 694 z m -28 1011 l 200 1011 l 322 797 l 150 797 l -28 1011 z "},"í":{"ha":400,"x_min":0,"x_max":0,"o":"m 81 694 l 319 694 l 319 0 l 81 0 l 81 694 z m 250 797 l 78 797 l 200 1011 l 428 1011 l 250 797 z "},"î":{"ha":400,"x_min":0,"x_max":0,"o":"m 81 694 l 319 694 l 319 0 l 81 0 l 81 694 z m 106 1011 l 294 1011 l 428 797 l 269 797 l 203 900 l 197 900 l 131 797 l -28 797 l 106 1011 z "},"ĩ":{"ha":400,"x_min":0,"x_max":0,"o":"m 81 694 l 319 694 l 319 0 l 81 0 l 81 694 z m -44 797 b 11 951 -36 868 -18 919 b 111 999 40 983 74 999 b 164 990 129 999 147 996 b 208 969 179 983 194 976 b 246 950 222 963 235 956 b 278 940 257 943 268 940 b 306 953 289 940 299 944 b 325 999 313 961 319 976 l 444 999 b 389 844 436 928 418 876 b 289 796 360 813 326 796 b 238 804 271 796 254 799 b 192 824 221 810 206 817 b 154 843 178 831 165 838 b 121 851 142 849 131 851 b 93 839 110 851 100 847 b 74 793 86 831 79 815 l -46 793 l -46 793 z "},"ï":{"ha":400,"x_min":0,"x_max":0,"o":"m 81 694 l 319 694 l 319 0 l 81 0 l 81 694 z m 56 783 b -22 815 24 783 -3 794 b -53 892 -43 836 -53 861 b -24 969 -53 922 -43 949 b 54 1000 -4 990 22 1000 b 132 969 86 1000 113 990 b 161 892 151 949 161 922 b 132 815 161 861 151 836 b 53 783 111 794 85 783 z m 342 783 b 264 815 310 783 283 794 b 233 892 243 836 233 861 b 263 969 233 922 243 949 b 340 1000 282 990 308 1000 b 418 969 372 1000 399 990 b 447 892 438 949 447 922 b 418 815 447 861 438 836 b 339 783 397 794 371 783 z "},"ī":{"ha":400,"x_min":0,"x_max":0,"o":"m 81 694 l 319 694 l 319 0 l 81 0 l 81 694 z m 0 967 l 400 967 l 400 817 l 0 817 l 0 967 z "},"ǐ":{"ha":400,"x_min":0,"x_max":0,"o":"m 81 694 l 319 694 l 319 0 l 81 0 l 81 694 z m -28 1011 l 131 1011 l 197 908 l 203 908 l 269 1011 l 428 1011 l 294 797 l 106 797 l -28 1011 z "},"ỉ":{"ha":400,"x_min":0,"x_max":0,"o":"m 81 694 l 319 694 l 319 0 l 81 0 l 81 694 z m 131 867 b 171 875 146 868 160 871 b 186 899 181 879 186 888 b 163 926 186 910 178 919 b 79 940 147 933 119 938 l 107 1057 b 228 1044 156 1056 196 1051 b 304 1017 260 1038 285 1028 b 346 975 324 1004 338 990 b 357 925 353 960 357 943 b 340 861 357 900 351 879 b 294 815 329 843 314 828 b 228 786 275 803 253 793 b 147 774 203 779 176 775 l 131 865 z "}}}
